SplineFontDB: 3.2
FontName: AdvancedDotDigital-7
FullName: Advanced Dot Digital-7
FamilyName: Advanced Dot Digital-7
Weight: Book
Copyright: Copyright (c) 2013 by Style-7. All rights reserved. http://www.styleseven.com
Version: 1.000
ItalicAngle: 0
UnderlinePosition: -400
UnderlineWidth: 50
Ascent: 750
Descent: 250
InvalidEm: 0
sfntRevision: 0x00010000
LayerCount: 2
Layer: 0 1 "Back" 1
Layer: 1 1 "Fore" 0
XUID: [1021 636 -1747744995 182301]
StyleMap: 0x0040
FSType: 0
OS2Version: 3
OS2_WeightWidthSlopeOnly: 0
OS2_UseTypoMetrics: 0
CreationTime: 1357908632
ModificationTime: 1729256966
PfmFamily: 17
TTFWeight: 400
TTFWidth: 5
LineGap: 0
VLineGap: 0
Panose: 2 0 0 0 0 0 0 0 0 0
OS2TypoAscent: 750
OS2TypoAOffset: 0
OS2TypoDescent: -250
OS2TypoDOffset: 0
OS2TypoLinegap: 0
OS2WinAscent: 1550
OS2WinAOffset: 0
OS2WinDescent: 400
OS2WinDOffset: 0
HheadAscent: 750
HheadAOffset: 0
HheadDescent: -250
HheadDOffset: 0
OS2SubXSize: 700
OS2SubYSize: 650
OS2SubXOff: 0
OS2SubYOff: 100
OS2SupXSize: 700
OS2SupYSize: 650
OS2SupXOff: 0
OS2SupYOff: 500
OS2StrikeYSize: 50
OS2StrikeYPos: 250
OS2CapHeight: 1150
OS2XHeight: 575
OS2Vendor: 'PYRS'
OS2CodePages: 00000005.00000000
OS2UnicodeRanges: 8000022f.0000000a.00000000.00000000
DEI: 91125
ShortTable: maxp 16
  1
  0
  314
  356
  89
  0
  0
  1
  0
  0
  0
  0
  0
  0
  0
  0
EndShort
LangName: 1033 "" "" "Regular" "Style-7: Advanced Dot Digital-7: 2013" "" "Version 1.000" "" "" "Style-7" "Sizenko Alexander" "" "" "http://www.styleseven.com" "Freeware for personal using only." "" "" "" "" "Advanced Dot Digital-7"
GaspTable: 1 65535 0 0
Encoding: UnicodeBmp
UnicodeInterp: none
NameList: AGL For New Fonts
DisplaySize: -48
AntiAlias: 1
FitToEm: 0
WinInfo: 0 38 11
BeginChars: 65539 314

StartChar: dollar
Encoding: 36 36 4
Width: 900
GlyphClass: 1
Flags: W
LayerCount: 2
Fore
SplineSet
300 1350 m 1,0,-1
 350 1350 l 1,1,-1
 350 1300 l 1,2,-1
 300 1300 l 1,3,-1
 300 1350 l 1,0,-1
400 -150 m 1,4,-1
 450 -150 l 1,5,-1
 450 -200 l 1,6,-1
 400 -200 l 1,7,-1
 400 -150 l 1,4,-1
300 -150 m 1,8,-1
 350 -150 l 1,9,-1
 350 -200 l 1,10,-1
 300 -200 l 1,11,-1
 300 -150 l 1,8,-1
400 -50 m 1,12,-1
 450 -50 l 1,13,-1
 450 -100 l 1,14,-1
 400 -100 l 1,15,-1
 400 -50 l 1,12,-1
300 -50 m 1,16,-1
 350 -50 l 1,17,-1
 350 -100 l 1,18,-1
 300 -100 l 1,19,-1
 300 -50 l 1,16,-1
600 50 m 1,20,-1
 650 50 l 1,21,-1
 650 0 l 1,22,-1
 600 0 l 1,23,-1
 600 50 l 1,20,-1
500 50 m 1,24,-1
 550 50 l 1,25,-1
 550 0 l 1,26,-1
 500 0 l 1,27,-1
 500 50 l 1,24,-1
400 50 m 1,28,-1
 450 50 l 1,29,-1
 450 0 l 1,30,-1
 400 0 l 1,31,-1
 400 50 l 1,28,-1
300 50 m 1,32,-1
 350 50 l 1,33,-1
 350 0 l 1,34,-1
 300 0 l 1,35,-1
 300 50 l 1,32,-1
200 50 m 1,36,-1
 250 50 l 1,37,-1
 250 0 l 1,38,-1
 200 0 l 1,39,-1
 200 50 l 1,36,-1
100 50 m 1,40,-1
 150 50 l 1,41,-1
 150 0 l 1,42,-1
 100 0 l 1,43,-1
 100 50 l 1,40,-1
700 150 m 1,44,-1
 750 150 l 1,45,-1
 750 100 l 1,46,-1
 700 100 l 1,47,-1
 700 150 l 1,44,-1
600 150 m 1,48,-1
 650 150 l 1,49,-1
 650 100 l 1,50,-1
 600 100 l 1,51,-1
 600 150 l 1,48,-1
500 150 m 1,52,-1
 550 150 l 1,53,-1
 550 100 l 1,54,-1
 500 100 l 1,55,-1
 500 150 l 1,52,-1
400 150 m 1,56,-1
 450 150 l 1,57,-1
 450 100 l 1,58,-1
 400 100 l 1,59,-1
 400 150 l 1,56,-1
300 150 m 1,60,-1
 350 150 l 1,61,-1
 350 100 l 1,62,-1
 300 100 l 1,63,-1
 300 150 l 1,60,-1
200 150 m 1,64,-1
 250 150 l 1,65,-1
 250 100 l 1,66,-1
 200 100 l 1,67,-1
 200 150 l 1,64,-1
100 150 m 1,68,-1
 150 150 l 1,69,-1
 150 100 l 1,70,-1
 100 100 l 1,71,-1
 100 150 l 1,68,-1
0 150 m 1,72,-1
 50 150 l 1,73,-1
 50 100 l 1,74,-1
 0 100 l 1,75,-1
 0 150 l 1,72,-1
700 250 m 1,76,-1
 750 250 l 1,77,-1
 750 200 l 1,78,-1
 700 200 l 1,79,-1
 700 250 l 1,76,-1
600 250 m 1,80,-1
 650 250 l 1,81,-1
 650 200 l 1,82,-1
 600 200 l 1,83,-1
 600 250 l 1,80,-1
400 250 m 1,84,-1
 450 250 l 1,85,-1
 450 200 l 1,86,-1
 400 200 l 1,87,-1
 400 250 l 1,84,-1
300 250 m 1,88,-1
 350 250 l 1,89,-1
 350 200 l 1,90,-1
 300 200 l 1,91,-1
 300 250 l 1,88,-1
100 250 m 1,92,-1
 150 250 l 1,93,-1
 150 200 l 1,94,-1
 100 200 l 1,95,-1
 100 250 l 1,92,-1
0 250 m 1,96,-1
 50 250 l 1,97,-1
 50 200 l 1,98,-1
 0 200 l 1,99,-1
 0 250 l 1,96,-1
700 350 m 1,100,-1
 750 350 l 1,101,-1
 750 300 l 1,102,-1
 700 300 l 1,103,-1
 700 350 l 1,100,-1
600 350 m 1,104,-1
 650 350 l 1,105,-1
 650 300 l 1,106,-1
 600 300 l 1,107,-1
 600 350 l 1,104,-1
400 350 m 1,108,-1
 450 350 l 1,109,-1
 450 300 l 1,110,-1
 400 300 l 1,111,-1
 400 350 l 1,108,-1
300 350 m 1,112,-1
 350 350 l 1,113,-1
 350 300 l 1,114,-1
 300 300 l 1,115,-1
 300 350 l 1,112,-1
700 450 m 1,116,-1
 750 450 l 1,117,-1
 750 400 l 1,118,-1
 700 400 l 1,119,-1
 700 450 l 1,116,-1
600 450 m 1,120,-1
 650 450 l 1,121,-1
 650 400 l 1,122,-1
 600 400 l 1,123,-1
 600 450 l 1,120,-1
400 450 m 1,124,-1
 450 450 l 1,125,-1
 450 400 l 1,126,-1
 400 400 l 1,127,-1
 400 450 l 1,124,-1
300 450 m 1,128,-1
 350 450 l 1,129,-1
 350 400 l 1,130,-1
 300 400 l 1,131,-1
 300 450 l 1,128,-1
700 550 m 1,132,-1
 750 550 l 1,133,-1
 750 500 l 1,134,-1
 700 500 l 1,135,-1
 700 550 l 1,132,-1
600 550 m 1,136,-1
 650 550 l 1,137,-1
 650 500 l 1,138,-1
 600 500 l 1,139,-1
 600 550 l 1,136,-1
500 550 m 1,140,-1
 550 550 l 1,141,-1
 550 500 l 1,142,-1
 500 500 l 1,143,-1
 500 550 l 1,140,-1
400 550 m 1,144,-1
 450 550 l 1,145,-1
 450 500 l 1,146,-1
 400 500 l 1,147,-1
 400 550 l 1,144,-1
300 550 m 1,148,-1
 350 550 l 1,149,-1
 350 500 l 1,150,-1
 300 500 l 1,151,-1
 300 550 l 1,148,-1
200 550 m 1,152,-1
 250 550 l 1,153,-1
 250 500 l 1,154,-1
 200 500 l 1,155,-1
 200 550 l 1,152,-1
100 550 m 1,156,-1
 150 550 l 1,157,-1
 150 500 l 1,158,-1
 100 500 l 1,159,-1
 100 550 l 1,156,-1
600 650 m 1,160,-1
 650 650 l 1,161,-1
 650 600 l 1,162,-1
 600 600 l 1,163,-1
 600 650 l 1,160,-1
500 650 m 1,164,-1
 550 650 l 1,165,-1
 550 600 l 1,166,-1
 500 600 l 1,167,-1
 500 650 l 1,164,-1
400 650 m 1,168,-1
 450 650 l 1,169,-1
 450 600 l 1,170,-1
 400 600 l 1,171,-1
 400 650 l 1,168,-1
300 650 m 1,172,-1
 350 650 l 1,173,-1
 350 600 l 1,174,-1
 300 600 l 1,175,-1
 300 650 l 1,172,-1
200 650 m 1,176,-1
 250 650 l 1,177,-1
 250 600 l 1,178,-1
 200 600 l 1,179,-1
 200 650 l 1,176,-1
100 650 m 1,180,-1
 150 650 l 1,181,-1
 150 600 l 1,182,-1
 100 600 l 1,183,-1
 100 650 l 1,180,-1
0 650 m 1,184,-1
 50 650 l 1,185,-1
 50 600 l 1,186,-1
 0 600 l 1,187,-1
 0 650 l 1,184,-1
400 750 m 1,188,-1
 450 750 l 1,189,-1
 450 700 l 1,190,-1
 400 700 l 1,191,-1
 400 750 l 1,188,-1
300 750 m 1,192,-1
 350 750 l 1,193,-1
 350 700 l 1,194,-1
 300 700 l 1,195,-1
 300 750 l 1,192,-1
100 750 m 1,196,-1
 150 750 l 1,197,-1
 150 700 l 1,198,-1
 100 700 l 1,199,-1
 100 750 l 1,196,-1
0 750 m 1,200,-1
 50 750 l 1,201,-1
 50 700 l 1,202,-1
 0 700 l 1,203,-1
 0 750 l 1,200,-1
400 850 m 1,204,-1
 450 850 l 1,205,-1
 450 800 l 1,206,-1
 400 800 l 1,207,-1
 400 850 l 1,204,-1
300 850 m 1,208,-1
 350 850 l 1,209,-1
 350 800 l 1,210,-1
 300 800 l 1,211,-1
 300 850 l 1,208,-1
100 850 m 1,212,-1
 150 850 l 1,213,-1
 150 800 l 1,214,-1
 100 800 l 1,215,-1
 100 850 l 1,212,-1
0 850 m 1,216,-1
 50 850 l 1,217,-1
 50 800 l 1,218,-1
 0 800 l 1,219,-1
 0 850 l 1,216,-1
700 950 m 1,220,-1
 750 950 l 1,221,-1
 750 900 l 1,222,-1
 700 900 l 1,223,-1
 700 950 l 1,220,-1
600 950 m 1,224,-1
 650 950 l 1,225,-1
 650 900 l 1,226,-1
 600 900 l 1,227,-1
 600 950 l 1,224,-1
400 950 m 1,228,-1
 450 950 l 1,229,-1
 450 900 l 1,230,-1
 400 900 l 1,231,-1
 400 950 l 1,228,-1
300 950 m 1,232,-1
 350 950 l 1,233,-1
 350 900 l 1,234,-1
 300 900 l 1,235,-1
 300 950 l 1,232,-1
100 950 m 1,236,-1
 150 950 l 1,237,-1
 150 900 l 1,238,-1
 100 900 l 1,239,-1
 100 950 l 1,236,-1
0 950 m 1,240,-1
 50 950 l 1,241,-1
 50 900 l 1,242,-1
 0 900 l 1,243,-1
 0 950 l 1,240,-1
700 1050 m 1,244,-1
 750 1050 l 1,245,-1
 750 1000 l 1,246,-1
 700 1000 l 1,247,-1
 700 1050 l 1,244,-1
600 1050 m 1,248,-1
 650 1050 l 1,249,-1
 650 1000 l 1,250,-1
 600 1000 l 1,251,-1
 600 1050 l 1,248,-1
500 1050 m 1,252,-1
 550 1050 l 1,253,-1
 550 1000 l 1,254,-1
 500 1000 l 1,255,-1
 500 1050 l 1,252,-1
400 1050 m 1,256,-1
 450 1050 l 1,257,-1
 450 1000 l 1,258,-1
 400 1000 l 1,259,-1
 400 1050 l 1,256,-1
300 1050 m 1,260,-1
 350 1050 l 1,261,-1
 350 1000 l 1,262,-1
 300 1000 l 1,263,-1
 300 1050 l 1,260,-1
200 1050 m 1,264,-1
 250 1050 l 1,265,-1
 250 1000 l 1,266,-1
 200 1000 l 1,267,-1
 200 1050 l 1,264,-1
100 1050 m 1,268,-1
 150 1050 l 1,269,-1
 150 1000 l 1,270,-1
 100 1000 l 1,271,-1
 100 1050 l 1,268,-1
0 1050 m 1,272,-1
 50 1050 l 1,273,-1
 50 1000 l 1,274,-1
 0 1000 l 1,275,-1
 0 1050 l 1,272,-1
600 1150 m 1,276,-1
 650 1150 l 1,277,-1
 650 1100 l 1,278,-1
 600 1100 l 1,279,-1
 600 1150 l 1,276,-1
500 1150 m 1,280,-1
 550 1150 l 1,281,-1
 550 1100 l 1,282,-1
 500 1100 l 1,283,-1
 500 1150 l 1,280,-1
400 1150 m 1,284,-1
 450 1150 l 1,285,-1
 450 1100 l 1,286,-1
 400 1100 l 1,287,-1
 400 1150 l 1,284,-1
300 1150 m 1,288,-1
 350 1150 l 1,289,-1
 350 1100 l 1,290,-1
 300 1100 l 1,291,-1
 300 1150 l 1,288,-1
200 1150 m 1,292,-1
 250 1150 l 1,293,-1
 250 1100 l 1,294,-1
 200 1100 l 1,295,-1
 200 1150 l 1,292,-1
100 1150 m 1,296,-1
 150 1150 l 1,297,-1
 150 1100 l 1,298,-1
 100 1100 l 1,299,-1
 100 1150 l 1,296,-1
400 1250 m 1,300,-1
 450 1250 l 1,301,-1
 450 1200 l 1,302,-1
 400 1200 l 1,303,-1
 400 1250 l 1,300,-1
300 1250 m 1,304,-1
 350 1250 l 1,305,-1
 350 1200 l 1,306,-1
 300 1200 l 1,307,-1
 300 1250 l 1,304,-1
400 1350 m 1,308,-1
 450 1350 l 1,309,-1
 450 1300 l 1,310,-1
 400 1300 l 1,311,-1
 400 1350 l 1,308,-1
EndSplineSet
EndChar

StartChar: percent
Encoding: 37 37 5
Width: 850
GlyphClass: 1
Flags: W
LayerCount: 2
Fore
SplineSet
0 1150 m 1,0,-1
 50 1150 l 1,1,-1
 50 1100 l 1,2,-1
 0 1100 l 1,3,-1
 0 1150 l 1,0,-1
650 50 m 1,4,-1
 700 50 l 1,5,-1
 700 0 l 1,6,-1
 650 0 l 1,7,-1
 650 50 l 1,4,-1
550 50 m 1,8,-1
 600 50 l 1,9,-1
 600 0 l 1,10,-1
 550 0 l 1,11,-1
 550 50 l 1,8,-1
450 50 m 1,12,-1
 500 50 l 1,13,-1
 500 0 l 1,14,-1
 450 0 l 1,15,-1
 450 50 l 1,12,-1
100 50 m 1,16,-1
 150 50 l 1,17,-1
 150 0 l 1,18,-1
 100 0 l 1,19,-1
 100 50 l 1,16,-1
0 50 m 1,20,-1
 50 50 l 1,21,-1
 50 0 l 1,22,-1
 0 0 l 1,23,-1
 0 50 l 1,20,-1
650 150 m 1,24,-1
 700 150 l 1,25,-1
 700 100 l 1,26,-1
 650 100 l 1,27,-1
 650 150 l 1,24,-1
550 150 m 1,28,-1
 600 150 l 1,29,-1
 600 100 l 1,30,-1
 550 100 l 1,31,-1
 550 150 l 1,28,-1
450 150 m 1,32,-1
 500 150 l 1,33,-1
 500 100 l 1,34,-1
 450 100 l 1,35,-1
 450 150 l 1,32,-1
100 150 m 1,36,-1
 150 150 l 1,37,-1
 150 100 l 1,38,-1
 100 100 l 1,39,-1
 100 150 l 1,36,-1
0 150 m 1,40,-1
 50 150 l 1,41,-1
 50 100 l 1,42,-1
 0 100 l 1,43,-1
 0 150 l 1,40,-1
650 250 m 1,44,-1
 700 250 l 1,45,-1
 700 200 l 1,46,-1
 650 200 l 1,47,-1
 650 250 l 1,44,-1
550 250 m 1,48,-1
 600 250 l 1,49,-1
 600 200 l 1,50,-1
 550 200 l 1,51,-1
 550 250 l 1,48,-1
450 250 m 1,52,-1
 500 250 l 1,53,-1
 500 200 l 1,54,-1
 450 200 l 1,55,-1
 450 250 l 1,52,-1
200 250 m 1,56,-1
 250 250 l 1,57,-1
 250 200 l 1,58,-1
 200 200 l 1,59,-1
 200 250 l 1,56,-1
100 250 m 1,60,-1
 150 250 l 1,61,-1
 150 200 l 1,62,-1
 100 200 l 1,63,-1
 100 250 l 1,60,-1
200 350 m 1,64,-1
 250 350 l 1,65,-1
 250 300 l 1,66,-1
 200 300 l 1,67,-1
 200 350 l 1,64,-1
100 350 m 1,68,-1
 150 350 l 1,69,-1
 150 300 l 1,70,-1
 100 300 l 1,71,-1
 100 350 l 1,68,-1
300 450 m 1,72,-1
 350 450 l 1,73,-1
 350 400 l 1,74,-1
 300 400 l 1,75,-1
 300 450 l 1,72,-1
200 450 m 1,76,-1
 250 450 l 1,77,-1
 250 400 l 1,78,-1
 200 400 l 1,79,-1
 200 450 l 1,76,-1
300 550 m 1,80,-1
 350 550 l 1,81,-1
 350 500 l 1,82,-1
 300 500 l 1,83,-1
 300 550 l 1,80,-1
200 550 m 1,84,-1
 250 550 l 1,85,-1
 250 500 l 1,86,-1
 200 500 l 1,87,-1
 200 550 l 1,84,-1
400 650 m 1,88,-1
 450 650 l 1,89,-1
 450 600 l 1,90,-1
 400 600 l 1,91,-1
 400 650 l 1,88,-1
300 650 m 1,92,-1
 350 650 l 1,93,-1
 350 600 l 1,94,-1
 300 600 l 1,95,-1
 300 650 l 1,92,-1
400 750 m 1,96,-1
 450 750 l 1,97,-1
 450 700 l 1,98,-1
 400 700 l 1,99,-1
 400 750 l 1,96,-1
300 750 m 1,100,-1
 350 750 l 1,101,-1
 350 700 l 1,102,-1
 300 700 l 1,103,-1
 300 750 l 1,100,-1
500 850 m 1,104,-1
 550 850 l 1,105,-1
 550 800 l 1,106,-1
 500 800 l 1,107,-1
 500 850 l 1,104,-1
400 850 m 1,108,-1
 450 850 l 1,109,-1
 450 800 l 1,110,-1
 400 800 l 1,111,-1
 400 850 l 1,108,-1
500 950 m 1,112,-1
 550 950 l 1,113,-1
 550 900 l 1,114,-1
 500 900 l 1,115,-1
 500 950 l 1,112,-1
400 950 m 1,116,-1
 450 950 l 1,117,-1
 450 900 l 1,118,-1
 400 900 l 1,119,-1
 400 950 l 1,116,-1
200 950 m 1,120,-1
 250 950 l 1,121,-1
 250 900 l 1,122,-1
 200 900 l 1,123,-1
 200 950 l 1,120,-1
100 950 m 1,124,-1
 150 950 l 1,125,-1
 150 900 l 1,126,-1
 100 900 l 1,127,-1
 100 950 l 1,124,-1
0 950 m 1,128,-1
 50 950 l 1,129,-1
 50 900 l 1,130,-1
 0 900 l 1,131,-1
 0 950 l 1,128,-1
600 1050 m 1,132,-1
 650 1050 l 1,133,-1
 650 1000 l 1,134,-1
 600 1000 l 1,135,-1
 600 1050 l 1,132,-1
500 1050 m 1,136,-1
 550 1050 l 1,137,-1
 550 1000 l 1,138,-1
 500 1000 l 1,139,-1
 500 1050 l 1,136,-1
200 1050 m 1,140,-1
 250 1050 l 1,141,-1
 250 1000 l 1,142,-1
 200 1000 l 1,143,-1
 200 1050 l 1,140,-1
100 1050 m 1,144,-1
 150 1050 l 1,145,-1
 150 1000 l 1,146,-1
 100 1000 l 1,147,-1
 100 1050 l 1,144,-1
0 1050 m 1,148,-1
 50 1050 l 1,149,-1
 50 1000 l 1,150,-1
 0 1000 l 1,151,-1
 0 1050 l 1,148,-1
600 1150 m 1,152,-1
 650 1150 l 1,153,-1
 650 1100 l 1,154,-1
 600 1100 l 1,155,-1
 600 1150 l 1,152,-1
500 1150 m 1,156,-1
 550 1150 l 1,157,-1
 550 1100 l 1,158,-1
 500 1100 l 1,159,-1
 500 1150 l 1,156,-1
200 1150 m 1,160,-1
 250 1150 l 1,161,-1
 250 1100 l 1,162,-1
 200 1100 l 1,163,-1
 200 1150 l 1,160,-1
100 1150 m 1,164,-1
 150 1150 l 1,165,-1
 150 1100 l 1,166,-1
 100 1100 l 1,167,-1
 100 1150 l 1,164,-1
EndSplineSet
EndChar

StartChar: ampersand
Encoding: 38 38 6
Width: 1000
GlyphClass: 1
Flags: W
LayerCount: 2
Fore
SplineSet
100 1150 m 1,0,-1
 150 1150 l 1,1,-1
 150 1100 l 1,2,-1
 100 1100 l 1,3,-1
 100 1150 l 1,0,-1
800 50 m 1,4,-1
 850 50 l 1,5,-1
 850 0 l 1,6,-1
 800 0 l 1,7,-1
 800 50 l 1,4,-1
700 50 m 1,8,-1
 750 50 l 1,9,-1
 750 0 l 1,10,-1
 700 0 l 1,11,-1
 700 50 l 1,8,-1
500 50 m 1,12,-1
 550 50 l 1,13,-1
 550 0 l 1,14,-1
 500 0 l 1,15,-1
 500 50 l 1,12,-1
400 50 m 1,16,-1
 450 50 l 1,17,-1
 450 0 l 1,18,-1
 400 0 l 1,19,-1
 400 50 l 1,16,-1
300 50 m 1,20,-1
 350 50 l 1,21,-1
 350 0 l 1,22,-1
 300 0 l 1,23,-1
 300 50 l 1,20,-1
200 50 m 1,24,-1
 250 50 l 1,25,-1
 250 0 l 1,26,-1
 200 0 l 1,27,-1
 200 50 l 1,24,-1
100 50 m 1,28,-1
 150 50 l 1,29,-1
 150 0 l 1,30,-1
 100 0 l 1,31,-1
 100 50 l 1,28,-1
800 150 m 1,32,-1
 850 150 l 1,33,-1
 850 100 l 1,34,-1
 800 100 l 1,35,-1
 800 150 l 1,32,-1
700 150 m 1,36,-1
 750 150 l 1,37,-1
 750 100 l 1,38,-1
 700 100 l 1,39,-1
 700 150 l 1,36,-1
600 150 m 1,40,-1
 650 150 l 1,41,-1
 650 100 l 1,42,-1
 600 100 l 1,43,-1
 600 150 l 1,40,-1
500 150 m 1,44,-1
 550 150 l 1,45,-1
 550 100 l 1,46,-1
 500 100 l 1,47,-1
 500 150 l 1,44,-1
400 150 m 1,48,-1
 450 150 l 1,49,-1
 450 100 l 1,50,-1
 400 100 l 1,51,-1
 400 150 l 1,48,-1
300 150 m 1,52,-1
 350 150 l 1,53,-1
 350 100 l 1,54,-1
 300 100 l 1,55,-1
 300 150 l 1,52,-1
200 150 m 1,56,-1
 250 150 l 1,57,-1
 250 100 l 1,58,-1
 200 100 l 1,59,-1
 200 150 l 1,56,-1
100 150 m 1,60,-1
 150 150 l 1,61,-1
 150 100 l 1,62,-1
 100 100 l 1,63,-1
 100 150 l 1,60,-1
0 150 m 1,64,-1
 50 150 l 1,65,-1
 50 100 l 1,66,-1
 0 100 l 1,67,-1
 0 150 l 1,64,-1
600 250 m 1,68,-1
 650 250 l 1,69,-1
 650 200 l 1,70,-1
 600 200 l 1,71,-1
 600 250 l 1,68,-1
500 250 m 1,72,-1
 550 250 l 1,73,-1
 550 200 l 1,74,-1
 500 200 l 1,75,-1
 500 250 l 1,72,-1
100 250 m 1,76,-1
 150 250 l 1,77,-1
 150 200 l 1,78,-1
 100 200 l 1,79,-1
 100 250 l 1,76,-1
0 250 m 1,80,-1
 50 250 l 1,81,-1
 50 200 l 1,82,-1
 0 200 l 1,83,-1
 0 250 l 1,80,-1
600 350 m 1,84,-1
 650 350 l 1,85,-1
 650 300 l 1,86,-1
 600 300 l 1,87,-1
 600 350 l 1,84,-1
500 350 m 1,88,-1
 550 350 l 1,89,-1
 550 300 l 1,90,-1
 500 300 l 1,91,-1
 500 350 l 1,88,-1
100 350 m 1,92,-1
 150 350 l 1,93,-1
 150 300 l 1,94,-1
 100 300 l 1,95,-1
 100 350 l 1,92,-1
0 350 m 1,96,-1
 50 350 l 1,97,-1
 50 300 l 1,98,-1
 0 300 l 1,99,-1
 0 350 l 1,96,-1
600 450 m 1,100,-1
 650 450 l 1,101,-1
 650 400 l 1,102,-1
 600 400 l 1,103,-1
 600 450 l 1,100,-1
500 450 m 1,104,-1
 550 450 l 1,105,-1
 550 400 l 1,106,-1
 500 400 l 1,107,-1
 500 450 l 1,104,-1
100 450 m 1,108,-1
 150 450 l 1,109,-1
 150 400 l 1,110,-1
 100 400 l 1,111,-1
 100 450 l 1,108,-1
0 450 m 1,112,-1
 50 450 l 1,113,-1
 50 400 l 1,114,-1
 0 400 l 1,115,-1
 0 450 l 1,112,-1
800 550 m 1,116,-1
 850 550 l 1,117,-1
 850 500 l 1,118,-1
 800 500 l 1,119,-1
 800 550 l 1,116,-1
700 550 m 1,120,-1
 750 550 l 1,121,-1
 750 500 l 1,122,-1
 700 500 l 1,123,-1
 700 550 l 1,120,-1
500 550 m 1,124,-1
 550 550 l 1,125,-1
 550 500 l 1,126,-1
 500 500 l 1,127,-1
 500 550 l 1,124,-1
400 550 m 1,128,-1
 450 550 l 1,129,-1
 450 500 l 1,130,-1
 400 500 l 1,131,-1
 400 550 l 1,128,-1
300 550 m 1,132,-1
 350 550 l 1,133,-1
 350 500 l 1,134,-1
 300 500 l 1,135,-1
 300 550 l 1,132,-1
200 550 m 1,136,-1
 250 550 l 1,137,-1
 250 500 l 1,138,-1
 200 500 l 1,139,-1
 200 550 l 1,136,-1
100 550 m 1,140,-1
 150 550 l 1,141,-1
 150 500 l 1,142,-1
 100 500 l 1,143,-1
 100 550 l 1,140,-1
800 650 m 1,144,-1
 850 650 l 1,145,-1
 850 600 l 1,146,-1
 800 600 l 1,147,-1
 800 650 l 1,144,-1
700 650 m 1,148,-1
 750 650 l 1,149,-1
 750 600 l 1,150,-1
 700 600 l 1,151,-1
 700 650 l 1,148,-1
500 650 m 1,152,-1
 550 650 l 1,153,-1
 550 600 l 1,154,-1
 500 600 l 1,155,-1
 500 650 l 1,152,-1
400 650 m 1,156,-1
 450 650 l 1,157,-1
 450 600 l 1,158,-1
 400 600 l 1,159,-1
 400 650 l 1,156,-1
300 650 m 1,160,-1
 350 650 l 1,161,-1
 350 600 l 1,162,-1
 300 600 l 1,163,-1
 300 650 l 1,160,-1
200 650 m 1,164,-1
 250 650 l 1,165,-1
 250 600 l 1,166,-1
 200 600 l 1,167,-1
 200 650 l 1,164,-1
100 650 m 1,168,-1
 150 650 l 1,169,-1
 150 600 l 1,170,-1
 100 600 l 1,171,-1
 100 650 l 1,168,-1
600 750 m 1,172,-1
 650 750 l 1,173,-1
 650 700 l 1,174,-1
 600 700 l 1,175,-1
 600 750 l 1,172,-1
500 750 m 1,176,-1
 550 750 l 1,177,-1
 550 700 l 1,178,-1
 500 700 l 1,179,-1
 500 750 l 1,176,-1
100 750 m 1,180,-1
 150 750 l 1,181,-1
 150 700 l 1,182,-1
 100 700 l 1,183,-1
 100 750 l 1,180,-1
0 750 m 1,184,-1
 50 750 l 1,185,-1
 50 700 l 1,186,-1
 0 700 l 1,187,-1
 0 750 l 1,184,-1
600 850 m 1,188,-1
 650 850 l 1,189,-1
 650 800 l 1,190,-1
 600 800 l 1,191,-1
 600 850 l 1,188,-1
500 850 m 1,192,-1
 550 850 l 1,193,-1
 550 800 l 1,194,-1
 500 800 l 1,195,-1
 500 850 l 1,192,-1
100 850 m 1,196,-1
 150 850 l 1,197,-1
 150 800 l 1,198,-1
 100 800 l 1,199,-1
 100 850 l 1,196,-1
0 850 m 1,200,-1
 50 850 l 1,201,-1
 50 800 l 1,202,-1
 0 800 l 1,203,-1
 0 850 l 1,200,-1
600 950 m 1,204,-1
 650 950 l 1,205,-1
 650 900 l 1,206,-1
 600 900 l 1,207,-1
 600 950 l 1,204,-1
500 950 m 1,208,-1
 550 950 l 1,209,-1
 550 900 l 1,210,-1
 500 900 l 1,211,-1
 500 950 l 1,208,-1
100 950 m 1,212,-1
 150 950 l 1,213,-1
 150 900 l 1,214,-1
 100 900 l 1,215,-1
 100 950 l 1,212,-1
0 950 m 1,216,-1
 50 950 l 1,217,-1
 50 900 l 1,218,-1
 0 900 l 1,219,-1
 0 950 l 1,216,-1
600 1050 m 1,220,-1
 650 1050 l 1,221,-1
 650 1000 l 1,222,-1
 600 1000 l 1,223,-1
 600 1050 l 1,220,-1
500 1050 m 1,224,-1
 550 1050 l 1,225,-1
 550 1000 l 1,226,-1
 500 1000 l 1,227,-1
 500 1050 l 1,224,-1
400 1050 m 1,228,-1
 450 1050 l 1,229,-1
 450 1000 l 1,230,-1
 400 1000 l 1,231,-1
 400 1050 l 1,228,-1
300 1050 m 1,232,-1
 350 1050 l 1,233,-1
 350 1000 l 1,234,-1
 300 1000 l 1,235,-1
 300 1050 l 1,232,-1
200 1050 m 1,236,-1
 250 1050 l 1,237,-1
 250 1000 l 1,238,-1
 200 1000 l 1,239,-1
 200 1050 l 1,236,-1
100 1050 m 1,240,-1
 150 1050 l 1,241,-1
 150 1000 l 1,242,-1
 100 1000 l 1,243,-1
 100 1050 l 1,240,-1
0 1050 m 1,244,-1
 50 1050 l 1,245,-1
 50 1000 l 1,246,-1
 0 1000 l 1,247,-1
 0 1050 l 1,244,-1
500 1150 m 1,248,-1
 550 1150 l 1,249,-1
 550 1100 l 1,250,-1
 500 1100 l 1,251,-1
 500 1150 l 1,248,-1
400 1150 m 1,252,-1
 450 1150 l 1,253,-1
 450 1100 l 1,254,-1
 400 1100 l 1,255,-1
 400 1150 l 1,252,-1
300 1150 m 1,256,-1
 350 1150 l 1,257,-1
 350 1100 l 1,258,-1
 300 1100 l 1,259,-1
 300 1150 l 1,256,-1
200 1150 m 1,260,-1
 250 1150 l 1,261,-1
 250 1100 l 1,262,-1
 200 1100 l 1,263,-1
 200 1150 l 1,260,-1
EndSplineSet
EndChar

StartChar: quotesingle
Encoding: 39 39 7
Width: 300
GlyphClass: 1
Flags: W
LayerCount: 2
Fore
SplineSet
0 1150 m 1,0,-1
 50 1150 l 1,1,-1
 50 1100 l 1,2,-1
 0 1100 l 1,3,-1
 0 1150 l 1,0,-1
100 850 m 1,4,-1
 150 850 l 1,5,-1
 150 800 l 1,6,-1
 100 800 l 1,7,-1
 100 850 l 1,4,-1
0 850 m 1,8,-1
 50 850 l 1,9,-1
 50 800 l 1,10,-1
 0 800 l 1,11,-1
 0 850 l 1,8,-1
100 950 m 1,12,-1
 150 950 l 1,13,-1
 150 900 l 1,14,-1
 100 900 l 1,15,-1
 100 950 l 1,12,-1
0 950 m 1,16,-1
 50 950 l 1,17,-1
 50 900 l 1,18,-1
 0 900 l 1,19,-1
 0 950 l 1,16,-1
100 1050 m 1,20,-1
 150 1050 l 1,21,-1
 150 1000 l 1,22,-1
 100 1000 l 1,23,-1
 100 1050 l 1,20,-1
0 1050 m 1,24,-1
 50 1050 l 1,25,-1
 50 1000 l 1,26,-1
 0 1000 l 1,27,-1
 0 1050 l 1,24,-1
100 1150 m 1,28,-1
 150 1150 l 1,29,-1
 150 1100 l 1,30,-1
 100 1100 l 1,31,-1
 100 1150 l 1,28,-1
EndSplineSet
EndChar

StartChar: parenleft
Encoding: 40 40 8
Width: 500
GlyphClass: 1
Flags: W
LayerCount: 2
Fore
SplineSet
100 1150 m 1,0,-1
 150 1150 l 1,1,-1
 150 1100 l 1,2,-1
 100 1100 l 1,3,-1
 100 1150 l 1,0,-1
300 50 m 1,4,-1
 350 50 l 1,5,-1
 350 0 l 1,6,-1
 300 0 l 1,7,-1
 300 50 l 1,4,-1
200 50 m 1,8,-1
 250 50 l 1,9,-1
 250 0 l 1,10,-1
 200 0 l 1,11,-1
 200 50 l 1,8,-1
100 50 m 1,12,-1
 150 50 l 1,13,-1
 150 0 l 1,14,-1
 100 0 l 1,15,-1
 100 50 l 1,12,-1
300 150 m 1,16,-1
 350 150 l 1,17,-1
 350 100 l 1,18,-1
 300 100 l 1,19,-1
 300 150 l 1,16,-1
200 150 m 1,20,-1
 250 150 l 1,21,-1
 250 100 l 1,22,-1
 200 100 l 1,23,-1
 200 150 l 1,20,-1
100 150 m 1,24,-1
 150 150 l 1,25,-1
 150 100 l 1,26,-1
 100 100 l 1,27,-1
 100 150 l 1,24,-1
0 150 m 1,28,-1
 50 150 l 1,29,-1
 50 100 l 1,30,-1
 0 100 l 1,31,-1
 0 150 l 1,28,-1
100 250 m 1,32,-1
 150 250 l 1,33,-1
 150 200 l 1,34,-1
 100 200 l 1,35,-1
 100 250 l 1,32,-1
0 250 m 1,36,-1
 50 250 l 1,37,-1
 50 200 l 1,38,-1
 0 200 l 1,39,-1
 0 250 l 1,36,-1
100 350 m 1,40,-1
 150 350 l 1,41,-1
 150 300 l 1,42,-1
 100 300 l 1,43,-1
 100 350 l 1,40,-1
0 350 m 1,44,-1
 50 350 l 1,45,-1
 50 300 l 1,46,-1
 0 300 l 1,47,-1
 0 350 l 1,44,-1
100 450 m 1,48,-1
 150 450 l 1,49,-1
 150 400 l 1,50,-1
 100 400 l 1,51,-1
 100 450 l 1,48,-1
0 450 m 1,52,-1
 50 450 l 1,53,-1
 50 400 l 1,54,-1
 0 400 l 1,55,-1
 0 450 l 1,52,-1
100 550 m 1,56,-1
 150 550 l 1,57,-1
 150 500 l 1,58,-1
 100 500 l 1,59,-1
 100 550 l 1,56,-1
0 550 m 1,60,-1
 50 550 l 1,61,-1
 50 500 l 1,62,-1
 0 500 l 1,63,-1
 0 550 l 1,60,-1
100 650 m 1,64,-1
 150 650 l 1,65,-1
 150 600 l 1,66,-1
 100 600 l 1,67,-1
 100 650 l 1,64,-1
0 650 m 1,68,-1
 50 650 l 1,69,-1
 50 600 l 1,70,-1
 0 600 l 1,71,-1
 0 650 l 1,68,-1
100 750 m 1,72,-1
 150 750 l 1,73,-1
 150 700 l 1,74,-1
 100 700 l 1,75,-1
 100 750 l 1,72,-1
0 750 m 1,76,-1
 50 750 l 1,77,-1
 50 700 l 1,78,-1
 0 700 l 1,79,-1
 0 750 l 1,76,-1
100 850 m 1,80,-1
 150 850 l 1,81,-1
 150 800 l 1,82,-1
 100 800 l 1,83,-1
 100 850 l 1,80,-1
0 850 m 1,84,-1
 50 850 l 1,85,-1
 50 800 l 1,86,-1
 0 800 l 1,87,-1
 0 850 l 1,84,-1
100 950 m 1,88,-1
 150 950 l 1,89,-1
 150 900 l 1,90,-1
 100 900 l 1,91,-1
 100 950 l 1,88,-1
0 950 m 1,92,-1
 50 950 l 1,93,-1
 50 900 l 1,94,-1
 0 900 l 1,95,-1
 0 950 l 1,92,-1
300 1050 m 1,96,-1
 350 1050 l 1,97,-1
 350 1000 l 1,98,-1
 300 1000 l 1,99,-1
 300 1050 l 1,96,-1
200 1050 m 1,100,-1
 250 1050 l 1,101,-1
 250 1000 l 1,102,-1
 200 1000 l 1,103,-1
 200 1050 l 1,100,-1
100 1050 m 1,104,-1
 150 1050 l 1,105,-1
 150 1000 l 1,106,-1
 100 1000 l 1,107,-1
 100 1050 l 1,104,-1
0 1050 m 1,108,-1
 50 1050 l 1,109,-1
 50 1000 l 1,110,-1
 0 1000 l 1,111,-1
 0 1050 l 1,108,-1
300 1150 m 1,112,-1
 350 1150 l 1,113,-1
 350 1100 l 1,114,-1
 300 1100 l 1,115,-1
 300 1150 l 1,112,-1
200 1150 m 1,116,-1
 250 1150 l 1,117,-1
 250 1100 l 1,118,-1
 200 1100 l 1,119,-1
 200 1150 l 1,116,-1
EndSplineSet
EndChar

StartChar: parenright
Encoding: 41 41 9
Width: 500
GlyphClass: 1
Flags: W
LayerCount: 2
Fore
SplineSet
0 1150 m 1,0,-1
 50 1150 l 1,1,-1
 50 1100 l 1,2,-1
 0 1100 l 1,3,-1
 0 1150 l 1,0,-1
200 50 m 1,4,-1
 250 50 l 1,5,-1
 250 0 l 1,6,-1
 200 0 l 1,7,-1
 200 50 l 1,4,-1
100 50 m 1,8,-1
 150 50 l 1,9,-1
 150 0 l 1,10,-1
 100 0 l 1,11,-1
 100 50 l 1,8,-1
0 50 m 1,12,-1
 50 50 l 1,13,-1
 50 0 l 1,14,-1
 0 0 l 1,15,-1
 0 50 l 1,12,-1
300 150 m 1,16,-1
 350 150 l 1,17,-1
 350 100 l 1,18,-1
 300 100 l 1,19,-1
 300 150 l 1,16,-1
200 150 m 1,20,-1
 250 150 l 1,21,-1
 250 100 l 1,22,-1
 200 100 l 1,23,-1
 200 150 l 1,20,-1
100 150 m 1,24,-1
 150 150 l 1,25,-1
 150 100 l 1,26,-1
 100 100 l 1,27,-1
 100 150 l 1,24,-1
0 150 m 1,28,-1
 50 150 l 1,29,-1
 50 100 l 1,30,-1
 0 100 l 1,31,-1
 0 150 l 1,28,-1
300 250 m 1,32,-1
 350 250 l 1,33,-1
 350 200 l 1,34,-1
 300 200 l 1,35,-1
 300 250 l 1,32,-1
200 250 m 1,36,-1
 250 250 l 1,37,-1
 250 200 l 1,38,-1
 200 200 l 1,39,-1
 200 250 l 1,36,-1
300 350 m 1,40,-1
 350 350 l 1,41,-1
 350 300 l 1,42,-1
 300 300 l 1,43,-1
 300 350 l 1,40,-1
200 350 m 1,44,-1
 250 350 l 1,45,-1
 250 300 l 1,46,-1
 200 300 l 1,47,-1
 200 350 l 1,44,-1
300 450 m 1,48,-1
 350 450 l 1,49,-1
 350 400 l 1,50,-1
 300 400 l 1,51,-1
 300 450 l 1,48,-1
200 450 m 1,52,-1
 250 450 l 1,53,-1
 250 400 l 1,54,-1
 200 400 l 1,55,-1
 200 450 l 1,52,-1
300 550 m 1,56,-1
 350 550 l 1,57,-1
 350 500 l 1,58,-1
 300 500 l 1,59,-1
 300 550 l 1,56,-1
200 550 m 1,60,-1
 250 550 l 1,61,-1
 250 500 l 1,62,-1
 200 500 l 1,63,-1
 200 550 l 1,60,-1
300 650 m 1,64,-1
 350 650 l 1,65,-1
 350 600 l 1,66,-1
 300 600 l 1,67,-1
 300 650 l 1,64,-1
200 650 m 1,68,-1
 250 650 l 1,69,-1
 250 600 l 1,70,-1
 200 600 l 1,71,-1
 200 650 l 1,68,-1
300 750 m 1,72,-1
 350 750 l 1,73,-1
 350 700 l 1,74,-1
 300 700 l 1,75,-1
 300 750 l 1,72,-1
200 750 m 1,76,-1
 250 750 l 1,77,-1
 250 700 l 1,78,-1
 200 700 l 1,79,-1
 200 750 l 1,76,-1
300 850 m 1,80,-1
 350 850 l 1,81,-1
 350 800 l 1,82,-1
 300 800 l 1,83,-1
 300 850 l 1,80,-1
200 850 m 1,84,-1
 250 850 l 1,85,-1
 250 800 l 1,86,-1
 200 800 l 1,87,-1
 200 850 l 1,84,-1
300 950 m 1,88,-1
 350 950 l 1,89,-1
 350 900 l 1,90,-1
 300 900 l 1,91,-1
 300 950 l 1,88,-1
200 950 m 1,92,-1
 250 950 l 1,93,-1
 250 900 l 1,94,-1
 200 900 l 1,95,-1
 200 950 l 1,92,-1
300 1050 m 1,96,-1
 350 1050 l 1,97,-1
 350 1000 l 1,98,-1
 300 1000 l 1,99,-1
 300 1050 l 1,96,-1
200 1050 m 1,100,-1
 250 1050 l 1,101,-1
 250 1000 l 1,102,-1
 200 1000 l 1,103,-1
 200 1050 l 1,100,-1
100 1050 m 1,104,-1
 150 1050 l 1,105,-1
 150 1000 l 1,106,-1
 100 1000 l 1,107,-1
 100 1050 l 1,104,-1
0 1050 m 1,108,-1
 50 1050 l 1,109,-1
 50 1000 l 1,110,-1
 0 1000 l 1,111,-1
 0 1050 l 1,108,-1
200 1150 m 1,112,-1
 250 1150 l 1,113,-1
 250 1100 l 1,114,-1
 200 1100 l 1,115,-1
 200 1150 l 1,112,-1
100 1150 m 1,116,-1
 150 1150 l 1,117,-1
 150 1100 l 1,118,-1
 100 1100 l 1,119,-1
 100 1150 l 1,116,-1
EndSplineSet
EndChar

StartChar: asterisk
Encoding: 42 42 10
Width: 700
GlyphClass: 1
Flags: W
LayerCount: 2
Fore
SplineSet
0 850 m 1,0,-1
 50 850 l 1,1,-1
 50 800 l 1,2,-1
 0 800 l 1,3,-1
 0 850 l 1,0,-1
500 350 m 1,4,-1
 550 350 l 1,5,-1
 550 300 l 1,6,-1
 500 300 l 1,7,-1
 500 350 l 1,4,-1
400 350 m 1,8,-1
 450 350 l 1,9,-1
 450 300 l 1,10,-1
 400 300 l 1,11,-1
 400 350 l 1,8,-1
100 350 m 1,12,-1
 150 350 l 1,13,-1
 150 300 l 1,14,-1
 100 300 l 1,15,-1
 100 350 l 1,12,-1
0 350 m 1,16,-1
 50 350 l 1,17,-1
 50 300 l 1,18,-1
 0 300 l 1,19,-1
 0 350 l 1,16,-1
500 450 m 1,20,-1
 550 450 l 1,21,-1
 550 400 l 1,22,-1
 500 400 l 1,23,-1
 500 450 l 1,20,-1
400 450 m 1,24,-1
 450 450 l 1,25,-1
 450 400 l 1,26,-1
 400 400 l 1,27,-1
 400 450 l 1,24,-1
300 450 m 1,28,-1
 350 450 l 1,29,-1
 350 400 l 1,30,-1
 300 400 l 1,31,-1
 300 450 l 1,28,-1
200 450 m 1,32,-1
 250 450 l 1,33,-1
 250 400 l 1,34,-1
 200 400 l 1,35,-1
 200 450 l 1,32,-1
100 450 m 1,36,-1
 150 450 l 1,37,-1
 150 400 l 1,38,-1
 100 400 l 1,39,-1
 100 450 l 1,36,-1
0 450 m 1,40,-1
 50 450 l 1,41,-1
 50 400 l 1,42,-1
 0 400 l 1,43,-1
 0 450 l 1,40,-1
400 550 m 1,44,-1
 450 550 l 1,45,-1
 450 500 l 1,46,-1
 400 500 l 1,47,-1
 400 550 l 1,44,-1
300 550 m 1,48,-1
 350 550 l 1,49,-1
 350 500 l 1,50,-1
 300 500 l 1,51,-1
 300 550 l 1,48,-1
200 550 m 1,52,-1
 250 550 l 1,53,-1
 250 500 l 1,54,-1
 200 500 l 1,55,-1
 200 550 l 1,52,-1
100 550 m 1,56,-1
 150 550 l 1,57,-1
 150 500 l 1,58,-1
 100 500 l 1,59,-1
 100 550 l 1,56,-1
400 650 m 1,60,-1
 450 650 l 1,61,-1
 450 600 l 1,62,-1
 400 600 l 1,63,-1
 400 650 l 1,60,-1
300 650 m 1,64,-1
 350 650 l 1,65,-1
 350 600 l 1,66,-1
 300 600 l 1,67,-1
 300 650 l 1,64,-1
200 650 m 1,68,-1
 250 650 l 1,69,-1
 250 600 l 1,70,-1
 200 600 l 1,71,-1
 200 650 l 1,68,-1
100 650 m 1,72,-1
 150 650 l 1,73,-1
 150 600 l 1,74,-1
 100 600 l 1,75,-1
 100 650 l 1,72,-1
500 750 m 1,76,-1
 550 750 l 1,77,-1
 550 700 l 1,78,-1
 500 700 l 1,79,-1
 500 750 l 1,76,-1
400 750 m 1,80,-1
 450 750 l 1,81,-1
 450 700 l 1,82,-1
 400 700 l 1,83,-1
 400 750 l 1,80,-1
300 750 m 1,84,-1
 350 750 l 1,85,-1
 350 700 l 1,86,-1
 300 700 l 1,87,-1
 300 750 l 1,84,-1
200 750 m 1,88,-1
 250 750 l 1,89,-1
 250 700 l 1,90,-1
 200 700 l 1,91,-1
 200 750 l 1,88,-1
100 750 m 1,92,-1
 150 750 l 1,93,-1
 150 700 l 1,94,-1
 100 700 l 1,95,-1
 100 750 l 1,92,-1
0 750 m 1,96,-1
 50 750 l 1,97,-1
 50 700 l 1,98,-1
 0 700 l 1,99,-1
 0 750 l 1,96,-1
500 850 m 1,100,-1
 550 850 l 1,101,-1
 550 800 l 1,102,-1
 500 800 l 1,103,-1
 500 850 l 1,100,-1
400 850 m 1,104,-1
 450 850 l 1,105,-1
 450 800 l 1,106,-1
 400 800 l 1,107,-1
 400 850 l 1,104,-1
100 850 m 1,108,-1
 150 850 l 1,109,-1
 150 800 l 1,110,-1
 100 800 l 1,111,-1
 100 850 l 1,108,-1
EndSplineSet
EndChar

StartChar: plus
Encoding: 43 43 11
Width: 700
GlyphClass: 1
Flags: W
LayerCount: 2
Fore
SplineSet
200 850 m 1,0,-1
 250 850 l 1,1,-1
 250 800 l 1,2,-1
 200 800 l 1,3,-1
 200 850 l 1,0,-1
300 350 m 1,4,-1
 350 350 l 1,5,-1
 350 300 l 1,6,-1
 300 300 l 1,7,-1
 300 350 l 1,4,-1
200 350 m 1,8,-1
 250 350 l 1,9,-1
 250 300 l 1,10,-1
 200 300 l 1,11,-1
 200 350 l 1,8,-1
300 450 m 1,12,-1
 350 450 l 1,13,-1
 350 400 l 1,14,-1
 300 400 l 1,15,-1
 300 450 l 1,12,-1
200 450 m 1,16,-1
 250 450 l 1,17,-1
 250 400 l 1,18,-1
 200 400 l 1,19,-1
 200 450 l 1,16,-1
500 550 m 1,20,-1
 550 550 l 1,21,-1
 550 500 l 1,22,-1
 500 500 l 1,23,-1
 500 550 l 1,20,-1
400 550 m 1,24,-1
 450 550 l 1,25,-1
 450 500 l 1,26,-1
 400 500 l 1,27,-1
 400 550 l 1,24,-1
300 550 m 1,28,-1
 350 550 l 1,29,-1
 350 500 l 1,30,-1
 300 500 l 1,31,-1
 300 550 l 1,28,-1
200 550 m 1,32,-1
 250 550 l 1,33,-1
 250 500 l 1,34,-1
 200 500 l 1,35,-1
 200 550 l 1,32,-1
100 550 m 1,36,-1
 150 550 l 1,37,-1
 150 500 l 1,38,-1
 100 500 l 1,39,-1
 100 550 l 1,36,-1
0 550 m 1,40,-1
 50 550 l 1,41,-1
 50 500 l 1,42,-1
 0 500 l 1,43,-1
 0 550 l 1,40,-1
500 650 m 1,44,-1
 550 650 l 1,45,-1
 550 600 l 1,46,-1
 500 600 l 1,47,-1
 500 650 l 1,44,-1
400 650 m 1,48,-1
 450 650 l 1,49,-1
 450 600 l 1,50,-1
 400 600 l 1,51,-1
 400 650 l 1,48,-1
300 650 m 1,52,-1
 350 650 l 1,53,-1
 350 600 l 1,54,-1
 300 600 l 1,55,-1
 300 650 l 1,52,-1
200 650 m 1,56,-1
 250 650 l 1,57,-1
 250 600 l 1,58,-1
 200 600 l 1,59,-1
 200 650 l 1,56,-1
100 650 m 1,60,-1
 150 650 l 1,61,-1
 150 600 l 1,62,-1
 100 600 l 1,63,-1
 100 650 l 1,60,-1
0 650 m 1,64,-1
 50 650 l 1,65,-1
 50 600 l 1,66,-1
 0 600 l 1,67,-1
 0 650 l 1,64,-1
300 750 m 1,68,-1
 350 750 l 1,69,-1
 350 700 l 1,70,-1
 300 700 l 1,71,-1
 300 750 l 1,68,-1
200 750 m 1,72,-1
 250 750 l 1,73,-1
 250 700 l 1,74,-1
 200 700 l 1,75,-1
 200 750 l 1,72,-1
300 850 m 1,76,-1
 350 850 l 1,77,-1
 350 800 l 1,78,-1
 300 800 l 1,79,-1
 300 850 l 1,76,-1
EndSplineSet
EndChar

StartChar: comma
Encoding: 44 44 12
Width: 400
GlyphClass: 1
Flags: W
LayerCount: 2
Fore
SplineSet
0 150 m 1,0,-1
 50 150 l 1,1,-1
 50 100 l 1,2,-1
 0 100 l 1,3,-1
 0 150 l 1,0,-1
200 -50 m 1,4,-1
 250 -50 l 1,5,-1
 250 -100 l 1,6,-1
 200 -100 l 1,7,-1
 200 -50 l 1,4,-1
100 -50 m 1,8,-1
 150 -50 l 1,9,-1
 150 -100 l 1,10,-1
 100 -100 l 1,11,-1
 100 -50 l 1,8,-1
200 50 m 1,12,-1
 250 50 l 1,13,-1
 250 0 l 1,14,-1
 200 0 l 1,15,-1
 200 50 l 1,12,-1
100 50 m 1,16,-1
 150 50 l 1,17,-1
 150 0 l 1,18,-1
 100 0 l 1,19,-1
 100 50 l 1,16,-1
0 50 m 1,20,-1
 50 50 l 1,21,-1
 50 0 l 1,22,-1
 0 0 l 1,23,-1
 0 50 l 1,20,-1
100 150 m 1,24,-1
 150 150 l 1,25,-1
 150 100 l 1,26,-1
 100 100 l 1,27,-1
 100 150 l 1,24,-1
EndSplineSet
EndChar

StartChar: hyphen
Encoding: 45 45 13
Width: 700
GlyphClass: 1
Flags: W
LayerCount: 2
Fore
SplineSet
0 650 m 1,0,-1
 50 650 l 1,1,-1
 50 600 l 1,2,-1
 0 600 l 1,3,-1
 0 650 l 1,0,-1
500 550 m 1,4,-1
 550 550 l 1,5,-1
 550 500 l 1,6,-1
 500 500 l 1,7,-1
 500 550 l 1,4,-1
400 550 m 1,8,-1
 450 550 l 1,9,-1
 450 500 l 1,10,-1
 400 500 l 1,11,-1
 400 550 l 1,8,-1
300 550 m 1,12,-1
 350 550 l 1,13,-1
 350 500 l 1,14,-1
 300 500 l 1,15,-1
 300 550 l 1,12,-1
200 550 m 1,16,-1
 250 550 l 1,17,-1
 250 500 l 1,18,-1
 200 500 l 1,19,-1
 200 550 l 1,16,-1
100 550 m 1,20,-1
 150 550 l 1,21,-1
 150 500 l 1,22,-1
 100 500 l 1,23,-1
 100 550 l 1,20,-1
0 550 m 1,24,-1
 50 550 l 1,25,-1
 50 500 l 1,26,-1
 0 500 l 1,27,-1
 0 550 l 1,24,-1
500 650 m 1,28,-1
 550 650 l 1,29,-1
 550 600 l 1,30,-1
 500 600 l 1,31,-1
 500 650 l 1,28,-1
400 650 m 1,32,-1
 450 650 l 1,33,-1
 450 600 l 1,34,-1
 400 600 l 1,35,-1
 400 650 l 1,32,-1
300 650 m 1,36,-1
 350 650 l 1,37,-1
 350 600 l 1,38,-1
 300 600 l 1,39,-1
 300 650 l 1,36,-1
200 650 m 1,40,-1
 250 650 l 1,41,-1
 250 600 l 1,42,-1
 200 600 l 1,43,-1
 200 650 l 1,40,-1
100 650 m 1,44,-1
 150 650 l 1,45,-1
 150 600 l 1,46,-1
 100 600 l 1,47,-1
 100 650 l 1,44,-1
EndSplineSet
EndChar

StartChar: period
Encoding: 46 46 14
Width: 300
GlyphClass: 1
Flags: W
LayerCount: 2
Fore
SplineSet
0 150 m 1,0,-1
 50 150 l 1,1,-1
 50 100 l 1,2,-1
 0 100 l 1,3,-1
 0 150 l 1,0,-1
100 50 m 1,4,-1
 150 50 l 1,5,-1
 150 0 l 1,6,-1
 100 0 l 1,7,-1
 100 50 l 1,4,-1
0 50 m 1,8,-1
 50 50 l 1,9,-1
 50 0 l 1,10,-1
 0 0 l 1,11,-1
 0 50 l 1,8,-1
100 150 m 1,12,-1
 150 150 l 1,13,-1
 150 100 l 1,14,-1
 100 100 l 1,15,-1
 100 150 l 1,12,-1
EndSplineSet
EndChar

StartChar: slash
Encoding: 47 47 15
Width: 800
GlyphClass: 1
Flags: W
LayerCount: 2
Fore
SplineSet
500 1150 m 1,0,-1
 550 1150 l 1,1,-1
 550 1100 l 1,2,-1
 500 1100 l 1,3,-1
 500 1150 l 1,0,-1
100 50 m 1,4,-1
 150 50 l 1,5,-1
 150 0 l 1,6,-1
 100 0 l 1,7,-1
 100 50 l 1,4,-1
0 50 m 1,8,-1
 50 50 l 1,9,-1
 50 0 l 1,10,-1
 0 0 l 1,11,-1
 0 50 l 1,8,-1
100 150 m 1,12,-1
 150 150 l 1,13,-1
 150 100 l 1,14,-1
 100 100 l 1,15,-1
 100 150 l 1,12,-1
0 150 m 1,16,-1
 50 150 l 1,17,-1
 50 100 l 1,18,-1
 0 100 l 1,19,-1
 0 150 l 1,16,-1
200 250 m 1,20,-1
 250 250 l 1,21,-1
 250 200 l 1,22,-1
 200 200 l 1,23,-1
 200 250 l 1,20,-1
100 250 m 1,24,-1
 150 250 l 1,25,-1
 150 200 l 1,26,-1
 100 200 l 1,27,-1
 100 250 l 1,24,-1
200 350 m 1,28,-1
 250 350 l 1,29,-1
 250 300 l 1,30,-1
 200 300 l 1,31,-1
 200 350 l 1,28,-1
100 350 m 1,32,-1
 150 350 l 1,33,-1
 150 300 l 1,34,-1
 100 300 l 1,35,-1
 100 350 l 1,32,-1
300 450 m 1,36,-1
 350 450 l 1,37,-1
 350 400 l 1,38,-1
 300 400 l 1,39,-1
 300 450 l 1,36,-1
200 450 m 1,40,-1
 250 450 l 1,41,-1
 250 400 l 1,42,-1
 200 400 l 1,43,-1
 200 450 l 1,40,-1
300 550 m 1,44,-1
 350 550 l 1,45,-1
 350 500 l 1,46,-1
 300 500 l 1,47,-1
 300 550 l 1,44,-1
200 550 m 1,48,-1
 250 550 l 1,49,-1
 250 500 l 1,50,-1
 200 500 l 1,51,-1
 200 550 l 1,48,-1
400 650 m 1,52,-1
 450 650 l 1,53,-1
 450 600 l 1,54,-1
 400 600 l 1,55,-1
 400 650 l 1,52,-1
300 650 m 1,56,-1
 350 650 l 1,57,-1
 350 600 l 1,58,-1
 300 600 l 1,59,-1
 300 650 l 1,56,-1
400 750 m 1,60,-1
 450 750 l 1,61,-1
 450 700 l 1,62,-1
 400 700 l 1,63,-1
 400 750 l 1,60,-1
300 750 m 1,64,-1
 350 750 l 1,65,-1
 350 700 l 1,66,-1
 300 700 l 1,67,-1
 300 750 l 1,64,-1
500 850 m 1,68,-1
 550 850 l 1,69,-1
 550 800 l 1,70,-1
 500 800 l 1,71,-1
 500 850 l 1,68,-1
400 850 m 1,72,-1
 450 850 l 1,73,-1
 450 800 l 1,74,-1
 400 800 l 1,75,-1
 400 850 l 1,72,-1
500 950 m 1,76,-1
 550 950 l 1,77,-1
 550 900 l 1,78,-1
 500 900 l 1,79,-1
 500 950 l 1,76,-1
400 950 m 1,80,-1
 450 950 l 1,81,-1
 450 900 l 1,82,-1
 400 900 l 1,83,-1
 400 950 l 1,80,-1
600 1050 m 1,84,-1
 650 1050 l 1,85,-1
 650 1000 l 1,86,-1
 600 1000 l 1,87,-1
 600 1050 l 1,84,-1
500 1050 m 1,88,-1
 550 1050 l 1,89,-1
 550 1000 l 1,90,-1
 500 1000 l 1,91,-1
 500 1050 l 1,88,-1
600 1150 m 1,92,-1
 650 1150 l 1,93,-1
 650 1100 l 1,94,-1
 600 1100 l 1,95,-1
 600 1150 l 1,92,-1
EndSplineSet
EndChar

StartChar: zero
Encoding: 48 48 16
Width: 900
GlyphClass: 1
Flags: W
LayerCount: 2
Fore
SplineSet
100 1150 m 1,0,-1
 150 1150 l 1,1,-1
 150 1100 l 1,2,-1
 100 1100 l 1,3,-1
 100 1150 l 1,0,-1
600 50 m 1,4,-1
 650 50 l 1,5,-1
 650 0 l 1,6,-1
 600 0 l 1,7,-1
 600 50 l 1,4,-1
500 50 m 1,8,-1
 550 50 l 1,9,-1
 550 0 l 1,10,-1
 500 0 l 1,11,-1
 500 50 l 1,8,-1
400 50 m 1,12,-1
 450 50 l 1,13,-1
 450 0 l 1,14,-1
 400 0 l 1,15,-1
 400 50 l 1,12,-1
300 50 m 1,16,-1
 350 50 l 1,17,-1
 350 0 l 1,18,-1
 300 0 l 1,19,-1
 300 50 l 1,16,-1
200 50 m 1,20,-1
 250 50 l 1,21,-1
 250 0 l 1,22,-1
 200 0 l 1,23,-1
 200 50 l 1,20,-1
100 50 m 1,24,-1
 150 50 l 1,25,-1
 150 0 l 1,26,-1
 100 0 l 1,27,-1
 100 50 l 1,24,-1
700 150 m 1,28,-1
 750 150 l 1,29,-1
 750 100 l 1,30,-1
 700 100 l 1,31,-1
 700 150 l 1,28,-1
600 150 m 1,32,-1
 650 150 l 1,33,-1
 650 100 l 1,34,-1
 600 100 l 1,35,-1
 600 150 l 1,32,-1
500 150 m 1,36,-1
 550 150 l 1,37,-1
 550 100 l 1,38,-1
 500 100 l 1,39,-1
 500 150 l 1,36,-1
400 150 m 1,40,-1
 450 150 l 1,41,-1
 450 100 l 1,42,-1
 400 100 l 1,43,-1
 400 150 l 1,40,-1
300 150 m 1,44,-1
 350 150 l 1,45,-1
 350 100 l 1,46,-1
 300 100 l 1,47,-1
 300 150 l 1,44,-1
200 150 m 1,48,-1
 250 150 l 1,49,-1
 250 100 l 1,50,-1
 200 100 l 1,51,-1
 200 150 l 1,48,-1
100 150 m 1,52,-1
 150 150 l 1,53,-1
 150 100 l 1,54,-1
 100 100 l 1,55,-1
 100 150 l 1,52,-1
0 150 m 1,56,-1
 50 150 l 1,57,-1
 50 100 l 1,58,-1
 0 100 l 1,59,-1
 0 150 l 1,56,-1
700 250 m 1,60,-1
 750 250 l 1,61,-1
 750 200 l 1,62,-1
 700 200 l 1,63,-1
 700 250 l 1,60,-1
600 250 m 1,64,-1
 650 250 l 1,65,-1
 650 200 l 1,66,-1
 600 200 l 1,67,-1
 600 250 l 1,64,-1
100 250 m 1,68,-1
 150 250 l 1,69,-1
 150 200 l 1,70,-1
 100 200 l 1,71,-1
 100 250 l 1,68,-1
0 250 m 1,72,-1
 50 250 l 1,73,-1
 50 200 l 1,74,-1
 0 200 l 1,75,-1
 0 250 l 1,72,-1
700 350 m 1,76,-1
 750 350 l 1,77,-1
 750 300 l 1,78,-1
 700 300 l 1,79,-1
 700 350 l 1,76,-1
600 350 m 1,80,-1
 650 350 l 1,81,-1
 650 300 l 1,82,-1
 600 300 l 1,83,-1
 600 350 l 1,80,-1
100 350 m 1,84,-1
 150 350 l 1,85,-1
 150 300 l 1,86,-1
 100 300 l 1,87,-1
 100 350 l 1,84,-1
0 350 m 1,88,-1
 50 350 l 1,89,-1
 50 300 l 1,90,-1
 0 300 l 1,91,-1
 0 350 l 1,88,-1
700 450 m 1,92,-1
 750 450 l 1,93,-1
 750 400 l 1,94,-1
 700 400 l 1,95,-1
 700 450 l 1,92,-1
600 450 m 1,96,-1
 650 450 l 1,97,-1
 650 400 l 1,98,-1
 600 400 l 1,99,-1
 600 450 l 1,96,-1
200 450 m 1,100,-1
 250 450 l 1,101,-1
 250 400 l 1,102,-1
 200 400 l 1,103,-1
 200 450 l 1,100,-1
100 450 m 1,104,-1
 150 450 l 1,105,-1
 150 400 l 1,106,-1
 100 400 l 1,107,-1
 100 450 l 1,104,-1
0 450 m 1,108,-1
 50 450 l 1,109,-1
 50 400 l 1,110,-1
 0 400 l 1,111,-1
 0 450 l 1,108,-1
700 550 m 1,112,-1
 750 550 l 1,113,-1
 750 500 l 1,114,-1
 700 500 l 1,115,-1
 700 550 l 1,112,-1
600 550 m 1,116,-1
 650 550 l 1,117,-1
 650 500 l 1,118,-1
 600 500 l 1,119,-1
 600 550 l 1,116,-1
300 550 m 1,120,-1
 350 550 l 1,121,-1
 350 500 l 1,122,-1
 300 500 l 1,123,-1
 300 550 l 1,120,-1
200 550 m 1,124,-1
 250 550 l 1,125,-1
 250 500 l 1,126,-1
 200 500 l 1,127,-1
 200 550 l 1,124,-1
100 550 m 1,128,-1
 150 550 l 1,129,-1
 150 500 l 1,130,-1
 100 500 l 1,131,-1
 100 550 l 1,128,-1
0 550 m 1,132,-1
 50 550 l 1,133,-1
 50 500 l 1,134,-1
 0 500 l 1,135,-1
 0 550 l 1,132,-1
700 650 m 1,136,-1
 750 650 l 1,137,-1
 750 600 l 1,138,-1
 700 600 l 1,139,-1
 700 650 l 1,136,-1
600 650 m 1,140,-1
 650 650 l 1,141,-1
 650 600 l 1,142,-1
 600 600 l 1,143,-1
 600 650 l 1,140,-1
400 650 m 1,144,-1
 450 650 l 1,145,-1
 450 600 l 1,146,-1
 400 600 l 1,147,-1
 400 650 l 1,144,-1
300 650 m 1,148,-1
 350 650 l 1,149,-1
 350 600 l 1,150,-1
 300 600 l 1,151,-1
 300 650 l 1,148,-1
100 650 m 1,152,-1
 150 650 l 1,153,-1
 150 600 l 1,154,-1
 100 600 l 1,155,-1
 100 650 l 1,152,-1
0 650 m 1,156,-1
 50 650 l 1,157,-1
 50 600 l 1,158,-1
 0 600 l 1,159,-1
 0 650 l 1,156,-1
700 750 m 1,160,-1
 750 750 l 1,161,-1
 750 700 l 1,162,-1
 700 700 l 1,163,-1
 700 750 l 1,160,-1
600 750 m 1,164,-1
 650 750 l 1,165,-1
 650 700 l 1,166,-1
 600 700 l 1,167,-1
 600 750 l 1,164,-1
500 750 m 1,168,-1
 550 750 l 1,169,-1
 550 700 l 1,170,-1
 500 700 l 1,171,-1
 500 750 l 1,168,-1
400 750 m 1,172,-1
 450 750 l 1,173,-1
 450 700 l 1,174,-1
 400 700 l 1,175,-1
 400 750 l 1,172,-1
100 750 m 1,176,-1
 150 750 l 1,177,-1
 150 700 l 1,178,-1
 100 700 l 1,179,-1
 100 750 l 1,176,-1
0 750 m 1,180,-1
 50 750 l 1,181,-1
 50 700 l 1,182,-1
 0 700 l 1,183,-1
 0 750 l 1,180,-1
700 850 m 1,184,-1
 750 850 l 1,185,-1
 750 800 l 1,186,-1
 700 800 l 1,187,-1
 700 850 l 1,184,-1
600 850 m 1,188,-1
 650 850 l 1,189,-1
 650 800 l 1,190,-1
 600 800 l 1,191,-1
 600 850 l 1,188,-1
500 850 m 1,192,-1
 550 850 l 1,193,-1
 550 800 l 1,194,-1
 500 800 l 1,195,-1
 500 850 l 1,192,-1
100 850 m 1,196,-1
 150 850 l 1,197,-1
 150 800 l 1,198,-1
 100 800 l 1,199,-1
 100 850 l 1,196,-1
0 850 m 1,200,-1
 50 850 l 1,201,-1
 50 800 l 1,202,-1
 0 800 l 1,203,-1
 0 850 l 1,200,-1
700 950 m 1,204,-1
 750 950 l 1,205,-1
 750 900 l 1,206,-1
 700 900 l 1,207,-1
 700 950 l 1,204,-1
600 950 m 1,208,-1
 650 950 l 1,209,-1
 650 900 l 1,210,-1
 600 900 l 1,211,-1
 600 950 l 1,208,-1
100 950 m 1,212,-1
 150 950 l 1,213,-1
 150 900 l 1,214,-1
 100 900 l 1,215,-1
 100 950 l 1,212,-1
0 950 m 1,216,-1
 50 950 l 1,217,-1
 50 900 l 1,218,-1
 0 900 l 1,219,-1
 0 950 l 1,216,-1
700 1050 m 1,220,-1
 750 1050 l 1,221,-1
 750 1000 l 1,222,-1
 700 1000 l 1,223,-1
 700 1050 l 1,220,-1
600 1050 m 1,224,-1
 650 1050 l 1,225,-1
 650 1000 l 1,226,-1
 600 1000 l 1,227,-1
 600 1050 l 1,224,-1
500 1050 m 1,228,-1
 550 1050 l 1,229,-1
 550 1000 l 1,230,-1
 500 1000 l 1,231,-1
 500 1050 l 1,228,-1
400 1050 m 1,232,-1
 450 1050 l 1,233,-1
 450 1000 l 1,234,-1
 400 1000 l 1,235,-1
 400 1050 l 1,232,-1
300 1050 m 1,236,-1
 350 1050 l 1,237,-1
 350 1000 l 1,238,-1
 300 1000 l 1,239,-1
 300 1050 l 1,236,-1
200 1050 m 1,240,-1
 250 1050 l 1,241,-1
 250 1000 l 1,242,-1
 200 1000 l 1,243,-1
 200 1050 l 1,240,-1
100 1050 m 1,244,-1
 150 1050 l 1,245,-1
 150 1000 l 1,246,-1
 100 1000 l 1,247,-1
 100 1050 l 1,244,-1
0 1050 m 1,248,-1
 50 1050 l 1,249,-1
 50 1000 l 1,250,-1
 0 1000 l 1,251,-1
 0 1050 l 1,248,-1
600 1150 m 1,252,-1
 650 1150 l 1,253,-1
 650 1100 l 1,254,-1
 600 1100 l 1,255,-1
 600 1150 l 1,252,-1
500 1150 m 1,256,-1
 550 1150 l 1,257,-1
 550 1100 l 1,258,-1
 500 1100 l 1,259,-1
 500 1150 l 1,256,-1
400 1150 m 1,260,-1
 450 1150 l 1,261,-1
 450 1100 l 1,262,-1
 400 1100 l 1,263,-1
 400 1150 l 1,260,-1
300 1150 m 1,264,-1
 350 1150 l 1,265,-1
 350 1100 l 1,266,-1
 300 1100 l 1,267,-1
 300 1150 l 1,264,-1
200 1150 m 1,268,-1
 250 1150 l 1,269,-1
 250 1100 l 1,270,-1
 200 1100 l 1,271,-1
 200 1150 l 1,268,-1
EndSplineSet
EndChar

StartChar: one
Encoding: 49 49 17
Width: 900
GlyphClass: 1
Flags: W
LayerCount: 2
Fore
SplineSet
300 1150 m 1,0,-1
 350 1150 l 1,1,-1
 350 1100 l 1,2,-1
 300 1100 l 1,3,-1
 300 1150 l 1,0,-1
700 50 m 1,4,-1
 750 50 l 1,5,-1
 750 0 l 1,6,-1
 700 0 l 1,7,-1
 700 50 l 1,4,-1
600 50 m 1,8,-1
 650 50 l 1,9,-1
 650 0 l 1,10,-1
 600 0 l 1,11,-1
 600 50 l 1,8,-1
500 50 m 1,12,-1
 550 50 l 1,13,-1
 550 0 l 1,14,-1
 500 0 l 1,15,-1
 500 50 l 1,12,-1
400 50 m 1,16,-1
 450 50 l 1,17,-1
 450 0 l 1,18,-1
 400 0 l 1,19,-1
 400 50 l 1,16,-1
300 50 m 1,20,-1
 350 50 l 1,21,-1
 350 0 l 1,22,-1
 300 0 l 1,23,-1
 300 50 l 1,20,-1
200 50 m 1,24,-1
 250 50 l 1,25,-1
 250 0 l 1,26,-1
 200 0 l 1,27,-1
 200 50 l 1,24,-1
100 50 m 1,28,-1
 150 50 l 1,29,-1
 150 0 l 1,30,-1
 100 0 l 1,31,-1
 100 50 l 1,28,-1
0 50 m 1,32,-1
 50 50 l 1,33,-1
 50 0 l 1,34,-1
 0 0 l 1,35,-1
 0 50 l 1,32,-1
700 150 m 1,36,-1
 750 150 l 1,37,-1
 750 100 l 1,38,-1
 700 100 l 1,39,-1
 700 150 l 1,36,-1
600 150 m 1,40,-1
 650 150 l 1,41,-1
 650 100 l 1,42,-1
 600 100 l 1,43,-1
 600 150 l 1,40,-1
500 150 m 1,44,-1
 550 150 l 1,45,-1
 550 100 l 1,46,-1
 500 100 l 1,47,-1
 500 150 l 1,44,-1
400 150 m 1,48,-1
 450 150 l 1,49,-1
 450 100 l 1,50,-1
 400 100 l 1,51,-1
 400 150 l 1,48,-1
300 150 m 1,52,-1
 350 150 l 1,53,-1
 350 100 l 1,54,-1
 300 100 l 1,55,-1
 300 150 l 1,52,-1
200 150 m 1,56,-1
 250 150 l 1,57,-1
 250 100 l 1,58,-1
 200 100 l 1,59,-1
 200 150 l 1,56,-1
100 150 m 1,60,-1
 150 150 l 1,61,-1
 150 100 l 1,62,-1
 100 100 l 1,63,-1
 100 150 l 1,60,-1
0 150 m 1,64,-1
 50 150 l 1,65,-1
 50 100 l 1,66,-1
 0 100 l 1,67,-1
 0 150 l 1,64,-1
400 250 m 1,68,-1
 450 250 l 1,69,-1
 450 200 l 1,70,-1
 400 200 l 1,71,-1
 400 250 l 1,68,-1
300 250 m 1,72,-1
 350 250 l 1,73,-1
 350 200 l 1,74,-1
 300 200 l 1,75,-1
 300 250 l 1,72,-1
400 350 m 1,76,-1
 450 350 l 1,77,-1
 450 300 l 1,78,-1
 400 300 l 1,79,-1
 400 350 l 1,76,-1
300 350 m 1,80,-1
 350 350 l 1,81,-1
 350 300 l 1,82,-1
 300 300 l 1,83,-1
 300 350 l 1,80,-1
400 450 m 1,84,-1
 450 450 l 1,85,-1
 450 400 l 1,86,-1
 400 400 l 1,87,-1
 400 450 l 1,84,-1
300 450 m 1,88,-1
 350 450 l 1,89,-1
 350 400 l 1,90,-1
 300 400 l 1,91,-1
 300 450 l 1,88,-1
400 550 m 1,92,-1
 450 550 l 1,93,-1
 450 500 l 1,94,-1
 400 500 l 1,95,-1
 400 550 l 1,92,-1
300 550 m 1,96,-1
 350 550 l 1,97,-1
 350 500 l 1,98,-1
 300 500 l 1,99,-1
 300 550 l 1,96,-1
400 650 m 1,100,-1
 450 650 l 1,101,-1
 450 600 l 1,102,-1
 400 600 l 1,103,-1
 400 650 l 1,100,-1
300 650 m 1,104,-1
 350 650 l 1,105,-1
 350 600 l 1,106,-1
 300 600 l 1,107,-1
 300 650 l 1,104,-1
400 750 m 1,108,-1
 450 750 l 1,109,-1
 450 700 l 1,110,-1
 400 700 l 1,111,-1
 400 750 l 1,108,-1
300 750 m 1,112,-1
 350 750 l 1,113,-1
 350 700 l 1,114,-1
 300 700 l 1,115,-1
 300 750 l 1,112,-1
400 850 m 1,116,-1
 450 850 l 1,117,-1
 450 800 l 1,118,-1
 400 800 l 1,119,-1
 400 850 l 1,116,-1
300 850 m 1,120,-1
 350 850 l 1,121,-1
 350 800 l 1,122,-1
 300 800 l 1,123,-1
 300 850 l 1,120,-1
100 850 m 1,124,-1
 150 850 l 1,125,-1
 150 800 l 1,126,-1
 100 800 l 1,127,-1
 100 850 l 1,124,-1
0 850 m 1,128,-1
 50 850 l 1,129,-1
 50 800 l 1,130,-1
 0 800 l 1,131,-1
 0 850 l 1,128,-1
400 950 m 1,132,-1
 450 950 l 1,133,-1
 450 900 l 1,134,-1
 400 900 l 1,135,-1
 400 950 l 1,132,-1
300 950 m 1,136,-1
 350 950 l 1,137,-1
 350 900 l 1,138,-1
 300 900 l 1,139,-1
 300 950 l 1,136,-1
200 950 m 1,140,-1
 250 950 l 1,141,-1
 250 900 l 1,142,-1
 200 900 l 1,143,-1
 200 950 l 1,140,-1
100 950 m 1,144,-1
 150 950 l 1,145,-1
 150 900 l 1,146,-1
 100 900 l 1,147,-1
 100 950 l 1,144,-1
400 1050 m 1,148,-1
 450 1050 l 1,149,-1
 450 1000 l 1,150,-1
 400 1000 l 1,151,-1
 400 1050 l 1,148,-1
300 1050 m 1,152,-1
 350 1050 l 1,153,-1
 350 1000 l 1,154,-1
 300 1000 l 1,155,-1
 300 1050 l 1,152,-1
200 1050 m 1,156,-1
 250 1050 l 1,157,-1
 250 1000 l 1,158,-1
 200 1000 l 1,159,-1
 200 1050 l 1,156,-1
400 1150 m 1,160,-1
 450 1150 l 1,161,-1
 450 1100 l 1,162,-1
 400 1100 l 1,163,-1
 400 1150 l 1,160,-1
EndSplineSet
EndChar

StartChar: two
Encoding: 50 50 18
Width: 900
GlyphClass: 1
Flags: W
LayerCount: 2
Fore
SplineSet
100 1150 m 1,0,-1
 150 1150 l 1,1,-1
 150 1100 l 1,2,-1
 100 1100 l 1,3,-1
 100 1150 l 1,0,-1
700 50 m 1,4,-1
 750 50 l 1,5,-1
 750 0 l 1,6,-1
 700 0 l 1,7,-1
 700 50 l 1,4,-1
600 50 m 1,8,-1
 650 50 l 1,9,-1
 650 0 l 1,10,-1
 600 0 l 1,11,-1
 600 50 l 1,8,-1
500 50 m 1,12,-1
 550 50 l 1,13,-1
 550 0 l 1,14,-1
 500 0 l 1,15,-1
 500 50 l 1,12,-1
400 50 m 1,16,-1
 450 50 l 1,17,-1
 450 0 l 1,18,-1
 400 0 l 1,19,-1
 400 50 l 1,16,-1
300 50 m 1,20,-1
 350 50 l 1,21,-1
 350 0 l 1,22,-1
 300 0 l 1,23,-1
 300 50 l 1,20,-1
200 50 m 1,24,-1
 250 50 l 1,25,-1
 250 0 l 1,26,-1
 200 0 l 1,27,-1
 200 50 l 1,24,-1
100 50 m 1,28,-1
 150 50 l 1,29,-1
 150 0 l 1,30,-1
 100 0 l 1,31,-1
 100 50 l 1,28,-1
0 50 m 1,32,-1
 50 50 l 1,33,-1
 50 0 l 1,34,-1
 0 0 l 1,35,-1
 0 50 l 1,32,-1
700 150 m 1,36,-1
 750 150 l 1,37,-1
 750 100 l 1,38,-1
 700 100 l 1,39,-1
 700 150 l 1,36,-1
600 150 m 1,40,-1
 650 150 l 1,41,-1
 650 100 l 1,42,-1
 600 100 l 1,43,-1
 600 150 l 1,40,-1
500 150 m 1,44,-1
 550 150 l 1,45,-1
 550 100 l 1,46,-1
 500 100 l 1,47,-1
 500 150 l 1,44,-1
400 150 m 1,48,-1
 450 150 l 1,49,-1
 450 100 l 1,50,-1
 400 100 l 1,51,-1
 400 150 l 1,48,-1
300 150 m 1,52,-1
 350 150 l 1,53,-1
 350 100 l 1,54,-1
 300 100 l 1,55,-1
 300 150 l 1,52,-1
200 150 m 1,56,-1
 250 150 l 1,57,-1
 250 100 l 1,58,-1
 200 100 l 1,59,-1
 200 150 l 1,56,-1
100 150 m 1,60,-1
 150 150 l 1,61,-1
 150 100 l 1,62,-1
 100 100 l 1,63,-1
 100 150 l 1,60,-1
0 150 m 1,64,-1
 50 150 l 1,65,-1
 50 100 l 1,66,-1
 0 100 l 1,67,-1
 0 150 l 1,64,-1
100 250 m 1,68,-1
 150 250 l 1,69,-1
 150 200 l 1,70,-1
 100 200 l 1,71,-1
 100 250 l 1,68,-1
0 250 m 1,72,-1
 50 250 l 1,73,-1
 50 200 l 1,74,-1
 0 200 l 1,75,-1
 0 250 l 1,72,-1
100 350 m 1,76,-1
 150 350 l 1,77,-1
 150 300 l 1,78,-1
 100 300 l 1,79,-1
 100 350 l 1,76,-1
0 350 m 1,80,-1
 50 350 l 1,81,-1
 50 300 l 1,82,-1
 0 300 l 1,83,-1
 0 350 l 1,80,-1
100 450 m 1,84,-1
 150 450 l 1,85,-1
 150 400 l 1,86,-1
 100 400 l 1,87,-1
 100 450 l 1,84,-1
0 450 m 1,88,-1
 50 450 l 1,89,-1
 50 400 l 1,90,-1
 0 400 l 1,91,-1
 0 450 l 1,88,-1
600 550 m 1,92,-1
 650 550 l 1,93,-1
 650 500 l 1,94,-1
 600 500 l 1,95,-1
 600 550 l 1,92,-1
500 550 m 1,96,-1
 550 550 l 1,97,-1
 550 500 l 1,98,-1
 500 500 l 1,99,-1
 500 550 l 1,96,-1
400 550 m 1,100,-1
 450 550 l 1,101,-1
 450 500 l 1,102,-1
 400 500 l 1,103,-1
 400 550 l 1,100,-1
300 550 m 1,104,-1
 350 550 l 1,105,-1
 350 500 l 1,106,-1
 300 500 l 1,107,-1
 300 550 l 1,104,-1
200 550 m 1,108,-1
 250 550 l 1,109,-1
 250 500 l 1,110,-1
 200 500 l 1,111,-1
 200 550 l 1,108,-1
100 550 m 1,112,-1
 150 550 l 1,113,-1
 150 500 l 1,114,-1
 100 500 l 1,115,-1
 100 550 l 1,112,-1
0 550 m 1,116,-1
 50 550 l 1,117,-1
 50 500 l 1,118,-1
 0 500 l 1,119,-1
 0 550 l 1,116,-1
700 650 m 1,120,-1
 750 650 l 1,121,-1
 750 600 l 1,122,-1
 700 600 l 1,123,-1
 700 650 l 1,120,-1
600 650 m 1,124,-1
 650 650 l 1,125,-1
 650 600 l 1,126,-1
 600 600 l 1,127,-1
 600 650 l 1,124,-1
500 650 m 1,128,-1
 550 650 l 1,129,-1
 550 600 l 1,130,-1
 500 600 l 1,131,-1
 500 650 l 1,128,-1
400 650 m 1,132,-1
 450 650 l 1,133,-1
 450 600 l 1,134,-1
 400 600 l 1,135,-1
 400 650 l 1,132,-1
300 650 m 1,136,-1
 350 650 l 1,137,-1
 350 600 l 1,138,-1
 300 600 l 1,139,-1
 300 650 l 1,136,-1
200 650 m 1,140,-1
 250 650 l 1,141,-1
 250 600 l 1,142,-1
 200 600 l 1,143,-1
 200 650 l 1,140,-1
100 650 m 1,144,-1
 150 650 l 1,145,-1
 150 600 l 1,146,-1
 100 600 l 1,147,-1
 100 650 l 1,144,-1
700 750 m 1,148,-1
 750 750 l 1,149,-1
 750 700 l 1,150,-1
 700 700 l 1,151,-1
 700 750 l 1,148,-1
600 750 m 1,152,-1
 650 750 l 1,153,-1
 650 700 l 1,154,-1
 600 700 l 1,155,-1
 600 750 l 1,152,-1
700 850 m 1,156,-1
 750 850 l 1,157,-1
 750 800 l 1,158,-1
 700 800 l 1,159,-1
 700 850 l 1,156,-1
600 850 m 1,160,-1
 650 850 l 1,161,-1
 650 800 l 1,162,-1
 600 800 l 1,163,-1
 600 850 l 1,160,-1
700 950 m 1,164,-1
 750 950 l 1,165,-1
 750 900 l 1,166,-1
 700 900 l 1,167,-1
 700 950 l 1,164,-1
600 950 m 1,168,-1
 650 950 l 1,169,-1
 650 900 l 1,170,-1
 600 900 l 1,171,-1
 600 950 l 1,168,-1
100 950 m 1,172,-1
 150 950 l 1,173,-1
 150 900 l 1,174,-1
 100 900 l 1,175,-1
 100 950 l 1,172,-1
0 950 m 1,176,-1
 50 950 l 1,177,-1
 50 900 l 1,178,-1
 0 900 l 1,179,-1
 0 950 l 1,176,-1
700 1050 m 1,180,-1
 750 1050 l 1,181,-1
 750 1000 l 1,182,-1
 700 1000 l 1,183,-1
 700 1050 l 1,180,-1
600 1050 m 1,184,-1
 650 1050 l 1,185,-1
 650 1000 l 1,186,-1
 600 1000 l 1,187,-1
 600 1050 l 1,184,-1
500 1050 m 1,188,-1
 550 1050 l 1,189,-1
 550 1000 l 1,190,-1
 500 1000 l 1,191,-1
 500 1050 l 1,188,-1
400 1050 m 1,192,-1
 450 1050 l 1,193,-1
 450 1000 l 1,194,-1
 400 1000 l 1,195,-1
 400 1050 l 1,192,-1
300 1050 m 1,196,-1
 350 1050 l 1,197,-1
 350 1000 l 1,198,-1
 300 1000 l 1,199,-1
 300 1050 l 1,196,-1
200 1050 m 1,200,-1
 250 1050 l 1,201,-1
 250 1000 l 1,202,-1
 200 1000 l 1,203,-1
 200 1050 l 1,200,-1
100 1050 m 1,204,-1
 150 1050 l 1,205,-1
 150 1000 l 1,206,-1
 100 1000 l 1,207,-1
 100 1050 l 1,204,-1
0 1050 m 1,208,-1
 50 1050 l 1,209,-1
 50 1000 l 1,210,-1
 0 1000 l 1,211,-1
 0 1050 l 1,208,-1
600 1150 m 1,212,-1
 650 1150 l 1,213,-1
 650 1100 l 1,214,-1
 600 1100 l 1,215,-1
 600 1150 l 1,212,-1
500 1150 m 1,216,-1
 550 1150 l 1,217,-1
 550 1100 l 1,218,-1
 500 1100 l 1,219,-1
 500 1150 l 1,216,-1
400 1150 m 1,220,-1
 450 1150 l 1,221,-1
 450 1100 l 1,222,-1
 400 1100 l 1,223,-1
 400 1150 l 1,220,-1
300 1150 m 1,224,-1
 350 1150 l 1,225,-1
 350 1100 l 1,226,-1
 300 1100 l 1,227,-1
 300 1150 l 1,224,-1
200 1150 m 1,228,-1
 250 1150 l 1,229,-1
 250 1100 l 1,230,-1
 200 1100 l 1,231,-1
 200 1150 l 1,228,-1
EndSplineSet
EndChar

StartChar: three
Encoding: 51 51 19
Width: 900
GlyphClass: 1
Flags: W
LayerCount: 2
Fore
SplineSet
100 1150 m 1,0,-1
 150 1150 l 1,1,-1
 150 1100 l 1,2,-1
 100 1100 l 1,3,-1
 100 1150 l 1,0,-1
600 50 m 1,4,-1
 650 50 l 1,5,-1
 650 0 l 1,6,-1
 600 0 l 1,7,-1
 600 50 l 1,4,-1
500 50 m 1,8,-1
 550 50 l 1,9,-1
 550 0 l 1,10,-1
 500 0 l 1,11,-1
 500 50 l 1,8,-1
400 50 m 1,12,-1
 450 50 l 1,13,-1
 450 0 l 1,14,-1
 400 0 l 1,15,-1
 400 50 l 1,12,-1
300 50 m 1,16,-1
 350 50 l 1,17,-1
 350 0 l 1,18,-1
 300 0 l 1,19,-1
 300 50 l 1,16,-1
200 50 m 1,20,-1
 250 50 l 1,21,-1
 250 0 l 1,22,-1
 200 0 l 1,23,-1
 200 50 l 1,20,-1
100 50 m 1,24,-1
 150 50 l 1,25,-1
 150 0 l 1,26,-1
 100 0 l 1,27,-1
 100 50 l 1,24,-1
700 150 m 1,28,-1
 750 150 l 1,29,-1
 750 100 l 1,30,-1
 700 100 l 1,31,-1
 700 150 l 1,28,-1
600 150 m 1,32,-1
 650 150 l 1,33,-1
 650 100 l 1,34,-1
 600 100 l 1,35,-1
 600 150 l 1,32,-1
500 150 m 1,36,-1
 550 150 l 1,37,-1
 550 100 l 1,38,-1
 500 100 l 1,39,-1
 500 150 l 1,36,-1
400 150 m 1,40,-1
 450 150 l 1,41,-1
 450 100 l 1,42,-1
 400 100 l 1,43,-1
 400 150 l 1,40,-1
300 150 m 1,44,-1
 350 150 l 1,45,-1
 350 100 l 1,46,-1
 300 100 l 1,47,-1
 300 150 l 1,44,-1
200 150 m 1,48,-1
 250 150 l 1,49,-1
 250 100 l 1,50,-1
 200 100 l 1,51,-1
 200 150 l 1,48,-1
100 150 m 1,52,-1
 150 150 l 1,53,-1
 150 100 l 1,54,-1
 100 100 l 1,55,-1
 100 150 l 1,52,-1
0 150 m 1,56,-1
 50 150 l 1,57,-1
 50 100 l 1,58,-1
 0 100 l 1,59,-1
 0 150 l 1,56,-1
700 250 m 1,60,-1
 750 250 l 1,61,-1
 750 200 l 1,62,-1
 700 200 l 1,63,-1
 700 250 l 1,60,-1
600 250 m 1,64,-1
 650 250 l 1,65,-1
 650 200 l 1,66,-1
 600 200 l 1,67,-1
 600 250 l 1,64,-1
100 250 m 1,68,-1
 150 250 l 1,69,-1
 150 200 l 1,70,-1
 100 200 l 1,71,-1
 100 250 l 1,68,-1
0 250 m 1,72,-1
 50 250 l 1,73,-1
 50 200 l 1,74,-1
 0 200 l 1,75,-1
 0 250 l 1,72,-1
700 350 m 1,76,-1
 750 350 l 1,77,-1
 750 300 l 1,78,-1
 700 300 l 1,79,-1
 700 350 l 1,76,-1
600 350 m 1,80,-1
 650 350 l 1,81,-1
 650 300 l 1,82,-1
 600 300 l 1,83,-1
 600 350 l 1,80,-1
700 450 m 1,84,-1
 750 450 l 1,85,-1
 750 400 l 1,86,-1
 700 400 l 1,87,-1
 700 450 l 1,84,-1
600 450 m 1,88,-1
 650 450 l 1,89,-1
 650 400 l 1,90,-1
 600 400 l 1,91,-1
 600 450 l 1,88,-1
600 550 m 1,92,-1
 650 550 l 1,93,-1
 650 500 l 1,94,-1
 600 500 l 1,95,-1
 600 550 l 1,92,-1
500 550 m 1,96,-1
 550 550 l 1,97,-1
 550 500 l 1,98,-1
 500 500 l 1,99,-1
 500 550 l 1,96,-1
400 550 m 1,100,-1
 450 550 l 1,101,-1
 450 500 l 1,102,-1
 400 500 l 1,103,-1
 400 550 l 1,100,-1
300 550 m 1,104,-1
 350 550 l 1,105,-1
 350 500 l 1,106,-1
 300 500 l 1,107,-1
 300 550 l 1,104,-1
200 550 m 1,108,-1
 250 550 l 1,109,-1
 250 500 l 1,110,-1
 200 500 l 1,111,-1
 200 550 l 1,108,-1
600 650 m 1,112,-1
 650 650 l 1,113,-1
 650 600 l 1,114,-1
 600 600 l 1,115,-1
 600 650 l 1,112,-1
500 650 m 1,116,-1
 550 650 l 1,117,-1
 550 600 l 1,118,-1
 500 600 l 1,119,-1
 500 650 l 1,116,-1
400 650 m 1,120,-1
 450 650 l 1,121,-1
 450 600 l 1,122,-1
 400 600 l 1,123,-1
 400 650 l 1,120,-1
300 650 m 1,124,-1
 350 650 l 1,125,-1
 350 600 l 1,126,-1
 300 600 l 1,127,-1
 300 650 l 1,124,-1
200 650 m 1,128,-1
 250 650 l 1,129,-1
 250 600 l 1,130,-1
 200 600 l 1,131,-1
 200 650 l 1,128,-1
700 750 m 1,132,-1
 750 750 l 1,133,-1
 750 700 l 1,134,-1
 700 700 l 1,135,-1
 700 750 l 1,132,-1
600 750 m 1,136,-1
 650 750 l 1,137,-1
 650 700 l 1,138,-1
 600 700 l 1,139,-1
 600 750 l 1,136,-1
700 850 m 1,140,-1
 750 850 l 1,141,-1
 750 800 l 1,142,-1
 700 800 l 1,143,-1
 700 850 l 1,140,-1
600 850 m 1,144,-1
 650 850 l 1,145,-1
 650 800 l 1,146,-1
 600 800 l 1,147,-1
 600 850 l 1,144,-1
700 950 m 1,148,-1
 750 950 l 1,149,-1
 750 900 l 1,150,-1
 700 900 l 1,151,-1
 700 950 l 1,148,-1
600 950 m 1,152,-1
 650 950 l 1,153,-1
 650 900 l 1,154,-1
 600 900 l 1,155,-1
 600 950 l 1,152,-1
100 950 m 1,156,-1
 150 950 l 1,157,-1
 150 900 l 1,158,-1
 100 900 l 1,159,-1
 100 950 l 1,156,-1
0 950 m 1,160,-1
 50 950 l 1,161,-1
 50 900 l 1,162,-1
 0 900 l 1,163,-1
 0 950 l 1,160,-1
700 1050 m 1,164,-1
 750 1050 l 1,165,-1
 750 1000 l 1,166,-1
 700 1000 l 1,167,-1
 700 1050 l 1,164,-1
600 1050 m 1,168,-1
 650 1050 l 1,169,-1
 650 1000 l 1,170,-1
 600 1000 l 1,171,-1
 600 1050 l 1,168,-1
500 1050 m 1,172,-1
 550 1050 l 1,173,-1
 550 1000 l 1,174,-1
 500 1000 l 1,175,-1
 500 1050 l 1,172,-1
400 1050 m 1,176,-1
 450 1050 l 1,177,-1
 450 1000 l 1,178,-1
 400 1000 l 1,179,-1
 400 1050 l 1,176,-1
300 1050 m 1,180,-1
 350 1050 l 1,181,-1
 350 1000 l 1,182,-1
 300 1000 l 1,183,-1
 300 1050 l 1,180,-1
200 1050 m 1,184,-1
 250 1050 l 1,185,-1
 250 1000 l 1,186,-1
 200 1000 l 1,187,-1
 200 1050 l 1,184,-1
100 1050 m 1,188,-1
 150 1050 l 1,189,-1
 150 1000 l 1,190,-1
 100 1000 l 1,191,-1
 100 1050 l 1,188,-1
0 1050 m 1,192,-1
 50 1050 l 1,193,-1
 50 1000 l 1,194,-1
 0 1000 l 1,195,-1
 0 1050 l 1,192,-1
600 1150 m 1,196,-1
 650 1150 l 1,197,-1
 650 1100 l 1,198,-1
 600 1100 l 1,199,-1
 600 1150 l 1,196,-1
500 1150 m 1,200,-1
 550 1150 l 1,201,-1
 550 1100 l 1,202,-1
 500 1100 l 1,203,-1
 500 1150 l 1,200,-1
400 1150 m 1,204,-1
 450 1150 l 1,205,-1
 450 1100 l 1,206,-1
 400 1100 l 1,207,-1
 400 1150 l 1,204,-1
300 1150 m 1,208,-1
 350 1150 l 1,209,-1
 350 1100 l 1,210,-1
 300 1100 l 1,211,-1
 300 1150 l 1,208,-1
200 1150 m 1,212,-1
 250 1150 l 1,213,-1
 250 1100 l 1,214,-1
 200 1100 l 1,215,-1
 200 1150 l 1,212,-1
EndSplineSet
EndChar

StartChar: four
Encoding: 52 52 20
Width: 900
GlyphClass: 1
Flags: W
LayerCount: 2
Fore
SplineSet
0 1150 m 1,0,-1
 50 1150 l 1,1,-1
 50 1100 l 1,2,-1
 0 1100 l 1,3,-1
 0 1150 l 1,0,-1
700 50 m 1,4,-1
 750 50 l 1,5,-1
 750 0 l 1,6,-1
 700 0 l 1,7,-1
 700 50 l 1,4,-1
600 50 m 1,8,-1
 650 50 l 1,9,-1
 650 0 l 1,10,-1
 600 0 l 1,11,-1
 600 50 l 1,8,-1
700 150 m 1,12,-1
 750 150 l 1,13,-1
 750 100 l 1,14,-1
 700 100 l 1,15,-1
 700 150 l 1,12,-1
600 150 m 1,16,-1
 650 150 l 1,17,-1
 650 100 l 1,18,-1
 600 100 l 1,19,-1
 600 150 l 1,16,-1
700 250 m 1,20,-1
 750 250 l 1,21,-1
 750 200 l 1,22,-1
 700 200 l 1,23,-1
 700 250 l 1,20,-1
600 250 m 1,24,-1
 650 250 l 1,25,-1
 650 200 l 1,26,-1
 600 200 l 1,27,-1
 600 250 l 1,24,-1
700 350 m 1,28,-1
 750 350 l 1,29,-1
 750 300 l 1,30,-1
 700 300 l 1,31,-1
 700 350 l 1,28,-1
600 350 m 1,32,-1
 650 350 l 1,33,-1
 650 300 l 1,34,-1
 600 300 l 1,35,-1
 600 350 l 1,32,-1
700 450 m 1,36,-1
 750 450 l 1,37,-1
 750 400 l 1,38,-1
 700 400 l 1,39,-1
 700 450 l 1,36,-1
600 450 m 1,40,-1
 650 450 l 1,41,-1
 650 400 l 1,42,-1
 600 400 l 1,43,-1
 600 450 l 1,40,-1
500 450 m 1,44,-1
 550 450 l 1,45,-1
 550 400 l 1,46,-1
 500 400 l 1,47,-1
 500 450 l 1,44,-1
400 450 m 1,48,-1
 450 450 l 1,49,-1
 450 400 l 1,50,-1
 400 400 l 1,51,-1
 400 450 l 1,48,-1
300 450 m 1,52,-1
 350 450 l 1,53,-1
 350 400 l 1,54,-1
 300 400 l 1,55,-1
 300 450 l 1,52,-1
200 450 m 1,56,-1
 250 450 l 1,57,-1
 250 400 l 1,58,-1
 200 400 l 1,59,-1
 200 450 l 1,56,-1
100 450 m 1,60,-1
 150 450 l 1,61,-1
 150 400 l 1,62,-1
 100 400 l 1,63,-1
 100 450 l 1,60,-1
0 450 m 1,64,-1
 50 450 l 1,65,-1
 50 400 l 1,66,-1
 0 400 l 1,67,-1
 0 450 l 1,64,-1
700 550 m 1,68,-1
 750 550 l 1,69,-1
 750 500 l 1,70,-1
 700 500 l 1,71,-1
 700 550 l 1,68,-1
600 550 m 1,72,-1
 650 550 l 1,73,-1
 650 500 l 1,74,-1
 600 500 l 1,75,-1
 600 550 l 1,72,-1
500 550 m 1,76,-1
 550 550 l 1,77,-1
 550 500 l 1,78,-1
 500 500 l 1,79,-1
 500 550 l 1,76,-1
400 550 m 1,80,-1
 450 550 l 1,81,-1
 450 500 l 1,82,-1
 400 500 l 1,83,-1
 400 550 l 1,80,-1
300 550 m 1,84,-1
 350 550 l 1,85,-1
 350 500 l 1,86,-1
 300 500 l 1,87,-1
 300 550 l 1,84,-1
200 550 m 1,88,-1
 250 550 l 1,89,-1
 250 500 l 1,90,-1
 200 500 l 1,91,-1
 200 550 l 1,88,-1
100 550 m 1,92,-1
 150 550 l 1,93,-1
 150 500 l 1,94,-1
 100 500 l 1,95,-1
 100 550 l 1,92,-1
0 550 m 1,96,-1
 50 550 l 1,97,-1
 50 500 l 1,98,-1
 0 500 l 1,99,-1
 0 550 l 1,96,-1
700 650 m 1,100,-1
 750 650 l 1,101,-1
 750 600 l 1,102,-1
 700 600 l 1,103,-1
 700 650 l 1,100,-1
600 650 m 1,104,-1
 650 650 l 1,105,-1
 650 600 l 1,106,-1
 600 600 l 1,107,-1
 600 650 l 1,104,-1
100 650 m 1,108,-1
 150 650 l 1,109,-1
 150 600 l 1,110,-1
 100 600 l 1,111,-1
 100 650 l 1,108,-1
0 650 m 1,112,-1
 50 650 l 1,113,-1
 50 600 l 1,114,-1
 0 600 l 1,115,-1
 0 650 l 1,112,-1
700 750 m 1,116,-1
 750 750 l 1,117,-1
 750 700 l 1,118,-1
 700 700 l 1,119,-1
 700 750 l 1,116,-1
600 750 m 1,120,-1
 650 750 l 1,121,-1
 650 700 l 1,122,-1
 600 700 l 1,123,-1
 600 750 l 1,120,-1
100 750 m 1,124,-1
 150 750 l 1,125,-1
 150 700 l 1,126,-1
 100 700 l 1,127,-1
 100 750 l 1,124,-1
0 750 m 1,128,-1
 50 750 l 1,129,-1
 50 700 l 1,130,-1
 0 700 l 1,131,-1
 0 750 l 1,128,-1
700 850 m 1,132,-1
 750 850 l 1,133,-1
 750 800 l 1,134,-1
 700 800 l 1,135,-1
 700 850 l 1,132,-1
600 850 m 1,136,-1
 650 850 l 1,137,-1
 650 800 l 1,138,-1
 600 800 l 1,139,-1
 600 850 l 1,136,-1
100 850 m 1,140,-1
 150 850 l 1,141,-1
 150 800 l 1,142,-1
 100 800 l 1,143,-1
 100 850 l 1,140,-1
0 850 m 1,144,-1
 50 850 l 1,145,-1
 50 800 l 1,146,-1
 0 800 l 1,147,-1
 0 850 l 1,144,-1
700 950 m 1,148,-1
 750 950 l 1,149,-1
 750 900 l 1,150,-1
 700 900 l 1,151,-1
 700 950 l 1,148,-1
600 950 m 1,152,-1
 650 950 l 1,153,-1
 650 900 l 1,154,-1
 600 900 l 1,155,-1
 600 950 l 1,152,-1
100 950 m 1,156,-1
 150 950 l 1,157,-1
 150 900 l 1,158,-1
 100 900 l 1,159,-1
 100 950 l 1,156,-1
0 950 m 1,160,-1
 50 950 l 1,161,-1
 50 900 l 1,162,-1
 0 900 l 1,163,-1
 0 950 l 1,160,-1
700 1050 m 1,164,-1
 750 1050 l 1,165,-1
 750 1000 l 1,166,-1
 700 1000 l 1,167,-1
 700 1050 l 1,164,-1
600 1050 m 1,168,-1
 650 1050 l 1,169,-1
 650 1000 l 1,170,-1
 600 1000 l 1,171,-1
 600 1050 l 1,168,-1
100 1050 m 1,172,-1
 150 1050 l 1,173,-1
 150 1000 l 1,174,-1
 100 1000 l 1,175,-1
 100 1050 l 1,172,-1
0 1050 m 1,176,-1
 50 1050 l 1,177,-1
 50 1000 l 1,178,-1
 0 1000 l 1,179,-1
 0 1050 l 1,176,-1
700 1150 m 1,180,-1
 750 1150 l 1,181,-1
 750 1100 l 1,182,-1
 700 1100 l 1,183,-1
 700 1150 l 1,180,-1
600 1150 m 1,184,-1
 650 1150 l 1,185,-1
 650 1100 l 1,186,-1
 600 1100 l 1,187,-1
 600 1150 l 1,184,-1
100 1150 m 1,188,-1
 150 1150 l 1,189,-1
 150 1100 l 1,190,-1
 100 1100 l 1,191,-1
 100 1150 l 1,188,-1
EndSplineSet
EndChar

StartChar: five
Encoding: 53 53 21
Width: 900
GlyphClass: 1
Flags: W
LayerCount: 2
Fore
SplineSet
0 1150 m 1,0,-1
 50 1150 l 1,1,-1
 50 1100 l 1,2,-1
 0 1100 l 1,3,-1
 0 1150 l 1,0,-1
600 50 m 1,4,-1
 650 50 l 1,5,-1
 650 0 l 1,6,-1
 600 0 l 1,7,-1
 600 50 l 1,4,-1
500 50 m 1,8,-1
 550 50 l 1,9,-1
 550 0 l 1,10,-1
 500 0 l 1,11,-1
 500 50 l 1,8,-1
400 50 m 1,12,-1
 450 50 l 1,13,-1
 450 0 l 1,14,-1
 400 0 l 1,15,-1
 400 50 l 1,12,-1
300 50 m 1,16,-1
 350 50 l 1,17,-1
 350 0 l 1,18,-1
 300 0 l 1,19,-1
 300 50 l 1,16,-1
200 50 m 1,20,-1
 250 50 l 1,21,-1
 250 0 l 1,22,-1
 200 0 l 1,23,-1
 200 50 l 1,20,-1
100 50 m 1,24,-1
 150 50 l 1,25,-1
 150 0 l 1,26,-1
 100 0 l 1,27,-1
 100 50 l 1,24,-1
700 150 m 1,28,-1
 750 150 l 1,29,-1
 750 100 l 1,30,-1
 700 100 l 1,31,-1
 700 150 l 1,28,-1
600 150 m 1,32,-1
 650 150 l 1,33,-1
 650 100 l 1,34,-1
 600 100 l 1,35,-1
 600 150 l 1,32,-1
500 150 m 1,36,-1
 550 150 l 1,37,-1
 550 100 l 1,38,-1
 500 100 l 1,39,-1
 500 150 l 1,36,-1
400 150 m 1,40,-1
 450 150 l 1,41,-1
 450 100 l 1,42,-1
 400 100 l 1,43,-1
 400 150 l 1,40,-1
300 150 m 1,44,-1
 350 150 l 1,45,-1
 350 100 l 1,46,-1
 300 100 l 1,47,-1
 300 150 l 1,44,-1
200 150 m 1,48,-1
 250 150 l 1,49,-1
 250 100 l 1,50,-1
 200 100 l 1,51,-1
 200 150 l 1,48,-1
100 150 m 1,52,-1
 150 150 l 1,53,-1
 150 100 l 1,54,-1
 100 100 l 1,55,-1
 100 150 l 1,52,-1
0 150 m 1,56,-1
 50 150 l 1,57,-1
 50 100 l 1,58,-1
 0 100 l 1,59,-1
 0 150 l 1,56,-1
700 250 m 1,60,-1
 750 250 l 1,61,-1
 750 200 l 1,62,-1
 700 200 l 1,63,-1
 700 250 l 1,60,-1
600 250 m 1,64,-1
 650 250 l 1,65,-1
 650 200 l 1,66,-1
 600 200 l 1,67,-1
 600 250 l 1,64,-1
100 250 m 1,68,-1
 150 250 l 1,69,-1
 150 200 l 1,70,-1
 100 200 l 1,71,-1
 100 250 l 1,68,-1
0 250 m 1,72,-1
 50 250 l 1,73,-1
 50 200 l 1,74,-1
 0 200 l 1,75,-1
 0 250 l 1,72,-1
700 350 m 1,76,-1
 750 350 l 1,77,-1
 750 300 l 1,78,-1
 700 300 l 1,79,-1
 700 350 l 1,76,-1
600 350 m 1,80,-1
 650 350 l 1,81,-1
 650 300 l 1,82,-1
 600 300 l 1,83,-1
 600 350 l 1,80,-1
700 450 m 1,84,-1
 750 450 l 1,85,-1
 750 400 l 1,86,-1
 700 400 l 1,87,-1
 700 450 l 1,84,-1
600 450 m 1,88,-1
 650 450 l 1,89,-1
 650 400 l 1,90,-1
 600 400 l 1,91,-1
 600 450 l 1,88,-1
700 550 m 1,92,-1
 750 550 l 1,93,-1
 750 500 l 1,94,-1
 700 500 l 1,95,-1
 700 550 l 1,92,-1
600 550 m 1,96,-1
 650 550 l 1,97,-1
 650 500 l 1,98,-1
 600 500 l 1,99,-1
 600 550 l 1,96,-1
700 650 m 1,100,-1
 750 650 l 1,101,-1
 750 600 l 1,102,-1
 700 600 l 1,103,-1
 700 650 l 1,100,-1
600 650 m 1,104,-1
 650 650 l 1,105,-1
 650 600 l 1,106,-1
 600 600 l 1,107,-1
 600 650 l 1,104,-1
500 650 m 1,108,-1
 550 650 l 1,109,-1
 550 600 l 1,110,-1
 500 600 l 1,111,-1
 500 650 l 1,108,-1
400 650 m 1,112,-1
 450 650 l 1,113,-1
 450 600 l 1,114,-1
 400 600 l 1,115,-1
 400 650 l 1,112,-1
300 650 m 1,116,-1
 350 650 l 1,117,-1
 350 600 l 1,118,-1
 300 600 l 1,119,-1
 300 650 l 1,116,-1
200 650 m 1,120,-1
 250 650 l 1,121,-1
 250 600 l 1,122,-1
 200 600 l 1,123,-1
 200 650 l 1,120,-1
100 650 m 1,124,-1
 150 650 l 1,125,-1
 150 600 l 1,126,-1
 100 600 l 1,127,-1
 100 650 l 1,124,-1
0 650 m 1,128,-1
 50 650 l 1,129,-1
 50 600 l 1,130,-1
 0 600 l 1,131,-1
 0 650 l 1,128,-1
600 750 m 1,132,-1
 650 750 l 1,133,-1
 650 700 l 1,134,-1
 600 700 l 1,135,-1
 600 750 l 1,132,-1
500 750 m 1,136,-1
 550 750 l 1,137,-1
 550 700 l 1,138,-1
 500 700 l 1,139,-1
 500 750 l 1,136,-1
400 750 m 1,140,-1
 450 750 l 1,141,-1
 450 700 l 1,142,-1
 400 700 l 1,143,-1
 400 750 l 1,140,-1
300 750 m 1,144,-1
 350 750 l 1,145,-1
 350 700 l 1,146,-1
 300 700 l 1,147,-1
 300 750 l 1,144,-1
200 750 m 1,148,-1
 250 750 l 1,149,-1
 250 700 l 1,150,-1
 200 700 l 1,151,-1
 200 750 l 1,148,-1
100 750 m 1,152,-1
 150 750 l 1,153,-1
 150 700 l 1,154,-1
 100 700 l 1,155,-1
 100 750 l 1,152,-1
0 750 m 1,156,-1
 50 750 l 1,157,-1
 50 700 l 1,158,-1
 0 700 l 1,159,-1
 0 750 l 1,156,-1
100 850 m 1,160,-1
 150 850 l 1,161,-1
 150 800 l 1,162,-1
 100 800 l 1,163,-1
 100 850 l 1,160,-1
0 850 m 1,164,-1
 50 850 l 1,165,-1
 50 800 l 1,166,-1
 0 800 l 1,167,-1
 0 850 l 1,164,-1
100 950 m 1,168,-1
 150 950 l 1,169,-1
 150 900 l 1,170,-1
 100 900 l 1,171,-1
 100 950 l 1,168,-1
0 950 m 1,172,-1
 50 950 l 1,173,-1
 50 900 l 1,174,-1
 0 900 l 1,175,-1
 0 950 l 1,172,-1
700 1050 m 1,176,-1
 750 1050 l 1,177,-1
 750 1000 l 1,178,-1
 700 1000 l 1,179,-1
 700 1050 l 1,176,-1
600 1050 m 1,180,-1
 650 1050 l 1,181,-1
 650 1000 l 1,182,-1
 600 1000 l 1,183,-1
 600 1050 l 1,180,-1
500 1050 m 1,184,-1
 550 1050 l 1,185,-1
 550 1000 l 1,186,-1
 500 1000 l 1,187,-1
 500 1050 l 1,184,-1
400 1050 m 1,188,-1
 450 1050 l 1,189,-1
 450 1000 l 1,190,-1
 400 1000 l 1,191,-1
 400 1050 l 1,188,-1
300 1050 m 1,192,-1
 350 1050 l 1,193,-1
 350 1000 l 1,194,-1
 300 1000 l 1,195,-1
 300 1050 l 1,192,-1
200 1050 m 1,196,-1
 250 1050 l 1,197,-1
 250 1000 l 1,198,-1
 200 1000 l 1,199,-1
 200 1050 l 1,196,-1
100 1050 m 1,200,-1
 150 1050 l 1,201,-1
 150 1000 l 1,202,-1
 100 1000 l 1,203,-1
 100 1050 l 1,200,-1
0 1050 m 1,204,-1
 50 1050 l 1,205,-1
 50 1000 l 1,206,-1
 0 1000 l 1,207,-1
 0 1050 l 1,204,-1
700 1150 m 1,208,-1
 750 1150 l 1,209,-1
 750 1100 l 1,210,-1
 700 1100 l 1,211,-1
 700 1150 l 1,208,-1
600 1150 m 1,212,-1
 650 1150 l 1,213,-1
 650 1100 l 1,214,-1
 600 1100 l 1,215,-1
 600 1150 l 1,212,-1
500 1150 m 1,216,-1
 550 1150 l 1,217,-1
 550 1100 l 1,218,-1
 500 1100 l 1,219,-1
 500 1150 l 1,216,-1
400 1150 m 1,220,-1
 450 1150 l 1,221,-1
 450 1100 l 1,222,-1
 400 1100 l 1,223,-1
 400 1150 l 1,220,-1
300 1150 m 1,224,-1
 350 1150 l 1,225,-1
 350 1100 l 1,226,-1
 300 1100 l 1,227,-1
 300 1150 l 1,224,-1
200 1150 m 1,228,-1
 250 1150 l 1,229,-1
 250 1100 l 1,230,-1
 200 1100 l 1,231,-1
 200 1150 l 1,228,-1
100 1150 m 1,232,-1
 150 1150 l 1,233,-1
 150 1100 l 1,234,-1
 100 1100 l 1,235,-1
 100 1150 l 1,232,-1
EndSplineSet
EndChar

StartChar: six
Encoding: 54 54 22
Width: 900
GlyphClass: 1
Flags: W
LayerCount: 2
Fore
SplineSet
100 1150 m 1,0,-1
 150 1150 l 1,1,-1
 150 1100 l 1,2,-1
 100 1100 l 1,3,-1
 100 1150 l 1,0,-1
600 50 m 1,4,-1
 650 50 l 1,5,-1
 650 0 l 1,6,-1
 600 0 l 1,7,-1
 600 50 l 1,4,-1
500 50 m 1,8,-1
 550 50 l 1,9,-1
 550 0 l 1,10,-1
 500 0 l 1,11,-1
 500 50 l 1,8,-1
400 50 m 1,12,-1
 450 50 l 1,13,-1
 450 0 l 1,14,-1
 400 0 l 1,15,-1
 400 50 l 1,12,-1
300 50 m 1,16,-1
 350 50 l 1,17,-1
 350 0 l 1,18,-1
 300 0 l 1,19,-1
 300 50 l 1,16,-1
200 50 m 1,20,-1
 250 50 l 1,21,-1
 250 0 l 1,22,-1
 200 0 l 1,23,-1
 200 50 l 1,20,-1
100 50 m 1,24,-1
 150 50 l 1,25,-1
 150 0 l 1,26,-1
 100 0 l 1,27,-1
 100 50 l 1,24,-1
700 150 m 1,28,-1
 750 150 l 1,29,-1
 750 100 l 1,30,-1
 700 100 l 1,31,-1
 700 150 l 1,28,-1
600 150 m 1,32,-1
 650 150 l 1,33,-1
 650 100 l 1,34,-1
 600 100 l 1,35,-1
 600 150 l 1,32,-1
500 150 m 1,36,-1
 550 150 l 1,37,-1
 550 100 l 1,38,-1
 500 100 l 1,39,-1
 500 150 l 1,36,-1
400 150 m 1,40,-1
 450 150 l 1,41,-1
 450 100 l 1,42,-1
 400 100 l 1,43,-1
 400 150 l 1,40,-1
300 150 m 1,44,-1
 350 150 l 1,45,-1
 350 100 l 1,46,-1
 300 100 l 1,47,-1
 300 150 l 1,44,-1
200 150 m 1,48,-1
 250 150 l 1,49,-1
 250 100 l 1,50,-1
 200 100 l 1,51,-1
 200 150 l 1,48,-1
100 150 m 1,52,-1
 150 150 l 1,53,-1
 150 100 l 1,54,-1
 100 100 l 1,55,-1
 100 150 l 1,52,-1
0 150 m 1,56,-1
 50 150 l 1,57,-1
 50 100 l 1,58,-1
 0 100 l 1,59,-1
 0 150 l 1,56,-1
700 250 m 1,60,-1
 750 250 l 1,61,-1
 750 200 l 1,62,-1
 700 200 l 1,63,-1
 700 250 l 1,60,-1
600 250 m 1,64,-1
 650 250 l 1,65,-1
 650 200 l 1,66,-1
 600 200 l 1,67,-1
 600 250 l 1,64,-1
100 250 m 1,68,-1
 150 250 l 1,69,-1
 150 200 l 1,70,-1
 100 200 l 1,71,-1
 100 250 l 1,68,-1
0 250 m 1,72,-1
 50 250 l 1,73,-1
 50 200 l 1,74,-1
 0 200 l 1,75,-1
 0 250 l 1,72,-1
700 350 m 1,76,-1
 750 350 l 1,77,-1
 750 300 l 1,78,-1
 700 300 l 1,79,-1
 700 350 l 1,76,-1
600 350 m 1,80,-1
 650 350 l 1,81,-1
 650 300 l 1,82,-1
 600 300 l 1,83,-1
 600 350 l 1,80,-1
100 350 m 1,84,-1
 150 350 l 1,85,-1
 150 300 l 1,86,-1
 100 300 l 1,87,-1
 100 350 l 1,84,-1
0 350 m 1,88,-1
 50 350 l 1,89,-1
 50 300 l 1,90,-1
 0 300 l 1,91,-1
 0 350 l 1,88,-1
700 450 m 1,92,-1
 750 450 l 1,93,-1
 750 400 l 1,94,-1
 700 400 l 1,95,-1
 700 450 l 1,92,-1
600 450 m 1,96,-1
 650 450 l 1,97,-1
 650 400 l 1,98,-1
 600 400 l 1,99,-1
 600 450 l 1,96,-1
100 450 m 1,100,-1
 150 450 l 1,101,-1
 150 400 l 1,102,-1
 100 400 l 1,103,-1
 100 450 l 1,100,-1
0 450 m 1,104,-1
 50 450 l 1,105,-1
 50 400 l 1,106,-1
 0 400 l 1,107,-1
 0 450 l 1,104,-1
700 550 m 1,108,-1
 750 550 l 1,109,-1
 750 500 l 1,110,-1
 700 500 l 1,111,-1
 700 550 l 1,108,-1
600 550 m 1,112,-1
 650 550 l 1,113,-1
 650 500 l 1,114,-1
 600 500 l 1,115,-1
 600 550 l 1,112,-1
100 550 m 1,116,-1
 150 550 l 1,117,-1
 150 500 l 1,118,-1
 100 500 l 1,119,-1
 100 550 l 1,116,-1
0 550 m 1,120,-1
 50 550 l 1,121,-1
 50 500 l 1,122,-1
 0 500 l 1,123,-1
 0 550 l 1,120,-1
700 650 m 1,124,-1
 750 650 l 1,125,-1
 750 600 l 1,126,-1
 700 600 l 1,127,-1
 700 650 l 1,124,-1
600 650 m 1,128,-1
 650 650 l 1,129,-1
 650 600 l 1,130,-1
 600 600 l 1,131,-1
 600 650 l 1,128,-1
500 650 m 1,132,-1
 550 650 l 1,133,-1
 550 600 l 1,134,-1
 500 600 l 1,135,-1
 500 650 l 1,132,-1
400 650 m 1,136,-1
 450 650 l 1,137,-1
 450 600 l 1,138,-1
 400 600 l 1,139,-1
 400 650 l 1,136,-1
300 650 m 1,140,-1
 350 650 l 1,141,-1
 350 600 l 1,142,-1
 300 600 l 1,143,-1
 300 650 l 1,140,-1
200 650 m 1,144,-1
 250 650 l 1,145,-1
 250 600 l 1,146,-1
 200 600 l 1,147,-1
 200 650 l 1,144,-1
100 650 m 1,148,-1
 150 650 l 1,149,-1
 150 600 l 1,150,-1
 100 600 l 1,151,-1
 100 650 l 1,148,-1
0 650 m 1,152,-1
 50 650 l 1,153,-1
 50 600 l 1,154,-1
 0 600 l 1,155,-1
 0 650 l 1,152,-1
600 750 m 1,156,-1
 650 750 l 1,157,-1
 650 700 l 1,158,-1
 600 700 l 1,159,-1
 600 750 l 1,156,-1
500 750 m 1,160,-1
 550 750 l 1,161,-1
 550 700 l 1,162,-1
 500 700 l 1,163,-1
 500 750 l 1,160,-1
400 750 m 1,164,-1
 450 750 l 1,165,-1
 450 700 l 1,166,-1
 400 700 l 1,167,-1
 400 750 l 1,164,-1
300 750 m 1,168,-1
 350 750 l 1,169,-1
 350 700 l 1,170,-1
 300 700 l 1,171,-1
 300 750 l 1,168,-1
200 750 m 1,172,-1
 250 750 l 1,173,-1
 250 700 l 1,174,-1
 200 700 l 1,175,-1
 200 750 l 1,172,-1
100 750 m 1,176,-1
 150 750 l 1,177,-1
 150 700 l 1,178,-1
 100 700 l 1,179,-1
 100 750 l 1,176,-1
0 750 m 1,180,-1
 50 750 l 1,181,-1
 50 700 l 1,182,-1
 0 700 l 1,183,-1
 0 750 l 1,180,-1
100 850 m 1,184,-1
 150 850 l 1,185,-1
 150 800 l 1,186,-1
 100 800 l 1,187,-1
 100 850 l 1,184,-1
0 850 m 1,188,-1
 50 850 l 1,189,-1
 50 800 l 1,190,-1
 0 800 l 1,191,-1
 0 850 l 1,188,-1
700 950 m 1,192,-1
 750 950 l 1,193,-1
 750 900 l 1,194,-1
 700 900 l 1,195,-1
 700 950 l 1,192,-1
600 950 m 1,196,-1
 650 950 l 1,197,-1
 650 900 l 1,198,-1
 600 900 l 1,199,-1
 600 950 l 1,196,-1
100 950 m 1,200,-1
 150 950 l 1,201,-1
 150 900 l 1,202,-1
 100 900 l 1,203,-1
 100 950 l 1,200,-1
0 950 m 1,204,-1
 50 950 l 1,205,-1
 50 900 l 1,206,-1
 0 900 l 1,207,-1
 0 950 l 1,204,-1
700 1050 m 1,208,-1
 750 1050 l 1,209,-1
 750 1000 l 1,210,-1
 700 1000 l 1,211,-1
 700 1050 l 1,208,-1
600 1050 m 1,212,-1
 650 1050 l 1,213,-1
 650 1000 l 1,214,-1
 600 1000 l 1,215,-1
 600 1050 l 1,212,-1
500 1050 m 1,216,-1
 550 1050 l 1,217,-1
 550 1000 l 1,218,-1
 500 1000 l 1,219,-1
 500 1050 l 1,216,-1
400 1050 m 1,220,-1
 450 1050 l 1,221,-1
 450 1000 l 1,222,-1
 400 1000 l 1,223,-1
 400 1050 l 1,220,-1
300 1050 m 1,224,-1
 350 1050 l 1,225,-1
 350 1000 l 1,226,-1
 300 1000 l 1,227,-1
 300 1050 l 1,224,-1
200 1050 m 1,228,-1
 250 1050 l 1,229,-1
 250 1000 l 1,230,-1
 200 1000 l 1,231,-1
 200 1050 l 1,228,-1
100 1050 m 1,232,-1
 150 1050 l 1,233,-1
 150 1000 l 1,234,-1
 100 1000 l 1,235,-1
 100 1050 l 1,232,-1
0 1050 m 1,236,-1
 50 1050 l 1,237,-1
 50 1000 l 1,238,-1
 0 1000 l 1,239,-1
 0 1050 l 1,236,-1
600 1150 m 1,240,-1
 650 1150 l 1,241,-1
 650 1100 l 1,242,-1
 600 1100 l 1,243,-1
 600 1150 l 1,240,-1
500 1150 m 1,244,-1
 550 1150 l 1,245,-1
 550 1100 l 1,246,-1
 500 1100 l 1,247,-1
 500 1150 l 1,244,-1
400 1150 m 1,248,-1
 450 1150 l 1,249,-1
 450 1100 l 1,250,-1
 400 1100 l 1,251,-1
 400 1150 l 1,248,-1
300 1150 m 1,252,-1
 350 1150 l 1,253,-1
 350 1100 l 1,254,-1
 300 1100 l 1,255,-1
 300 1150 l 1,252,-1
200 1150 m 1,256,-1
 250 1150 l 1,257,-1
 250 1100 l 1,258,-1
 200 1100 l 1,259,-1
 200 1150 l 1,256,-1
EndSplineSet
EndChar

StartChar: seven
Encoding: 55 55 23
Width: 900
GlyphClass: 1
Flags: W
LayerCount: 2
Fore
SplineSet
0 1150 m 1,0,-1
 50 1150 l 1,1,-1
 50 1100 l 1,2,-1
 0 1100 l 1,3,-1
 0 1150 l 1,0,-1
700 50 m 1,4,-1
 750 50 l 1,5,-1
 750 0 l 1,6,-1
 700 0 l 1,7,-1
 700 50 l 1,4,-1
600 50 m 1,8,-1
 650 50 l 1,9,-1
 650 0 l 1,10,-1
 600 0 l 1,11,-1
 600 50 l 1,8,-1
700 150 m 1,12,-1
 750 150 l 1,13,-1
 750 100 l 1,14,-1
 700 100 l 1,15,-1
 700 150 l 1,12,-1
600 150 m 1,16,-1
 650 150 l 1,17,-1
 650 100 l 1,18,-1
 600 100 l 1,19,-1
 600 150 l 1,16,-1
700 250 m 1,20,-1
 750 250 l 1,21,-1
 750 200 l 1,22,-1
 700 200 l 1,23,-1
 700 250 l 1,20,-1
600 250 m 1,24,-1
 650 250 l 1,25,-1
 650 200 l 1,26,-1
 600 200 l 1,27,-1
 600 250 l 1,24,-1
700 350 m 1,28,-1
 750 350 l 1,29,-1
 750 300 l 1,30,-1
 700 300 l 1,31,-1
 700 350 l 1,28,-1
600 350 m 1,32,-1
 650 350 l 1,33,-1
 650 300 l 1,34,-1
 600 300 l 1,35,-1
 600 350 l 1,32,-1
700 450 m 1,36,-1
 750 450 l 1,37,-1
 750 400 l 1,38,-1
 700 400 l 1,39,-1
 700 450 l 1,36,-1
600 450 m 1,40,-1
 650 450 l 1,41,-1
 650 400 l 1,42,-1
 600 400 l 1,43,-1
 600 450 l 1,40,-1
700 550 m 1,44,-1
 750 550 l 1,45,-1
 750 500 l 1,46,-1
 700 500 l 1,47,-1
 700 550 l 1,44,-1
600 550 m 1,48,-1
 650 550 l 1,49,-1
 650 500 l 1,50,-1
 600 500 l 1,51,-1
 600 550 l 1,48,-1
700 650 m 1,52,-1
 750 650 l 1,53,-1
 750 600 l 1,54,-1
 700 600 l 1,55,-1
 700 650 l 1,52,-1
600 650 m 1,56,-1
 650 650 l 1,57,-1
 650 600 l 1,58,-1
 600 600 l 1,59,-1
 600 650 l 1,56,-1
700 750 m 1,60,-1
 750 750 l 1,61,-1
 750 700 l 1,62,-1
 700 700 l 1,63,-1
 700 750 l 1,60,-1
600 750 m 1,64,-1
 650 750 l 1,65,-1
 650 700 l 1,66,-1
 600 700 l 1,67,-1
 600 750 l 1,64,-1
700 850 m 1,68,-1
 750 850 l 1,69,-1
 750 800 l 1,70,-1
 700 800 l 1,71,-1
 700 850 l 1,68,-1
600 850 m 1,72,-1
 650 850 l 1,73,-1
 650 800 l 1,74,-1
 600 800 l 1,75,-1
 600 850 l 1,72,-1
700 950 m 1,76,-1
 750 950 l 1,77,-1
 750 900 l 1,78,-1
 700 900 l 1,79,-1
 700 950 l 1,76,-1
600 950 m 1,80,-1
 650 950 l 1,81,-1
 650 900 l 1,82,-1
 600 900 l 1,83,-1
 600 950 l 1,80,-1
100 950 m 1,84,-1
 150 950 l 1,85,-1
 150 900 l 1,86,-1
 100 900 l 1,87,-1
 100 950 l 1,84,-1
0 950 m 1,88,-1
 50 950 l 1,89,-1
 50 900 l 1,90,-1
 0 900 l 1,91,-1
 0 950 l 1,88,-1
700 1050 m 1,92,-1
 750 1050 l 1,93,-1
 750 1000 l 1,94,-1
 700 1000 l 1,95,-1
 700 1050 l 1,92,-1
600 1050 m 1,96,-1
 650 1050 l 1,97,-1
 650 1000 l 1,98,-1
 600 1000 l 1,99,-1
 600 1050 l 1,96,-1
500 1050 m 1,100,-1
 550 1050 l 1,101,-1
 550 1000 l 1,102,-1
 500 1000 l 1,103,-1
 500 1050 l 1,100,-1
400 1050 m 1,104,-1
 450 1050 l 1,105,-1
 450 1000 l 1,106,-1
 400 1000 l 1,107,-1
 400 1050 l 1,104,-1
300 1050 m 1,108,-1
 350 1050 l 1,109,-1
 350 1000 l 1,110,-1
 300 1000 l 1,111,-1
 300 1050 l 1,108,-1
200 1050 m 1,112,-1
 250 1050 l 1,113,-1
 250 1000 l 1,114,-1
 200 1000 l 1,115,-1
 200 1050 l 1,112,-1
100 1050 m 1,116,-1
 150 1050 l 1,117,-1
 150 1000 l 1,118,-1
 100 1000 l 1,119,-1
 100 1050 l 1,116,-1
0 1050 m 1,120,-1
 50 1050 l 1,121,-1
 50 1000 l 1,122,-1
 0 1000 l 1,123,-1
 0 1050 l 1,120,-1
700 1150 m 1,124,-1
 750 1150 l 1,125,-1
 750 1100 l 1,126,-1
 700 1100 l 1,127,-1
 700 1150 l 1,124,-1
600 1150 m 1,128,-1
 650 1150 l 1,129,-1
 650 1100 l 1,130,-1
 600 1100 l 1,131,-1
 600 1150 l 1,128,-1
500 1150 m 1,132,-1
 550 1150 l 1,133,-1
 550 1100 l 1,134,-1
 500 1100 l 1,135,-1
 500 1150 l 1,132,-1
400 1150 m 1,136,-1
 450 1150 l 1,137,-1
 450 1100 l 1,138,-1
 400 1100 l 1,139,-1
 400 1150 l 1,136,-1
300 1150 m 1,140,-1
 350 1150 l 1,141,-1
 350 1100 l 1,142,-1
 300 1100 l 1,143,-1
 300 1150 l 1,140,-1
200 1150 m 1,144,-1
 250 1150 l 1,145,-1
 250 1100 l 1,146,-1
 200 1100 l 1,147,-1
 200 1150 l 1,144,-1
100 1150 m 1,148,-1
 150 1150 l 1,149,-1
 150 1100 l 1,150,-1
 100 1100 l 1,151,-1
 100 1150 l 1,148,-1
EndSplineSet
EndChar

StartChar: eight
Encoding: 56 56 24
Width: 900
GlyphClass: 1
Flags: W
LayerCount: 2
Fore
SplineSet
100 1150 m 1,0,-1
 150 1150 l 1,1,-1
 150 1100 l 1,2,-1
 100 1100 l 1,3,-1
 100 1150 l 1,0,-1
600 50 m 1,4,-1
 650 50 l 1,5,-1
 650 0 l 1,6,-1
 600 0 l 1,7,-1
 600 50 l 1,4,-1
500 50 m 1,8,-1
 550 50 l 1,9,-1
 550 0 l 1,10,-1
 500 0 l 1,11,-1
 500 50 l 1,8,-1
400 50 m 1,12,-1
 450 50 l 1,13,-1
 450 0 l 1,14,-1
 400 0 l 1,15,-1
 400 50 l 1,12,-1
300 50 m 1,16,-1
 350 50 l 1,17,-1
 350 0 l 1,18,-1
 300 0 l 1,19,-1
 300 50 l 1,16,-1
200 50 m 1,20,-1
 250 50 l 1,21,-1
 250 0 l 1,22,-1
 200 0 l 1,23,-1
 200 50 l 1,20,-1
100 50 m 1,24,-1
 150 50 l 1,25,-1
 150 0 l 1,26,-1
 100 0 l 1,27,-1
 100 50 l 1,24,-1
700 150 m 1,28,-1
 750 150 l 1,29,-1
 750 100 l 1,30,-1
 700 100 l 1,31,-1
 700 150 l 1,28,-1
600 150 m 1,32,-1
 650 150 l 1,33,-1
 650 100 l 1,34,-1
 600 100 l 1,35,-1
 600 150 l 1,32,-1
500 150 m 1,36,-1
 550 150 l 1,37,-1
 550 100 l 1,38,-1
 500 100 l 1,39,-1
 500 150 l 1,36,-1
400 150 m 1,40,-1
 450 150 l 1,41,-1
 450 100 l 1,42,-1
 400 100 l 1,43,-1
 400 150 l 1,40,-1
300 150 m 1,44,-1
 350 150 l 1,45,-1
 350 100 l 1,46,-1
 300 100 l 1,47,-1
 300 150 l 1,44,-1
200 150 m 1,48,-1
 250 150 l 1,49,-1
 250 100 l 1,50,-1
 200 100 l 1,51,-1
 200 150 l 1,48,-1
100 150 m 1,52,-1
 150 150 l 1,53,-1
 150 100 l 1,54,-1
 100 100 l 1,55,-1
 100 150 l 1,52,-1
0 150 m 1,56,-1
 50 150 l 1,57,-1
 50 100 l 1,58,-1
 0 100 l 1,59,-1
 0 150 l 1,56,-1
700 250 m 1,60,-1
 750 250 l 1,61,-1
 750 200 l 1,62,-1
 700 200 l 1,63,-1
 700 250 l 1,60,-1
600 250 m 1,64,-1
 650 250 l 1,65,-1
 650 200 l 1,66,-1
 600 200 l 1,67,-1
 600 250 l 1,64,-1
100 250 m 1,68,-1
 150 250 l 1,69,-1
 150 200 l 1,70,-1
 100 200 l 1,71,-1
 100 250 l 1,68,-1
0 250 m 1,72,-1
 50 250 l 1,73,-1
 50 200 l 1,74,-1
 0 200 l 1,75,-1
 0 250 l 1,72,-1
700 350 m 1,76,-1
 750 350 l 1,77,-1
 750 300 l 1,78,-1
 700 300 l 1,79,-1
 700 350 l 1,76,-1
600 350 m 1,80,-1
 650 350 l 1,81,-1
 650 300 l 1,82,-1
 600 300 l 1,83,-1
 600 350 l 1,80,-1
100 350 m 1,84,-1
 150 350 l 1,85,-1
 150 300 l 1,86,-1
 100 300 l 1,87,-1
 100 350 l 1,84,-1
0 350 m 1,88,-1
 50 350 l 1,89,-1
 50 300 l 1,90,-1
 0 300 l 1,91,-1
 0 350 l 1,88,-1
700 450 m 1,92,-1
 750 450 l 1,93,-1
 750 400 l 1,94,-1
 700 400 l 1,95,-1
 700 450 l 1,92,-1
600 450 m 1,96,-1
 650 450 l 1,97,-1
 650 400 l 1,98,-1
 600 400 l 1,99,-1
 600 450 l 1,96,-1
100 450 m 1,100,-1
 150 450 l 1,101,-1
 150 400 l 1,102,-1
 100 400 l 1,103,-1
 100 450 l 1,100,-1
0 450 m 1,104,-1
 50 450 l 1,105,-1
 50 400 l 1,106,-1
 0 400 l 1,107,-1
 0 450 l 1,104,-1
600 550 m 1,108,-1
 650 550 l 1,109,-1
 650 500 l 1,110,-1
 600 500 l 1,111,-1
 600 550 l 1,108,-1
500 550 m 1,112,-1
 550 550 l 1,113,-1
 550 500 l 1,114,-1
 500 500 l 1,115,-1
 500 550 l 1,112,-1
400 550 m 1,116,-1
 450 550 l 1,117,-1
 450 500 l 1,118,-1
 400 500 l 1,119,-1
 400 550 l 1,116,-1
300 550 m 1,120,-1
 350 550 l 1,121,-1
 350 500 l 1,122,-1
 300 500 l 1,123,-1
 300 550 l 1,120,-1
200 550 m 1,124,-1
 250 550 l 1,125,-1
 250 500 l 1,126,-1
 200 500 l 1,127,-1
 200 550 l 1,124,-1
100 550 m 1,128,-1
 150 550 l 1,129,-1
 150 500 l 1,130,-1
 100 500 l 1,131,-1
 100 550 l 1,128,-1
600 650 m 1,132,-1
 650 650 l 1,133,-1
 650 600 l 1,134,-1
 600 600 l 1,135,-1
 600 650 l 1,132,-1
500 650 m 1,136,-1
 550 650 l 1,137,-1
 550 600 l 1,138,-1
 500 600 l 1,139,-1
 500 650 l 1,136,-1
400 650 m 1,140,-1
 450 650 l 1,141,-1
 450 600 l 1,142,-1
 400 600 l 1,143,-1
 400 650 l 1,140,-1
300 650 m 1,144,-1
 350 650 l 1,145,-1
 350 600 l 1,146,-1
 300 600 l 1,147,-1
 300 650 l 1,144,-1
200 650 m 1,148,-1
 250 650 l 1,149,-1
 250 600 l 1,150,-1
 200 600 l 1,151,-1
 200 650 l 1,148,-1
100 650 m 1,152,-1
 150 650 l 1,153,-1
 150 600 l 1,154,-1
 100 600 l 1,155,-1
 100 650 l 1,152,-1
700 750 m 1,156,-1
 750 750 l 1,157,-1
 750 700 l 1,158,-1
 700 700 l 1,159,-1
 700 750 l 1,156,-1
600 750 m 1,160,-1
 650 750 l 1,161,-1
 650 700 l 1,162,-1
 600 700 l 1,163,-1
 600 750 l 1,160,-1
100 750 m 1,164,-1
 150 750 l 1,165,-1
 150 700 l 1,166,-1
 100 700 l 1,167,-1
 100 750 l 1,164,-1
0 750 m 1,168,-1
 50 750 l 1,169,-1
 50 700 l 1,170,-1
 0 700 l 1,171,-1
 0 750 l 1,168,-1
700 850 m 1,172,-1
 750 850 l 1,173,-1
 750 800 l 1,174,-1
 700 800 l 1,175,-1
 700 850 l 1,172,-1
600 850 m 1,176,-1
 650 850 l 1,177,-1
 650 800 l 1,178,-1
 600 800 l 1,179,-1
 600 850 l 1,176,-1
100 850 m 1,180,-1
 150 850 l 1,181,-1
 150 800 l 1,182,-1
 100 800 l 1,183,-1
 100 850 l 1,180,-1
0 850 m 1,184,-1
 50 850 l 1,185,-1
 50 800 l 1,186,-1
 0 800 l 1,187,-1
 0 850 l 1,184,-1
700 950 m 1,188,-1
 750 950 l 1,189,-1
 750 900 l 1,190,-1
 700 900 l 1,191,-1
 700 950 l 1,188,-1
600 950 m 1,192,-1
 650 950 l 1,193,-1
 650 900 l 1,194,-1
 600 900 l 1,195,-1
 600 950 l 1,192,-1
100 950 m 1,196,-1
 150 950 l 1,197,-1
 150 900 l 1,198,-1
 100 900 l 1,199,-1
 100 950 l 1,196,-1
0 950 m 1,200,-1
 50 950 l 1,201,-1
 50 900 l 1,202,-1
 0 900 l 1,203,-1
 0 950 l 1,200,-1
700 1050 m 1,204,-1
 750 1050 l 1,205,-1
 750 1000 l 1,206,-1
 700 1000 l 1,207,-1
 700 1050 l 1,204,-1
600 1050 m 1,208,-1
 650 1050 l 1,209,-1
 650 1000 l 1,210,-1
 600 1000 l 1,211,-1
 600 1050 l 1,208,-1
500 1050 m 1,212,-1
 550 1050 l 1,213,-1
 550 1000 l 1,214,-1
 500 1000 l 1,215,-1
 500 1050 l 1,212,-1
400 1050 m 1,216,-1
 450 1050 l 1,217,-1
 450 1000 l 1,218,-1
 400 1000 l 1,219,-1
 400 1050 l 1,216,-1
300 1050 m 1,220,-1
 350 1050 l 1,221,-1
 350 1000 l 1,222,-1
 300 1000 l 1,223,-1
 300 1050 l 1,220,-1
200 1050 m 1,224,-1
 250 1050 l 1,225,-1
 250 1000 l 1,226,-1
 200 1000 l 1,227,-1
 200 1050 l 1,224,-1
100 1050 m 1,228,-1
 150 1050 l 1,229,-1
 150 1000 l 1,230,-1
 100 1000 l 1,231,-1
 100 1050 l 1,228,-1
0 1050 m 1,232,-1
 50 1050 l 1,233,-1
 50 1000 l 1,234,-1
 0 1000 l 1,235,-1
 0 1050 l 1,232,-1
600 1150 m 1,236,-1
 650 1150 l 1,237,-1
 650 1100 l 1,238,-1
 600 1100 l 1,239,-1
 600 1150 l 1,236,-1
500 1150 m 1,240,-1
 550 1150 l 1,241,-1
 550 1100 l 1,242,-1
 500 1100 l 1,243,-1
 500 1150 l 1,240,-1
400 1150 m 1,244,-1
 450 1150 l 1,245,-1
 450 1100 l 1,246,-1
 400 1100 l 1,247,-1
 400 1150 l 1,244,-1
300 1150 m 1,248,-1
 350 1150 l 1,249,-1
 350 1100 l 1,250,-1
 300 1100 l 1,251,-1
 300 1150 l 1,248,-1
200 1150 m 1,252,-1
 250 1150 l 1,253,-1
 250 1100 l 1,254,-1
 200 1100 l 1,255,-1
 200 1150 l 1,252,-1
EndSplineSet
EndChar

StartChar: nine
Encoding: 57 57 25
Width: 900
GlyphClass: 1
Flags: W
LayerCount: 2
Fore
SplineSet
100 1150 m 1,0,-1
 150 1150 l 1,1,-1
 150 1100 l 1,2,-1
 100 1100 l 1,3,-1
 100 1150 l 1,0,-1
600 50 m 1,4,-1
 650 50 l 1,5,-1
 650 0 l 1,6,-1
 600 0 l 1,7,-1
 600 50 l 1,4,-1
500 50 m 1,8,-1
 550 50 l 1,9,-1
 550 0 l 1,10,-1
 500 0 l 1,11,-1
 500 50 l 1,8,-1
400 50 m 1,12,-1
 450 50 l 1,13,-1
 450 0 l 1,14,-1
 400 0 l 1,15,-1
 400 50 l 1,12,-1
300 50 m 1,16,-1
 350 50 l 1,17,-1
 350 0 l 1,18,-1
 300 0 l 1,19,-1
 300 50 l 1,16,-1
200 50 m 1,20,-1
 250 50 l 1,21,-1
 250 0 l 1,22,-1
 200 0 l 1,23,-1
 200 50 l 1,20,-1
100 50 m 1,24,-1
 150 50 l 1,25,-1
 150 0 l 1,26,-1
 100 0 l 1,27,-1
 100 50 l 1,24,-1
700 150 m 1,28,-1
 750 150 l 1,29,-1
 750 100 l 1,30,-1
 700 100 l 1,31,-1
 700 150 l 1,28,-1
600 150 m 1,32,-1
 650 150 l 1,33,-1
 650 100 l 1,34,-1
 600 100 l 1,35,-1
 600 150 l 1,32,-1
500 150 m 1,36,-1
 550 150 l 1,37,-1
 550 100 l 1,38,-1
 500 100 l 1,39,-1
 500 150 l 1,36,-1
400 150 m 1,40,-1
 450 150 l 1,41,-1
 450 100 l 1,42,-1
 400 100 l 1,43,-1
 400 150 l 1,40,-1
300 150 m 1,44,-1
 350 150 l 1,45,-1
 350 100 l 1,46,-1
 300 100 l 1,47,-1
 300 150 l 1,44,-1
200 150 m 1,48,-1
 250 150 l 1,49,-1
 250 100 l 1,50,-1
 200 100 l 1,51,-1
 200 150 l 1,48,-1
100 150 m 1,52,-1
 150 150 l 1,53,-1
 150 100 l 1,54,-1
 100 100 l 1,55,-1
 100 150 l 1,52,-1
0 150 m 1,56,-1
 50 150 l 1,57,-1
 50 100 l 1,58,-1
 0 100 l 1,59,-1
 0 150 l 1,56,-1
700 250 m 1,60,-1
 750 250 l 1,61,-1
 750 200 l 1,62,-1
 700 200 l 1,63,-1
 700 250 l 1,60,-1
600 250 m 1,64,-1
 650 250 l 1,65,-1
 650 200 l 1,66,-1
 600 200 l 1,67,-1
 600 250 l 1,64,-1
100 250 m 1,68,-1
 150 250 l 1,69,-1
 150 200 l 1,70,-1
 100 200 l 1,71,-1
 100 250 l 1,68,-1
0 250 m 1,72,-1
 50 250 l 1,73,-1
 50 200 l 1,74,-1
 0 200 l 1,75,-1
 0 250 l 1,72,-1
700 350 m 1,76,-1
 750 350 l 1,77,-1
 750 300 l 1,78,-1
 700 300 l 1,79,-1
 700 350 l 1,76,-1
600 350 m 1,80,-1
 650 350 l 1,81,-1
 650 300 l 1,82,-1
 600 300 l 1,83,-1
 600 350 l 1,80,-1
700 450 m 1,84,-1
 750 450 l 1,85,-1
 750 400 l 1,86,-1
 700 400 l 1,87,-1
 700 450 l 1,84,-1
600 450 m 1,88,-1
 650 450 l 1,89,-1
 650 400 l 1,90,-1
 600 400 l 1,91,-1
 600 450 l 1,88,-1
500 450 m 1,92,-1
 550 450 l 1,93,-1
 550 400 l 1,94,-1
 500 400 l 1,95,-1
 500 450 l 1,92,-1
400 450 m 1,96,-1
 450 450 l 1,97,-1
 450 400 l 1,98,-1
 400 400 l 1,99,-1
 400 450 l 1,96,-1
300 450 m 1,100,-1
 350 450 l 1,101,-1
 350 400 l 1,102,-1
 300 400 l 1,103,-1
 300 450 l 1,100,-1
200 450 m 1,104,-1
 250 450 l 1,105,-1
 250 400 l 1,106,-1
 200 400 l 1,107,-1
 200 450 l 1,104,-1
100 450 m 1,108,-1
 150 450 l 1,109,-1
 150 400 l 1,110,-1
 100 400 l 1,111,-1
 100 450 l 1,108,-1
700 550 m 1,112,-1
 750 550 l 1,113,-1
 750 500 l 1,114,-1
 700 500 l 1,115,-1
 700 550 l 1,112,-1
600 550 m 1,116,-1
 650 550 l 1,117,-1
 650 500 l 1,118,-1
 600 500 l 1,119,-1
 600 550 l 1,116,-1
500 550 m 1,120,-1
 550 550 l 1,121,-1
 550 500 l 1,122,-1
 500 500 l 1,123,-1
 500 550 l 1,120,-1
400 550 m 1,124,-1
 450 550 l 1,125,-1
 450 500 l 1,126,-1
 400 500 l 1,127,-1
 400 550 l 1,124,-1
300 550 m 1,128,-1
 350 550 l 1,129,-1
 350 500 l 1,130,-1
 300 500 l 1,131,-1
 300 550 l 1,128,-1
200 550 m 1,132,-1
 250 550 l 1,133,-1
 250 500 l 1,134,-1
 200 500 l 1,135,-1
 200 550 l 1,132,-1
100 550 m 1,136,-1
 150 550 l 1,137,-1
 150 500 l 1,138,-1
 100 500 l 1,139,-1
 100 550 l 1,136,-1
0 550 m 1,140,-1
 50 550 l 1,141,-1
 50 500 l 1,142,-1
 0 500 l 1,143,-1
 0 550 l 1,140,-1
700 650 m 1,144,-1
 750 650 l 1,145,-1
 750 600 l 1,146,-1
 700 600 l 1,147,-1
 700 650 l 1,144,-1
600 650 m 1,148,-1
 650 650 l 1,149,-1
 650 600 l 1,150,-1
 600 600 l 1,151,-1
 600 650 l 1,148,-1
100 650 m 1,152,-1
 150 650 l 1,153,-1
 150 600 l 1,154,-1
 100 600 l 1,155,-1
 100 650 l 1,152,-1
0 650 m 1,156,-1
 50 650 l 1,157,-1
 50 600 l 1,158,-1
 0 600 l 1,159,-1
 0 650 l 1,156,-1
700 750 m 1,160,-1
 750 750 l 1,161,-1
 750 700 l 1,162,-1
 700 700 l 1,163,-1
 700 750 l 1,160,-1
600 750 m 1,164,-1
 650 750 l 1,165,-1
 650 700 l 1,166,-1
 600 700 l 1,167,-1
 600 750 l 1,164,-1
100 750 m 1,168,-1
 150 750 l 1,169,-1
 150 700 l 1,170,-1
 100 700 l 1,171,-1
 100 750 l 1,168,-1
0 750 m 1,172,-1
 50 750 l 1,173,-1
 50 700 l 1,174,-1
 0 700 l 1,175,-1
 0 750 l 1,172,-1
700 850 m 1,176,-1
 750 850 l 1,177,-1
 750 800 l 1,178,-1
 700 800 l 1,179,-1
 700 850 l 1,176,-1
600 850 m 1,180,-1
 650 850 l 1,181,-1
 650 800 l 1,182,-1
 600 800 l 1,183,-1
 600 850 l 1,180,-1
100 850 m 1,184,-1
 150 850 l 1,185,-1
 150 800 l 1,186,-1
 100 800 l 1,187,-1
 100 850 l 1,184,-1
0 850 m 1,188,-1
 50 850 l 1,189,-1
 50 800 l 1,190,-1
 0 800 l 1,191,-1
 0 850 l 1,188,-1
700 950 m 1,192,-1
 750 950 l 1,193,-1
 750 900 l 1,194,-1
 700 900 l 1,195,-1
 700 950 l 1,192,-1
600 950 m 1,196,-1
 650 950 l 1,197,-1
 650 900 l 1,198,-1
 600 900 l 1,199,-1
 600 950 l 1,196,-1
100 950 m 1,200,-1
 150 950 l 1,201,-1
 150 900 l 1,202,-1
 100 900 l 1,203,-1
 100 950 l 1,200,-1
0 950 m 1,204,-1
 50 950 l 1,205,-1
 50 900 l 1,206,-1
 0 900 l 1,207,-1
 0 950 l 1,204,-1
700 1050 m 1,208,-1
 750 1050 l 1,209,-1
 750 1000 l 1,210,-1
 700 1000 l 1,211,-1
 700 1050 l 1,208,-1
600 1050 m 1,212,-1
 650 1050 l 1,213,-1
 650 1000 l 1,214,-1
 600 1000 l 1,215,-1
 600 1050 l 1,212,-1
500 1050 m 1,216,-1
 550 1050 l 1,217,-1
 550 1000 l 1,218,-1
 500 1000 l 1,219,-1
 500 1050 l 1,216,-1
400 1050 m 1,220,-1
 450 1050 l 1,221,-1
 450 1000 l 1,222,-1
 400 1000 l 1,223,-1
 400 1050 l 1,220,-1
300 1050 m 1,224,-1
 350 1050 l 1,225,-1
 350 1000 l 1,226,-1
 300 1000 l 1,227,-1
 300 1050 l 1,224,-1
200 1050 m 1,228,-1
 250 1050 l 1,229,-1
 250 1000 l 1,230,-1
 200 1000 l 1,231,-1
 200 1050 l 1,228,-1
100 1050 m 1,232,-1
 150 1050 l 1,233,-1
 150 1000 l 1,234,-1
 100 1000 l 1,235,-1
 100 1050 l 1,232,-1
0 1050 m 1,236,-1
 50 1050 l 1,237,-1
 50 1000 l 1,238,-1
 0 1000 l 1,239,-1
 0 1050 l 1,236,-1
600 1150 m 1,240,-1
 650 1150 l 1,241,-1
 650 1100 l 1,242,-1
 600 1100 l 1,243,-1
 600 1150 l 1,240,-1
500 1150 m 1,244,-1
 550 1150 l 1,245,-1
 550 1100 l 1,246,-1
 500 1100 l 1,247,-1
 500 1150 l 1,244,-1
400 1150 m 1,248,-1
 450 1150 l 1,249,-1
 450 1100 l 1,250,-1
 400 1100 l 1,251,-1
 400 1150 l 1,248,-1
300 1150 m 1,252,-1
 350 1150 l 1,253,-1
 350 1100 l 1,254,-1
 300 1100 l 1,255,-1
 300 1150 l 1,252,-1
200 1150 m 1,256,-1
 250 1150 l 1,257,-1
 250 1100 l 1,258,-1
 200 1100 l 1,259,-1
 200 1150 l 1,256,-1
EndSplineSet
EndChar

StartChar: colon
Encoding: 58 58 26
Width: 300
GlyphClass: 1
Flags: W
LayerCount: 2
Fore
SplineSet
0 850 m 1,0,-1
 50 850 l 1,1,-1
 50 800 l 1,2,-1
 0 800 l 1,3,-1
 0 850 l 1,0,-1
100 350 m 1,4,-1
 150 350 l 1,5,-1
 150 300 l 1,6,-1
 100 300 l 1,7,-1
 100 350 l 1,4,-1
0 350 m 1,8,-1
 50 350 l 1,9,-1
 50 300 l 1,10,-1
 0 300 l 1,11,-1
 0 350 l 1,8,-1
100 450 m 1,12,-1
 150 450 l 1,13,-1
 150 400 l 1,14,-1
 100 400 l 1,15,-1
 100 450 l 1,12,-1
0 450 m 1,16,-1
 50 450 l 1,17,-1
 50 400 l 1,18,-1
 0 400 l 1,19,-1
 0 450 l 1,16,-1
100 750 m 1,20,-1
 150 750 l 1,21,-1
 150 700 l 1,22,-1
 100 700 l 1,23,-1
 100 750 l 1,20,-1
0 750 m 1,24,-1
 50 750 l 1,25,-1
 50 700 l 1,26,-1
 0 700 l 1,27,-1
 0 750 l 1,24,-1
100 850 m 1,28,-1
 150 850 l 1,29,-1
 150 800 l 1,30,-1
 100 800 l 1,31,-1
 100 850 l 1,28,-1
EndSplineSet
EndChar

StartChar: semicolon
Encoding: 59 59 27
Width: 400
GlyphClass: 1
Flags: W
LayerCount: 2
Fore
SplineSet
0 850 m 1,0,-1
 50 850 l 1,1,-1
 50 800 l 1,2,-1
 0 800 l 1,3,-1
 0 850 l 1,0,-1
200 -50 m 1,4,-1
 250 -50 l 1,5,-1
 250 -100 l 1,6,-1
 200 -100 l 1,7,-1
 200 -50 l 1,4,-1
100 -50 m 1,8,-1
 150 -50 l 1,9,-1
 150 -100 l 1,10,-1
 100 -100 l 1,11,-1
 100 -50 l 1,8,-1
200 50 m 1,12,-1
 250 50 l 1,13,-1
 250 0 l 1,14,-1
 200 0 l 1,15,-1
 200 50 l 1,12,-1
100 50 m 1,16,-1
 150 50 l 1,17,-1
 150 0 l 1,18,-1
 100 0 l 1,19,-1
 100 50 l 1,16,-1
0 50 m 1,20,-1
 50 50 l 1,21,-1
 50 0 l 1,22,-1
 0 0 l 1,23,-1
 0 50 l 1,20,-1
100 150 m 1,24,-1
 150 150 l 1,25,-1
 150 100 l 1,26,-1
 100 100 l 1,27,-1
 100 150 l 1,24,-1
0 150 m 1,28,-1
 50 150 l 1,29,-1
 50 100 l 1,30,-1
 0 100 l 1,31,-1
 0 150 l 1,28,-1
100 750 m 1,32,-1
 150 750 l 1,33,-1
 150 700 l 1,34,-1
 100 700 l 1,35,-1
 100 750 l 1,32,-1
0 750 m 1,36,-1
 50 750 l 1,37,-1
 50 700 l 1,38,-1
 0 700 l 1,39,-1
 0 750 l 1,36,-1
100 850 m 1,40,-1
 150 850 l 1,41,-1
 150 800 l 1,42,-1
 100 800 l 1,43,-1
 100 850 l 1,40,-1
EndSplineSet
EndChar

StartChar: less
Encoding: 60 60 28
Width: 600
GlyphClass: 1
Flags: W
LayerCount: 2
Fore
SplineSet
300 850 m 1,0,-1
 350 850 l 1,1,-1
 350 800 l 1,2,-1
 300 800 l 1,3,-1
 300 850 l 1,0,-1
400 250 m 1,4,-1
 450 250 l 1,5,-1
 450 200 l 1,6,-1
 400 200 l 1,7,-1
 400 250 l 1,4,-1
300 250 m 1,8,-1
 350 250 l 1,9,-1
 350 200 l 1,10,-1
 300 200 l 1,11,-1
 300 250 l 1,8,-1
300 350 m 1,12,-1
 350 350 l 1,13,-1
 350 300 l 1,14,-1
 300 300 l 1,15,-1
 300 350 l 1,12,-1
200 350 m 1,16,-1
 250 350 l 1,17,-1
 250 300 l 1,18,-1
 200 300 l 1,19,-1
 200 350 l 1,16,-1
200 450 m 1,20,-1
 250 450 l 1,21,-1
 250 400 l 1,22,-1
 200 400 l 1,23,-1
 200 450 l 1,20,-1
100 450 m 1,24,-1
 150 450 l 1,25,-1
 150 400 l 1,26,-1
 100 400 l 1,27,-1
 100 450 l 1,24,-1
100 550 m 1,28,-1
 150 550 l 1,29,-1
 150 500 l 1,30,-1
 100 500 l 1,31,-1
 100 550 l 1,28,-1
0 550 m 1,32,-1
 50 550 l 1,33,-1
 50 500 l 1,34,-1
 0 500 l 1,35,-1
 0 550 l 1,32,-1
200 650 m 1,36,-1
 250 650 l 1,37,-1
 250 600 l 1,38,-1
 200 600 l 1,39,-1
 200 650 l 1,36,-1
100 650 m 1,40,-1
 150 650 l 1,41,-1
 150 600 l 1,42,-1
 100 600 l 1,43,-1
 100 650 l 1,40,-1
300 750 m 1,44,-1
 350 750 l 1,45,-1
 350 700 l 1,46,-1
 300 700 l 1,47,-1
 300 750 l 1,44,-1
200 750 m 1,48,-1
 250 750 l 1,49,-1
 250 700 l 1,50,-1
 200 700 l 1,51,-1
 200 750 l 1,48,-1
400 850 m 1,52,-1
 450 850 l 1,53,-1
 450 800 l 1,54,-1
 400 800 l 1,55,-1
 400 850 l 1,52,-1
EndSplineSet
EndChar

StartChar: equal
Encoding: 61 61 29
Width: 700
GlyphClass: 1
Flags: W
LayerCount: 2
Fore
SplineSet
0 750 m 1,0,-1
 50 750 l 1,1,-1
 50 700 l 1,2,-1
 0 700 l 1,3,-1
 0 750 l 1,0,-1
500 350 m 1,4,-1
 550 350 l 1,5,-1
 550 300 l 1,6,-1
 500 300 l 1,7,-1
 500 350 l 1,4,-1
400 350 m 1,8,-1
 450 350 l 1,9,-1
 450 300 l 1,10,-1
 400 300 l 1,11,-1
 400 350 l 1,8,-1
300 350 m 1,12,-1
 350 350 l 1,13,-1
 350 300 l 1,14,-1
 300 300 l 1,15,-1
 300 350 l 1,12,-1
200 350 m 1,16,-1
 250 350 l 1,17,-1
 250 300 l 1,18,-1
 200 300 l 1,19,-1
 200 350 l 1,16,-1
100 350 m 1,20,-1
 150 350 l 1,21,-1
 150 300 l 1,22,-1
 100 300 l 1,23,-1
 100 350 l 1,20,-1
0 350 m 1,24,-1
 50 350 l 1,25,-1
 50 300 l 1,26,-1
 0 300 l 1,27,-1
 0 350 l 1,24,-1
500 450 m 1,28,-1
 550 450 l 1,29,-1
 550 400 l 1,30,-1
 500 400 l 1,31,-1
 500 450 l 1,28,-1
400 450 m 1,32,-1
 450 450 l 1,33,-1
 450 400 l 1,34,-1
 400 400 l 1,35,-1
 400 450 l 1,32,-1
300 450 m 1,36,-1
 350 450 l 1,37,-1
 350 400 l 1,38,-1
 300 400 l 1,39,-1
 300 450 l 1,36,-1
200 450 m 1,40,-1
 250 450 l 1,41,-1
 250 400 l 1,42,-1
 200 400 l 1,43,-1
 200 450 l 1,40,-1
100 450 m 1,44,-1
 150 450 l 1,45,-1
 150 400 l 1,46,-1
 100 400 l 1,47,-1
 100 450 l 1,44,-1
0 450 m 1,48,-1
 50 450 l 1,49,-1
 50 400 l 1,50,-1
 0 400 l 1,51,-1
 0 450 l 1,48,-1
500 650 m 1,52,-1
 550 650 l 1,53,-1
 550 600 l 1,54,-1
 500 600 l 1,55,-1
 500 650 l 1,52,-1
400 650 m 1,56,-1
 450 650 l 1,57,-1
 450 600 l 1,58,-1
 400 600 l 1,59,-1
 400 650 l 1,56,-1
300 650 m 1,60,-1
 350 650 l 1,61,-1
 350 600 l 1,62,-1
 300 600 l 1,63,-1
 300 650 l 1,60,-1
200 650 m 1,64,-1
 250 650 l 1,65,-1
 250 600 l 1,66,-1
 200 600 l 1,67,-1
 200 650 l 1,64,-1
100 650 m 1,68,-1
 150 650 l 1,69,-1
 150 600 l 1,70,-1
 100 600 l 1,71,-1
 100 650 l 1,68,-1
0 650 m 1,72,-1
 50 650 l 1,73,-1
 50 600 l 1,74,-1
 0 600 l 1,75,-1
 0 650 l 1,72,-1
500 750 m 1,76,-1
 550 750 l 1,77,-1
 550 700 l 1,78,-1
 500 700 l 1,79,-1
 500 750 l 1,76,-1
400 750 m 1,80,-1
 450 750 l 1,81,-1
 450 700 l 1,82,-1
 400 700 l 1,83,-1
 400 750 l 1,80,-1
300 750 m 1,84,-1
 350 750 l 1,85,-1
 350 700 l 1,86,-1
 300 700 l 1,87,-1
 300 750 l 1,84,-1
200 750 m 1,88,-1
 250 750 l 1,89,-1
 250 700 l 1,90,-1
 200 700 l 1,91,-1
 200 750 l 1,88,-1
100 750 m 1,92,-1
 150 750 l 1,93,-1
 150 700 l 1,94,-1
 100 700 l 1,95,-1
 100 750 l 1,92,-1
EndSplineSet
EndChar

StartChar: greater
Encoding: 62 62 30
Width: 550
GlyphClass: 1
Flags: W
LayerCount: 2
Fore
SplineSet
0 850 m 1,0,-1
 50 850 l 1,1,-1
 50 800 l 1,2,-1
 0 800 l 1,3,-1
 0 850 l 1,0,-1
100 250 m 1,4,-1
 150 250 l 1,5,-1
 150 200 l 1,6,-1
 100 200 l 1,7,-1
 100 250 l 1,4,-1
0 250 m 1,8,-1
 50 250 l 1,9,-1
 50 200 l 1,10,-1
 0 200 l 1,11,-1
 0 250 l 1,8,-1
200 350 m 1,12,-1
 250 350 l 1,13,-1
 250 300 l 1,14,-1
 200 300 l 1,15,-1
 200 350 l 1,12,-1
100 350 m 1,16,-1
 150 350 l 1,17,-1
 150 300 l 1,18,-1
 100 300 l 1,19,-1
 100 350 l 1,16,-1
300 450 m 1,20,-1
 350 450 l 1,21,-1
 350 400 l 1,22,-1
 300 400 l 1,23,-1
 300 450 l 1,20,-1
200 450 m 1,24,-1
 250 450 l 1,25,-1
 250 400 l 1,26,-1
 200 400 l 1,27,-1
 200 450 l 1,24,-1
400 550 m 1,28,-1
 450 550 l 1,29,-1
 450 500 l 1,30,-1
 400 500 l 1,31,-1
 400 550 l 1,28,-1
300 550 m 1,32,-1
 350 550 l 1,33,-1
 350 500 l 1,34,-1
 300 500 l 1,35,-1
 300 550 l 1,32,-1
300 650 m 1,36,-1
 350 650 l 1,37,-1
 350 600 l 1,38,-1
 300 600 l 1,39,-1
 300 650 l 1,36,-1
200 650 m 1,40,-1
 250 650 l 1,41,-1
 250 600 l 1,42,-1
 200 600 l 1,43,-1
 200 650 l 1,40,-1
200 750 m 1,44,-1
 250 750 l 1,45,-1
 250 700 l 1,46,-1
 200 700 l 1,47,-1
 200 750 l 1,44,-1
100 750 m 1,48,-1
 150 750 l 1,49,-1
 150 700 l 1,50,-1
 100 700 l 1,51,-1
 100 750 l 1,48,-1
100 850 m 1,52,-1
 150 850 l 1,53,-1
 150 800 l 1,54,-1
 100 800 l 1,55,-1
 100 850 l 1,52,-1
EndSplineSet
EndChar

StartChar: question
Encoding: 63 63 31
Width: 900
GlyphClass: 1
Flags: W
LayerCount: 2
Fore
SplineSet
100 1150 m 1,0,-1
 150 1150 l 1,1,-1
 150 1100 l 1,2,-1
 100 1100 l 1,3,-1
 100 1150 l 1,0,-1
400 50 m 1,4,-1
 450 50 l 1,5,-1
 450 0 l 1,6,-1
 400 0 l 1,7,-1
 400 50 l 1,4,-1
300 50 m 1,8,-1
 350 50 l 1,9,-1
 350 0 l 1,10,-1
 300 0 l 1,11,-1
 300 50 l 1,8,-1
400 150 m 1,12,-1
 450 150 l 1,13,-1
 450 100 l 1,14,-1
 400 100 l 1,15,-1
 400 150 l 1,12,-1
300 150 m 1,16,-1
 350 150 l 1,17,-1
 350 100 l 1,18,-1
 300 100 l 1,19,-1
 300 150 l 1,16,-1
400 350 m 1,20,-1
 450 350 l 1,21,-1
 450 300 l 1,22,-1
 400 300 l 1,23,-1
 400 350 l 1,20,-1
300 350 m 1,24,-1
 350 350 l 1,25,-1
 350 300 l 1,26,-1
 300 300 l 1,27,-1
 300 350 l 1,24,-1
400 450 m 1,28,-1
 450 450 l 1,29,-1
 450 400 l 1,30,-1
 400 400 l 1,31,-1
 400 450 l 1,28,-1
300 450 m 1,32,-1
 350 450 l 1,33,-1
 350 400 l 1,34,-1
 300 400 l 1,35,-1
 300 450 l 1,32,-1
600 550 m 1,36,-1
 650 550 l 1,37,-1
 650 500 l 1,38,-1
 600 500 l 1,39,-1
 600 550 l 1,36,-1
500 550 m 1,40,-1
 550 550 l 1,41,-1
 550 500 l 1,42,-1
 500 500 l 1,43,-1
 500 550 l 1,40,-1
400 550 m 1,44,-1
 450 550 l 1,45,-1
 450 500 l 1,46,-1
 400 500 l 1,47,-1
 400 550 l 1,44,-1
300 550 m 1,48,-1
 350 550 l 1,49,-1
 350 500 l 1,50,-1
 300 500 l 1,51,-1
 300 550 l 1,48,-1
700 650 m 1,52,-1
 750 650 l 1,53,-1
 750 600 l 1,54,-1
 700 600 l 1,55,-1
 700 650 l 1,52,-1
600 650 m 1,56,-1
 650 650 l 1,57,-1
 650 600 l 1,58,-1
 600 600 l 1,59,-1
 600 650 l 1,56,-1
500 650 m 1,60,-1
 550 650 l 1,61,-1
 550 600 l 1,62,-1
 500 600 l 1,63,-1
 500 650 l 1,60,-1
400 650 m 1,64,-1
 450 650 l 1,65,-1
 450 600 l 1,66,-1
 400 600 l 1,67,-1
 400 650 l 1,64,-1
700 750 m 1,68,-1
 750 750 l 1,69,-1
 750 700 l 1,70,-1
 700 700 l 1,71,-1
 700 750 l 1,68,-1
600 750 m 1,72,-1
 650 750 l 1,73,-1
 650 700 l 1,74,-1
 600 700 l 1,75,-1
 600 750 l 1,72,-1
700 850 m 1,76,-1
 750 850 l 1,77,-1
 750 800 l 1,78,-1
 700 800 l 1,79,-1
 700 850 l 1,76,-1
600 850 m 1,80,-1
 650 850 l 1,81,-1
 650 800 l 1,82,-1
 600 800 l 1,83,-1
 600 850 l 1,80,-1
100 850 m 1,84,-1
 150 850 l 1,85,-1
 150 800 l 1,86,-1
 100 800 l 1,87,-1
 100 850 l 1,84,-1
0 850 m 1,88,-1
 50 850 l 1,89,-1
 50 800 l 1,90,-1
 0 800 l 1,91,-1
 0 850 l 1,88,-1
700 950 m 1,92,-1
 750 950 l 1,93,-1
 750 900 l 1,94,-1
 700 900 l 1,95,-1
 700 950 l 1,92,-1
600 950 m 1,96,-1
 650 950 l 1,97,-1
 650 900 l 1,98,-1
 600 900 l 1,99,-1
 600 950 l 1,96,-1
100 950 m 1,100,-1
 150 950 l 1,101,-1
 150 900 l 1,102,-1
 100 900 l 1,103,-1
 100 950 l 1,100,-1
0 950 m 1,104,-1
 50 950 l 1,105,-1
 50 900 l 1,106,-1
 0 900 l 1,107,-1
 0 950 l 1,104,-1
700 1050 m 1,108,-1
 750 1050 l 1,109,-1
 750 1000 l 1,110,-1
 700 1000 l 1,111,-1
 700 1050 l 1,108,-1
600 1050 m 1,112,-1
 650 1050 l 1,113,-1
 650 1000 l 1,114,-1
 600 1000 l 1,115,-1
 600 1050 l 1,112,-1
500 1050 m 1,116,-1
 550 1050 l 1,117,-1
 550 1000 l 1,118,-1
 500 1000 l 1,119,-1
 500 1050 l 1,116,-1
400 1050 m 1,120,-1
 450 1050 l 1,121,-1
 450 1000 l 1,122,-1
 400 1000 l 1,123,-1
 400 1050 l 1,120,-1
300 1050 m 1,124,-1
 350 1050 l 1,125,-1
 350 1000 l 1,126,-1
 300 1000 l 1,127,-1
 300 1050 l 1,124,-1
200 1050 m 1,128,-1
 250 1050 l 1,129,-1
 250 1000 l 1,130,-1
 200 1000 l 1,131,-1
 200 1050 l 1,128,-1
100 1050 m 1,132,-1
 150 1050 l 1,133,-1
 150 1000 l 1,134,-1
 100 1000 l 1,135,-1
 100 1050 l 1,132,-1
0 1050 m 1,136,-1
 50 1050 l 1,137,-1
 50 1000 l 1,138,-1
 0 1000 l 1,139,-1
 0 1050 l 1,136,-1
600 1150 m 1,140,-1
 650 1150 l 1,141,-1
 650 1100 l 1,142,-1
 600 1100 l 1,143,-1
 600 1150 l 1,140,-1
500 1150 m 1,144,-1
 550 1150 l 1,145,-1
 550 1100 l 1,146,-1
 500 1100 l 1,147,-1
 500 1150 l 1,144,-1
400 1150 m 1,148,-1
 450 1150 l 1,149,-1
 450 1100 l 1,150,-1
 400 1100 l 1,151,-1
 400 1150 l 1,148,-1
300 1150 m 1,152,-1
 350 1150 l 1,153,-1
 350 1100 l 1,154,-1
 300 1100 l 1,155,-1
 300 1150 l 1,152,-1
200 1150 m 1,156,-1
 250 1150 l 1,157,-1
 250 1100 l 1,158,-1
 200 1100 l 1,159,-1
 200 1150 l 1,156,-1
EndSplineSet
EndChar

StartChar: at
Encoding: 64 64 32
Width: 900
GlyphClass: 1
Flags: W
LayerCount: 2
Fore
SplineSet
100 1150 m 1,0,-1
 150 1150 l 1,1,-1
 150 1100 l 1,2,-1
 100 1100 l 1,3,-1
 100 1150 l 1,0,-1
600 50 m 1,4,-1
 650 50 l 1,5,-1
 650 0 l 1,6,-1
 600 0 l 1,7,-1
 600 50 l 1,4,-1
500 50 m 1,8,-1
 550 50 l 1,9,-1
 550 0 l 1,10,-1
 500 0 l 1,11,-1
 500 50 l 1,8,-1
400 50 m 1,12,-1
 450 50 l 1,13,-1
 450 0 l 1,14,-1
 400 0 l 1,15,-1
 400 50 l 1,12,-1
300 50 m 1,16,-1
 350 50 l 1,17,-1
 350 0 l 1,18,-1
 300 0 l 1,19,-1
 300 50 l 1,16,-1
200 50 m 1,20,-1
 250 50 l 1,21,-1
 250 0 l 1,22,-1
 200 0 l 1,23,-1
 200 50 l 1,20,-1
100 50 m 1,24,-1
 150 50 l 1,25,-1
 150 0 l 1,26,-1
 100 0 l 1,27,-1
 100 50 l 1,24,-1
600 150 m 1,28,-1
 650 150 l 1,29,-1
 650 100 l 1,30,-1
 600 100 l 1,31,-1
 600 150 l 1,28,-1
500 150 m 1,32,-1
 550 150 l 1,33,-1
 550 100 l 1,34,-1
 500 100 l 1,35,-1
 500 150 l 1,32,-1
400 150 m 1,36,-1
 450 150 l 1,37,-1
 450 100 l 1,38,-1
 400 100 l 1,39,-1
 400 150 l 1,36,-1
300 150 m 1,40,-1
 350 150 l 1,41,-1
 350 100 l 1,42,-1
 300 100 l 1,43,-1
 300 150 l 1,40,-1
200 150 m 1,44,-1
 250 150 l 1,45,-1
 250 100 l 1,46,-1
 200 100 l 1,47,-1
 200 150 l 1,44,-1
100 150 m 1,48,-1
 150 150 l 1,49,-1
 150 100 l 1,50,-1
 100 100 l 1,51,-1
 100 150 l 1,48,-1
0 150 m 1,52,-1
 50 150 l 1,53,-1
 50 100 l 1,54,-1
 0 100 l 1,55,-1
 0 150 l 1,52,-1
100 250 m 1,56,-1
 150 250 l 1,57,-1
 150 200 l 1,58,-1
 100 200 l 1,59,-1
 100 250 l 1,56,-1
0 250 m 1,60,-1
 50 250 l 1,61,-1
 50 200 l 1,62,-1
 0 200 l 1,63,-1
 0 250 l 1,60,-1
700 350 m 1,64,-1
 750 350 l 1,65,-1
 750 300 l 1,66,-1
 700 300 l 1,67,-1
 700 350 l 1,64,-1
600 350 m 1,68,-1
 650 350 l 1,69,-1
 650 300 l 1,70,-1
 600 300 l 1,71,-1
 600 350 l 1,68,-1
500 350 m 1,72,-1
 550 350 l 1,73,-1
 550 300 l 1,74,-1
 500 300 l 1,75,-1
 500 350 l 1,72,-1
400 350 m 1,76,-1
 450 350 l 1,77,-1
 450 300 l 1,78,-1
 400 300 l 1,79,-1
 400 350 l 1,76,-1
300 350 m 1,80,-1
 350 350 l 1,81,-1
 350 300 l 1,82,-1
 300 300 l 1,83,-1
 300 350 l 1,80,-1
100 350 m 1,84,-1
 150 350 l 1,85,-1
 150 300 l 1,86,-1
 100 300 l 1,87,-1
 100 350 l 1,84,-1
0 350 m 1,88,-1
 50 350 l 1,89,-1
 50 300 l 1,90,-1
 0 300 l 1,91,-1
 0 350 l 1,88,-1
700 450 m 1,92,-1
 750 450 l 1,93,-1
 750 400 l 1,94,-1
 700 400 l 1,95,-1
 700 450 l 1,92,-1
600 450 m 1,96,-1
 650 450 l 1,97,-1
 650 400 l 1,98,-1
 600 400 l 1,99,-1
 600 450 l 1,96,-1
500 450 m 1,100,-1
 550 450 l 1,101,-1
 550 400 l 1,102,-1
 500 400 l 1,103,-1
 500 450 l 1,100,-1
400 450 m 1,104,-1
 450 450 l 1,105,-1
 450 400 l 1,106,-1
 400 400 l 1,107,-1
 400 450 l 1,104,-1
300 450 m 1,108,-1
 350 450 l 1,109,-1
 350 400 l 1,110,-1
 300 400 l 1,111,-1
 300 450 l 1,108,-1
100 450 m 1,112,-1
 150 450 l 1,113,-1
 150 400 l 1,114,-1
 100 400 l 1,115,-1
 100 450 l 1,112,-1
0 450 m 1,116,-1
 50 450 l 1,117,-1
 50 400 l 1,118,-1
 0 400 l 1,119,-1
 0 450 l 1,116,-1
700 550 m 1,120,-1
 750 550 l 1,121,-1
 750 500 l 1,122,-1
 700 500 l 1,123,-1
 700 550 l 1,120,-1
600 550 m 1,124,-1
 650 550 l 1,125,-1
 650 500 l 1,126,-1
 600 500 l 1,127,-1
 600 550 l 1,124,-1
400 550 m 1,128,-1
 450 550 l 1,129,-1
 450 500 l 1,130,-1
 400 500 l 1,131,-1
 400 550 l 1,128,-1
300 550 m 1,132,-1
 350 550 l 1,133,-1
 350 500 l 1,134,-1
 300 500 l 1,135,-1
 300 550 l 1,132,-1
100 550 m 1,136,-1
 150 550 l 1,137,-1
 150 500 l 1,138,-1
 100 500 l 1,139,-1
 100 550 l 1,136,-1
0 550 m 1,140,-1
 50 550 l 1,141,-1
 50 500 l 1,142,-1
 0 500 l 1,143,-1
 0 550 l 1,140,-1
700 650 m 1,144,-1
 750 650 l 1,145,-1
 750 600 l 1,146,-1
 700 600 l 1,147,-1
 700 650 l 1,144,-1
600 650 m 1,148,-1
 650 650 l 1,149,-1
 650 600 l 1,150,-1
 600 600 l 1,151,-1
 600 650 l 1,148,-1
400 650 m 1,152,-1
 450 650 l 1,153,-1
 450 600 l 1,154,-1
 400 600 l 1,155,-1
 400 650 l 1,152,-1
300 650 m 1,156,-1
 350 650 l 1,157,-1
 350 600 l 1,158,-1
 300 600 l 1,159,-1
 300 650 l 1,156,-1
100 650 m 1,160,-1
 150 650 l 1,161,-1
 150 600 l 1,162,-1
 100 600 l 1,163,-1
 100 650 l 1,160,-1
0 650 m 1,164,-1
 50 650 l 1,165,-1
 50 600 l 1,166,-1
 0 600 l 1,167,-1
 0 650 l 1,164,-1
700 750 m 1,168,-1
 750 750 l 1,169,-1
 750 700 l 1,170,-1
 700 700 l 1,171,-1
 700 750 l 1,168,-1
600 750 m 1,172,-1
 650 750 l 1,173,-1
 650 700 l 1,174,-1
 600 700 l 1,175,-1
 600 750 l 1,172,-1
500 750 m 1,176,-1
 550 750 l 1,177,-1
 550 700 l 1,178,-1
 500 700 l 1,179,-1
 500 750 l 1,176,-1
400 750 m 1,180,-1
 450 750 l 1,181,-1
 450 700 l 1,182,-1
 400 700 l 1,183,-1
 400 750 l 1,180,-1
300 750 m 1,184,-1
 350 750 l 1,185,-1
 350 700 l 1,186,-1
 300 700 l 1,187,-1
 300 750 l 1,184,-1
100 750 m 1,188,-1
 150 750 l 1,189,-1
 150 700 l 1,190,-1
 100 700 l 1,191,-1
 100 750 l 1,188,-1
0 750 m 1,192,-1
 50 750 l 1,193,-1
 50 700 l 1,194,-1
 0 700 l 1,195,-1
 0 750 l 1,192,-1
700 850 m 1,196,-1
 750 850 l 1,197,-1
 750 800 l 1,198,-1
 700 800 l 1,199,-1
 700 850 l 1,196,-1
600 850 m 1,200,-1
 650 850 l 1,201,-1
 650 800 l 1,202,-1
 600 800 l 1,203,-1
 600 850 l 1,200,-1
500 850 m 1,204,-1
 550 850 l 1,205,-1
 550 800 l 1,206,-1
 500 800 l 1,207,-1
 500 850 l 1,204,-1
400 850 m 1,208,-1
 450 850 l 1,209,-1
 450 800 l 1,210,-1
 400 800 l 1,211,-1
 400 850 l 1,208,-1
300 850 m 1,212,-1
 350 850 l 1,213,-1
 350 800 l 1,214,-1
 300 800 l 1,215,-1
 300 850 l 1,212,-1
100 850 m 1,216,-1
 150 850 l 1,217,-1
 150 800 l 1,218,-1
 100 800 l 1,219,-1
 100 850 l 1,216,-1
0 850 m 1,220,-1
 50 850 l 1,221,-1
 50 800 l 1,222,-1
 0 800 l 1,223,-1
 0 850 l 1,220,-1
700 950 m 1,224,-1
 750 950 l 1,225,-1
 750 900 l 1,226,-1
 700 900 l 1,227,-1
 700 950 l 1,224,-1
600 950 m 1,228,-1
 650 950 l 1,229,-1
 650 900 l 1,230,-1
 600 900 l 1,231,-1
 600 950 l 1,228,-1
100 950 m 1,232,-1
 150 950 l 1,233,-1
 150 900 l 1,234,-1
 100 900 l 1,235,-1
 100 950 l 1,232,-1
0 950 m 1,236,-1
 50 950 l 1,237,-1
 50 900 l 1,238,-1
 0 900 l 1,239,-1
 0 950 l 1,236,-1
700 1050 m 1,240,-1
 750 1050 l 1,241,-1
 750 1000 l 1,242,-1
 700 1000 l 1,243,-1
 700 1050 l 1,240,-1
600 1050 m 1,244,-1
 650 1050 l 1,245,-1
 650 1000 l 1,246,-1
 600 1000 l 1,247,-1
 600 1050 l 1,244,-1
500 1050 m 1,248,-1
 550 1050 l 1,249,-1
 550 1000 l 1,250,-1
 500 1000 l 1,251,-1
 500 1050 l 1,248,-1
400 1050 m 1,252,-1
 450 1050 l 1,253,-1
 450 1000 l 1,254,-1
 400 1000 l 1,255,-1
 400 1050 l 1,252,-1
300 1050 m 1,256,-1
 350 1050 l 1,257,-1
 350 1000 l 1,258,-1
 300 1000 l 1,259,-1
 300 1050 l 1,256,-1
200 1050 m 1,260,-1
 250 1050 l 1,261,-1
 250 1000 l 1,262,-1
 200 1000 l 1,263,-1
 200 1050 l 1,260,-1
100 1050 m 1,264,-1
 150 1050 l 1,265,-1
 150 1000 l 1,266,-1
 100 1000 l 1,267,-1
 100 1050 l 1,264,-1
0 1050 m 1,268,-1
 50 1050 l 1,269,-1
 50 1000 l 1,270,-1
 0 1000 l 1,271,-1
 0 1050 l 1,268,-1
600 1150 m 1,272,-1
 650 1150 l 1,273,-1
 650 1100 l 1,274,-1
 600 1100 l 1,275,-1
 600 1150 l 1,272,-1
500 1150 m 1,276,-1
 550 1150 l 1,277,-1
 550 1100 l 1,278,-1
 500 1100 l 1,279,-1
 500 1150 l 1,276,-1
400 1150 m 1,280,-1
 450 1150 l 1,281,-1
 450 1100 l 1,282,-1
 400 1100 l 1,283,-1
 400 1150 l 1,280,-1
300 1150 m 1,284,-1
 350 1150 l 1,285,-1
 350 1100 l 1,286,-1
 300 1100 l 1,287,-1
 300 1150 l 1,284,-1
200 1150 m 1,288,-1
 250 1150 l 1,289,-1
 250 1100 l 1,290,-1
 200 1100 l 1,291,-1
 200 1150 l 1,288,-1
EndSplineSet
EndChar

StartChar: A
Encoding: 65 65 33
Width: 900
GlyphClass: 1
Flags: W
LayerCount: 2
Fore
SplineSet
100 1150 m 1,0,-1
 150 1150 l 1,1,-1
 150 1100 l 1,2,-1
 100 1100 l 1,3,-1
 100 1150 l 1,0,-1
700 50 m 1,4,-1
 750 50 l 1,5,-1
 750 0 l 1,6,-1
 700 0 l 1,7,-1
 700 50 l 1,4,-1
600 50 m 1,8,-1
 650 50 l 1,9,-1
 650 0 l 1,10,-1
 600 0 l 1,11,-1
 600 50 l 1,8,-1
100 50 m 1,12,-1
 150 50 l 1,13,-1
 150 0 l 1,14,-1
 100 0 l 1,15,-1
 100 50 l 1,12,-1
0 50 m 1,16,-1
 50 50 l 1,17,-1
 50 0 l 1,18,-1
 0 0 l 1,19,-1
 0 50 l 1,16,-1
700 150 m 1,20,-1
 750 150 l 1,21,-1
 750 100 l 1,22,-1
 700 100 l 1,23,-1
 700 150 l 1,20,-1
600 150 m 1,24,-1
 650 150 l 1,25,-1
 650 100 l 1,26,-1
 600 100 l 1,27,-1
 600 150 l 1,24,-1
100 150 m 1,28,-1
 150 150 l 1,29,-1
 150 100 l 1,30,-1
 100 100 l 1,31,-1
 100 150 l 1,28,-1
0 150 m 1,32,-1
 50 150 l 1,33,-1
 50 100 l 1,34,-1
 0 100 l 1,35,-1
 0 150 l 1,32,-1
700 250 m 1,36,-1
 750 250 l 1,37,-1
 750 200 l 1,38,-1
 700 200 l 1,39,-1
 700 250 l 1,36,-1
600 250 m 1,40,-1
 650 250 l 1,41,-1
 650 200 l 1,42,-1
 600 200 l 1,43,-1
 600 250 l 1,40,-1
100 250 m 1,44,-1
 150 250 l 1,45,-1
 150 200 l 1,46,-1
 100 200 l 1,47,-1
 100 250 l 1,44,-1
0 250 m 1,48,-1
 50 250 l 1,49,-1
 50 200 l 1,50,-1
 0 200 l 1,51,-1
 0 250 l 1,48,-1
700 350 m 1,52,-1
 750 350 l 1,53,-1
 750 300 l 1,54,-1
 700 300 l 1,55,-1
 700 350 l 1,52,-1
600 350 m 1,56,-1
 650 350 l 1,57,-1
 650 300 l 1,58,-1
 600 300 l 1,59,-1
 600 350 l 1,56,-1
100 350 m 1,60,-1
 150 350 l 1,61,-1
 150 300 l 1,62,-1
 100 300 l 1,63,-1
 100 350 l 1,60,-1
0 350 m 1,64,-1
 50 350 l 1,65,-1
 50 300 l 1,66,-1
 0 300 l 1,67,-1
 0 350 l 1,64,-1
700 450 m 1,68,-1
 750 450 l 1,69,-1
 750 400 l 1,70,-1
 700 400 l 1,71,-1
 700 450 l 1,68,-1
600 450 m 1,72,-1
 650 450 l 1,73,-1
 650 400 l 1,74,-1
 600 400 l 1,75,-1
 600 450 l 1,72,-1
500 450 m 1,76,-1
 550 450 l 1,77,-1
 550 400 l 1,78,-1
 500 400 l 1,79,-1
 500 450 l 1,76,-1
400 450 m 1,80,-1
 450 450 l 1,81,-1
 450 400 l 1,82,-1
 400 400 l 1,83,-1
 400 450 l 1,80,-1
300 450 m 1,84,-1
 350 450 l 1,85,-1
 350 400 l 1,86,-1
 300 400 l 1,87,-1
 300 450 l 1,84,-1
200 450 m 1,88,-1
 250 450 l 1,89,-1
 250 400 l 1,90,-1
 200 400 l 1,91,-1
 200 450 l 1,88,-1
100 450 m 1,92,-1
 150 450 l 1,93,-1
 150 400 l 1,94,-1
 100 400 l 1,95,-1
 100 450 l 1,92,-1
0 450 m 1,96,-1
 50 450 l 1,97,-1
 50 400 l 1,98,-1
 0 400 l 1,99,-1
 0 450 l 1,96,-1
700 550 m 1,100,-1
 750 550 l 1,101,-1
 750 500 l 1,102,-1
 700 500 l 1,103,-1
 700 550 l 1,100,-1
600 550 m 1,104,-1
 650 550 l 1,105,-1
 650 500 l 1,106,-1
 600 500 l 1,107,-1
 600 550 l 1,104,-1
500 550 m 1,108,-1
 550 550 l 1,109,-1
 550 500 l 1,110,-1
 500 500 l 1,111,-1
 500 550 l 1,108,-1
400 550 m 1,112,-1
 450 550 l 1,113,-1
 450 500 l 1,114,-1
 400 500 l 1,115,-1
 400 550 l 1,112,-1
300 550 m 1,116,-1
 350 550 l 1,117,-1
 350 500 l 1,118,-1
 300 500 l 1,119,-1
 300 550 l 1,116,-1
200 550 m 1,120,-1
 250 550 l 1,121,-1
 250 500 l 1,122,-1
 200 500 l 1,123,-1
 200 550 l 1,120,-1
100 550 m 1,124,-1
 150 550 l 1,125,-1
 150 500 l 1,126,-1
 100 500 l 1,127,-1
 100 550 l 1,124,-1
0 550 m 1,128,-1
 50 550 l 1,129,-1
 50 500 l 1,130,-1
 0 500 l 1,131,-1
 0 550 l 1,128,-1
700 650 m 1,132,-1
 750 650 l 1,133,-1
 750 600 l 1,134,-1
 700 600 l 1,135,-1
 700 650 l 1,132,-1
600 650 m 1,136,-1
 650 650 l 1,137,-1
 650 600 l 1,138,-1
 600 600 l 1,139,-1
 600 650 l 1,136,-1
100 650 m 1,140,-1
 150 650 l 1,141,-1
 150 600 l 1,142,-1
 100 600 l 1,143,-1
 100 650 l 1,140,-1
0 650 m 1,144,-1
 50 650 l 1,145,-1
 50 600 l 1,146,-1
 0 600 l 1,147,-1
 0 650 l 1,144,-1
700 750 m 1,148,-1
 750 750 l 1,149,-1
 750 700 l 1,150,-1
 700 700 l 1,151,-1
 700 750 l 1,148,-1
600 750 m 1,152,-1
 650 750 l 1,153,-1
 650 700 l 1,154,-1
 600 700 l 1,155,-1
 600 750 l 1,152,-1
100 750 m 1,156,-1
 150 750 l 1,157,-1
 150 700 l 1,158,-1
 100 700 l 1,159,-1
 100 750 l 1,156,-1
0 750 m 1,160,-1
 50 750 l 1,161,-1
 50 700 l 1,162,-1
 0 700 l 1,163,-1
 0 750 l 1,160,-1
700 850 m 1,164,-1
 750 850 l 1,165,-1
 750 800 l 1,166,-1
 700 800 l 1,167,-1
 700 850 l 1,164,-1
600 850 m 1,168,-1
 650 850 l 1,169,-1
 650 800 l 1,170,-1
 600 800 l 1,171,-1
 600 850 l 1,168,-1
100 850 m 1,172,-1
 150 850 l 1,173,-1
 150 800 l 1,174,-1
 100 800 l 1,175,-1
 100 850 l 1,172,-1
0 850 m 1,176,-1
 50 850 l 1,177,-1
 50 800 l 1,178,-1
 0 800 l 1,179,-1
 0 850 l 1,176,-1
700 950 m 1,180,-1
 750 950 l 1,181,-1
 750 900 l 1,182,-1
 700 900 l 1,183,-1
 700 950 l 1,180,-1
600 950 m 1,184,-1
 650 950 l 1,185,-1
 650 900 l 1,186,-1
 600 900 l 1,187,-1
 600 950 l 1,184,-1
100 950 m 1,188,-1
 150 950 l 1,189,-1
 150 900 l 1,190,-1
 100 900 l 1,191,-1
 100 950 l 1,188,-1
0 950 m 1,192,-1
 50 950 l 1,193,-1
 50 900 l 1,194,-1
 0 900 l 1,195,-1
 0 950 l 1,192,-1
700 1050 m 1,196,-1
 750 1050 l 1,197,-1
 750 1000 l 1,198,-1
 700 1000 l 1,199,-1
 700 1050 l 1,196,-1
600 1050 m 1,200,-1
 650 1050 l 1,201,-1
 650 1000 l 1,202,-1
 600 1000 l 1,203,-1
 600 1050 l 1,200,-1
500 1050 m 1,204,-1
 550 1050 l 1,205,-1
 550 1000 l 1,206,-1
 500 1000 l 1,207,-1
 500 1050 l 1,204,-1
400 1050 m 1,208,-1
 450 1050 l 1,209,-1
 450 1000 l 1,210,-1
 400 1000 l 1,211,-1
 400 1050 l 1,208,-1
300 1050 m 1,212,-1
 350 1050 l 1,213,-1
 350 1000 l 1,214,-1
 300 1000 l 1,215,-1
 300 1050 l 1,212,-1
200 1050 m 1,216,-1
 250 1050 l 1,217,-1
 250 1000 l 1,218,-1
 200 1000 l 1,219,-1
 200 1050 l 1,216,-1
100 1050 m 1,220,-1
 150 1050 l 1,221,-1
 150 1000 l 1,222,-1
 100 1000 l 1,223,-1
 100 1050 l 1,220,-1
0 1050 m 1,224,-1
 50 1050 l 1,225,-1
 50 1000 l 1,226,-1
 0 1000 l 1,227,-1
 0 1050 l 1,224,-1
600 1150 m 1,228,-1
 650 1150 l 1,229,-1
 650 1100 l 1,230,-1
 600 1100 l 1,231,-1
 600 1150 l 1,228,-1
500 1150 m 1,232,-1
 550 1150 l 1,233,-1
 550 1100 l 1,234,-1
 500 1100 l 1,235,-1
 500 1150 l 1,232,-1
400 1150 m 1,236,-1
 450 1150 l 1,237,-1
 450 1100 l 1,238,-1
 400 1100 l 1,239,-1
 400 1150 l 1,236,-1
300 1150 m 1,240,-1
 350 1150 l 1,241,-1
 350 1100 l 1,242,-1
 300 1100 l 1,243,-1
 300 1150 l 1,240,-1
200 1150 m 1,244,-1
 250 1150 l 1,245,-1
 250 1100 l 1,246,-1
 200 1100 l 1,247,-1
 200 1150 l 1,244,-1
EndSplineSet
EndChar

StartChar: B
Encoding: 66 66 34
Width: 900
GlyphClass: 1
Flags: W
LayerCount: 2
Fore
SplineSet
0 1150 m 1,0,-1
 50 1150 l 1,1,-1
 50 1100 l 1,2,-1
 0 1100 l 1,3,-1
 0 1150 l 1,0,-1
600 50 m 1,4,-1
 650 50 l 1,5,-1
 650 0 l 1,6,-1
 600 0 l 1,7,-1
 600 50 l 1,4,-1
500 50 m 1,8,-1
 550 50 l 1,9,-1
 550 0 l 1,10,-1
 500 0 l 1,11,-1
 500 50 l 1,8,-1
400 50 m 1,12,-1
 450 50 l 1,13,-1
 450 0 l 1,14,-1
 400 0 l 1,15,-1
 400 50 l 1,12,-1
300 50 m 1,16,-1
 350 50 l 1,17,-1
 350 0 l 1,18,-1
 300 0 l 1,19,-1
 300 50 l 1,16,-1
200 50 m 1,20,-1
 250 50 l 1,21,-1
 250 0 l 1,22,-1
 200 0 l 1,23,-1
 200 50 l 1,20,-1
100 50 m 1,24,-1
 150 50 l 1,25,-1
 150 0 l 1,26,-1
 100 0 l 1,27,-1
 100 50 l 1,24,-1
0 50 m 1,28,-1
 50 50 l 1,29,-1
 50 0 l 1,30,-1
 0 0 l 1,31,-1
 0 50 l 1,28,-1
700 150 m 1,32,-1
 750 150 l 1,33,-1
 750 100 l 1,34,-1
 700 100 l 1,35,-1
 700 150 l 1,32,-1
600 150 m 1,36,-1
 650 150 l 1,37,-1
 650 100 l 1,38,-1
 600 100 l 1,39,-1
 600 150 l 1,36,-1
500 150 m 1,40,-1
 550 150 l 1,41,-1
 550 100 l 1,42,-1
 500 100 l 1,43,-1
 500 150 l 1,40,-1
400 150 m 1,44,-1
 450 150 l 1,45,-1
 450 100 l 1,46,-1
 400 100 l 1,47,-1
 400 150 l 1,44,-1
300 150 m 1,48,-1
 350 150 l 1,49,-1
 350 100 l 1,50,-1
 300 100 l 1,51,-1
 300 150 l 1,48,-1
200 150 m 1,52,-1
 250 150 l 1,53,-1
 250 100 l 1,54,-1
 200 100 l 1,55,-1
 200 150 l 1,52,-1
100 150 m 1,56,-1
 150 150 l 1,57,-1
 150 100 l 1,58,-1
 100 100 l 1,59,-1
 100 150 l 1,56,-1
0 150 m 1,60,-1
 50 150 l 1,61,-1
 50 100 l 1,62,-1
 0 100 l 1,63,-1
 0 150 l 1,60,-1
700 250 m 1,64,-1
 750 250 l 1,65,-1
 750 200 l 1,66,-1
 700 200 l 1,67,-1
 700 250 l 1,64,-1
600 250 m 1,68,-1
 650 250 l 1,69,-1
 650 200 l 1,70,-1
 600 200 l 1,71,-1
 600 250 l 1,68,-1
100 250 m 1,72,-1
 150 250 l 1,73,-1
 150 200 l 1,74,-1
 100 200 l 1,75,-1
 100 250 l 1,72,-1
0 250 m 1,76,-1
 50 250 l 1,77,-1
 50 200 l 1,78,-1
 0 200 l 1,79,-1
 0 250 l 1,76,-1
700 350 m 1,80,-1
 750 350 l 1,81,-1
 750 300 l 1,82,-1
 700 300 l 1,83,-1
 700 350 l 1,80,-1
600 350 m 1,84,-1
 650 350 l 1,85,-1
 650 300 l 1,86,-1
 600 300 l 1,87,-1
 600 350 l 1,84,-1
100 350 m 1,88,-1
 150 350 l 1,89,-1
 150 300 l 1,90,-1
 100 300 l 1,91,-1
 100 350 l 1,88,-1
0 350 m 1,92,-1
 50 350 l 1,93,-1
 50 300 l 1,94,-1
 0 300 l 1,95,-1
 0 350 l 1,92,-1
700 450 m 1,96,-1
 750 450 l 1,97,-1
 750 400 l 1,98,-1
 700 400 l 1,99,-1
 700 450 l 1,96,-1
600 450 m 1,100,-1
 650 450 l 1,101,-1
 650 400 l 1,102,-1
 600 400 l 1,103,-1
 600 450 l 1,100,-1
100 450 m 1,104,-1
 150 450 l 1,105,-1
 150 400 l 1,106,-1
 100 400 l 1,107,-1
 100 450 l 1,104,-1
0 450 m 1,108,-1
 50 450 l 1,109,-1
 50 400 l 1,110,-1
 0 400 l 1,111,-1
 0 450 l 1,108,-1
600 550 m 1,112,-1
 650 550 l 1,113,-1
 650 500 l 1,114,-1
 600 500 l 1,115,-1
 600 550 l 1,112,-1
500 550 m 1,116,-1
 550 550 l 1,117,-1
 550 500 l 1,118,-1
 500 500 l 1,119,-1
 500 550 l 1,116,-1
400 550 m 1,120,-1
 450 550 l 1,121,-1
 450 500 l 1,122,-1
 400 500 l 1,123,-1
 400 550 l 1,120,-1
300 550 m 1,124,-1
 350 550 l 1,125,-1
 350 500 l 1,126,-1
 300 500 l 1,127,-1
 300 550 l 1,124,-1
200 550 m 1,128,-1
 250 550 l 1,129,-1
 250 500 l 1,130,-1
 200 500 l 1,131,-1
 200 550 l 1,128,-1
100 550 m 1,132,-1
 150 550 l 1,133,-1
 150 500 l 1,134,-1
 100 500 l 1,135,-1
 100 550 l 1,132,-1
0 550 m 1,136,-1
 50 550 l 1,137,-1
 50 500 l 1,138,-1
 0 500 l 1,139,-1
 0 550 l 1,136,-1
600 650 m 1,140,-1
 650 650 l 1,141,-1
 650 600 l 1,142,-1
 600 600 l 1,143,-1
 600 650 l 1,140,-1
500 650 m 1,144,-1
 550 650 l 1,145,-1
 550 600 l 1,146,-1
 500 600 l 1,147,-1
 500 650 l 1,144,-1
400 650 m 1,148,-1
 450 650 l 1,149,-1
 450 600 l 1,150,-1
 400 600 l 1,151,-1
 400 650 l 1,148,-1
300 650 m 1,152,-1
 350 650 l 1,153,-1
 350 600 l 1,154,-1
 300 600 l 1,155,-1
 300 650 l 1,152,-1
200 650 m 1,156,-1
 250 650 l 1,157,-1
 250 600 l 1,158,-1
 200 600 l 1,159,-1
 200 650 l 1,156,-1
100 650 m 1,160,-1
 150 650 l 1,161,-1
 150 600 l 1,162,-1
 100 600 l 1,163,-1
 100 650 l 1,160,-1
0 650 m 1,164,-1
 50 650 l 1,165,-1
 50 600 l 1,166,-1
 0 600 l 1,167,-1
 0 650 l 1,164,-1
700 750 m 1,168,-1
 750 750 l 1,169,-1
 750 700 l 1,170,-1
 700 700 l 1,171,-1
 700 750 l 1,168,-1
600 750 m 1,172,-1
 650 750 l 1,173,-1
 650 700 l 1,174,-1
 600 700 l 1,175,-1
 600 750 l 1,172,-1
100 750 m 1,176,-1
 150 750 l 1,177,-1
 150 700 l 1,178,-1
 100 700 l 1,179,-1
 100 750 l 1,176,-1
0 750 m 1,180,-1
 50 750 l 1,181,-1
 50 700 l 1,182,-1
 0 700 l 1,183,-1
 0 750 l 1,180,-1
700 850 m 1,184,-1
 750 850 l 1,185,-1
 750 800 l 1,186,-1
 700 800 l 1,187,-1
 700 850 l 1,184,-1
600 850 m 1,188,-1
 650 850 l 1,189,-1
 650 800 l 1,190,-1
 600 800 l 1,191,-1
 600 850 l 1,188,-1
100 850 m 1,192,-1
 150 850 l 1,193,-1
 150 800 l 1,194,-1
 100 800 l 1,195,-1
 100 850 l 1,192,-1
0 850 m 1,196,-1
 50 850 l 1,197,-1
 50 800 l 1,198,-1
 0 800 l 1,199,-1
 0 850 l 1,196,-1
700 950 m 1,200,-1
 750 950 l 1,201,-1
 750 900 l 1,202,-1
 700 900 l 1,203,-1
 700 950 l 1,200,-1
600 950 m 1,204,-1
 650 950 l 1,205,-1
 650 900 l 1,206,-1
 600 900 l 1,207,-1
 600 950 l 1,204,-1
100 950 m 1,208,-1
 150 950 l 1,209,-1
 150 900 l 1,210,-1
 100 900 l 1,211,-1
 100 950 l 1,208,-1
0 950 m 1,212,-1
 50 950 l 1,213,-1
 50 900 l 1,214,-1
 0 900 l 1,215,-1
 0 950 l 1,212,-1
700 1050 m 1,216,-1
 750 1050 l 1,217,-1
 750 1000 l 1,218,-1
 700 1000 l 1,219,-1
 700 1050 l 1,216,-1
600 1050 m 1,220,-1
 650 1050 l 1,221,-1
 650 1000 l 1,222,-1
 600 1000 l 1,223,-1
 600 1050 l 1,220,-1
500 1050 m 1,224,-1
 550 1050 l 1,225,-1
 550 1000 l 1,226,-1
 500 1000 l 1,227,-1
 500 1050 l 1,224,-1
400 1050 m 1,228,-1
 450 1050 l 1,229,-1
 450 1000 l 1,230,-1
 400 1000 l 1,231,-1
 400 1050 l 1,228,-1
300 1050 m 1,232,-1
 350 1050 l 1,233,-1
 350 1000 l 1,234,-1
 300 1000 l 1,235,-1
 300 1050 l 1,232,-1
200 1050 m 1,236,-1
 250 1050 l 1,237,-1
 250 1000 l 1,238,-1
 200 1000 l 1,239,-1
 200 1050 l 1,236,-1
100 1050 m 1,240,-1
 150 1050 l 1,241,-1
 150 1000 l 1,242,-1
 100 1000 l 1,243,-1
 100 1050 l 1,240,-1
0 1050 m 1,244,-1
 50 1050 l 1,245,-1
 50 1000 l 1,246,-1
 0 1000 l 1,247,-1
 0 1050 l 1,244,-1
600 1150 m 1,248,-1
 650 1150 l 1,249,-1
 650 1100 l 1,250,-1
 600 1100 l 1,251,-1
 600 1150 l 1,248,-1
500 1150 m 1,252,-1
 550 1150 l 1,253,-1
 550 1100 l 1,254,-1
 500 1100 l 1,255,-1
 500 1150 l 1,252,-1
400 1150 m 1,256,-1
 450 1150 l 1,257,-1
 450 1100 l 1,258,-1
 400 1100 l 1,259,-1
 400 1150 l 1,256,-1
300 1150 m 1,260,-1
 350 1150 l 1,261,-1
 350 1100 l 1,262,-1
 300 1100 l 1,263,-1
 300 1150 l 1,260,-1
200 1150 m 1,264,-1
 250 1150 l 1,265,-1
 250 1100 l 1,266,-1
 200 1100 l 1,267,-1
 200 1150 l 1,264,-1
100 1150 m 1,268,-1
 150 1150 l 1,269,-1
 150 1100 l 1,270,-1
 100 1100 l 1,271,-1
 100 1150 l 1,268,-1
EndSplineSet
EndChar

StartChar: C
Encoding: 67 67 35
Width: 900
GlyphClass: 1
Flags: W
LayerCount: 2
Fore
SplineSet
100 1150 m 1,0,-1
 150 1150 l 1,1,-1
 150 1100 l 1,2,-1
 100 1100 l 1,3,-1
 100 1150 l 1,0,-1
600 50 m 1,4,-1
 650 50 l 1,5,-1
 650 0 l 1,6,-1
 600 0 l 1,7,-1
 600 50 l 1,4,-1
500 50 m 1,8,-1
 550 50 l 1,9,-1
 550 0 l 1,10,-1
 500 0 l 1,11,-1
 500 50 l 1,8,-1
400 50 m 1,12,-1
 450 50 l 1,13,-1
 450 0 l 1,14,-1
 400 0 l 1,15,-1
 400 50 l 1,12,-1
300 50 m 1,16,-1
 350 50 l 1,17,-1
 350 0 l 1,18,-1
 300 0 l 1,19,-1
 300 50 l 1,16,-1
200 50 m 1,20,-1
 250 50 l 1,21,-1
 250 0 l 1,22,-1
 200 0 l 1,23,-1
 200 50 l 1,20,-1
100 50 m 1,24,-1
 150 50 l 1,25,-1
 150 0 l 1,26,-1
 100 0 l 1,27,-1
 100 50 l 1,24,-1
700 150 m 1,28,-1
 750 150 l 1,29,-1
 750 100 l 1,30,-1
 700 100 l 1,31,-1
 700 150 l 1,28,-1
600 150 m 1,32,-1
 650 150 l 1,33,-1
 650 100 l 1,34,-1
 600 100 l 1,35,-1
 600 150 l 1,32,-1
500 150 m 1,36,-1
 550 150 l 1,37,-1
 550 100 l 1,38,-1
 500 100 l 1,39,-1
 500 150 l 1,36,-1
400 150 m 1,40,-1
 450 150 l 1,41,-1
 450 100 l 1,42,-1
 400 100 l 1,43,-1
 400 150 l 1,40,-1
300 150 m 1,44,-1
 350 150 l 1,45,-1
 350 100 l 1,46,-1
 300 100 l 1,47,-1
 300 150 l 1,44,-1
200 150 m 1,48,-1
 250 150 l 1,49,-1
 250 100 l 1,50,-1
 200 100 l 1,51,-1
 200 150 l 1,48,-1
100 150 m 1,52,-1
 150 150 l 1,53,-1
 150 100 l 1,54,-1
 100 100 l 1,55,-1
 100 150 l 1,52,-1
0 150 m 1,56,-1
 50 150 l 1,57,-1
 50 100 l 1,58,-1
 0 100 l 1,59,-1
 0 150 l 1,56,-1
700 250 m 1,60,-1
 750 250 l 1,61,-1
 750 200 l 1,62,-1
 700 200 l 1,63,-1
 700 250 l 1,60,-1
600 250 m 1,64,-1
 650 250 l 1,65,-1
 650 200 l 1,66,-1
 600 200 l 1,67,-1
 600 250 l 1,64,-1
100 250 m 1,68,-1
 150 250 l 1,69,-1
 150 200 l 1,70,-1
 100 200 l 1,71,-1
 100 250 l 1,68,-1
0 250 m 1,72,-1
 50 250 l 1,73,-1
 50 200 l 1,74,-1
 0 200 l 1,75,-1
 0 250 l 1,72,-1
100 350 m 1,76,-1
 150 350 l 1,77,-1
 150 300 l 1,78,-1
 100 300 l 1,79,-1
 100 350 l 1,76,-1
0 350 m 1,80,-1
 50 350 l 1,81,-1
 50 300 l 1,82,-1
 0 300 l 1,83,-1
 0 350 l 1,80,-1
100 450 m 1,84,-1
 150 450 l 1,85,-1
 150 400 l 1,86,-1
 100 400 l 1,87,-1
 100 450 l 1,84,-1
0 450 m 1,88,-1
 50 450 l 1,89,-1
 50 400 l 1,90,-1
 0 400 l 1,91,-1
 0 450 l 1,88,-1
100 550 m 1,92,-1
 150 550 l 1,93,-1
 150 500 l 1,94,-1
 100 500 l 1,95,-1
 100 550 l 1,92,-1
0 550 m 1,96,-1
 50 550 l 1,97,-1
 50 500 l 1,98,-1
 0 500 l 1,99,-1
 0 550 l 1,96,-1
100 650 m 1,100,-1
 150 650 l 1,101,-1
 150 600 l 1,102,-1
 100 600 l 1,103,-1
 100 650 l 1,100,-1
0 650 m 1,104,-1
 50 650 l 1,105,-1
 50 600 l 1,106,-1
 0 600 l 1,107,-1
 0 650 l 1,104,-1
100 750 m 1,108,-1
 150 750 l 1,109,-1
 150 700 l 1,110,-1
 100 700 l 1,111,-1
 100 750 l 1,108,-1
0 750 m 1,112,-1
 50 750 l 1,113,-1
 50 700 l 1,114,-1
 0 700 l 1,115,-1
 0 750 l 1,112,-1
100 850 m 1,116,-1
 150 850 l 1,117,-1
 150 800 l 1,118,-1
 100 800 l 1,119,-1
 100 850 l 1,116,-1
0 850 m 1,120,-1
 50 850 l 1,121,-1
 50 800 l 1,122,-1
 0 800 l 1,123,-1
 0 850 l 1,120,-1
700 950 m 1,124,-1
 750 950 l 1,125,-1
 750 900 l 1,126,-1
 700 900 l 1,127,-1
 700 950 l 1,124,-1
600 950 m 1,128,-1
 650 950 l 1,129,-1
 650 900 l 1,130,-1
 600 900 l 1,131,-1
 600 950 l 1,128,-1
100 950 m 1,132,-1
 150 950 l 1,133,-1
 150 900 l 1,134,-1
 100 900 l 1,135,-1
 100 950 l 1,132,-1
0 950 m 1,136,-1
 50 950 l 1,137,-1
 50 900 l 1,138,-1
 0 900 l 1,139,-1
 0 950 l 1,136,-1
700 1050 m 1,140,-1
 750 1050 l 1,141,-1
 750 1000 l 1,142,-1
 700 1000 l 1,143,-1
 700 1050 l 1,140,-1
600 1050 m 1,144,-1
 650 1050 l 1,145,-1
 650 1000 l 1,146,-1
 600 1000 l 1,147,-1
 600 1050 l 1,144,-1
500 1050 m 1,148,-1
 550 1050 l 1,149,-1
 550 1000 l 1,150,-1
 500 1000 l 1,151,-1
 500 1050 l 1,148,-1
400 1050 m 1,152,-1
 450 1050 l 1,153,-1
 450 1000 l 1,154,-1
 400 1000 l 1,155,-1
 400 1050 l 1,152,-1
300 1050 m 1,156,-1
 350 1050 l 1,157,-1
 350 1000 l 1,158,-1
 300 1000 l 1,159,-1
 300 1050 l 1,156,-1
200 1050 m 1,160,-1
 250 1050 l 1,161,-1
 250 1000 l 1,162,-1
 200 1000 l 1,163,-1
 200 1050 l 1,160,-1
100 1050 m 1,164,-1
 150 1050 l 1,165,-1
 150 1000 l 1,166,-1
 100 1000 l 1,167,-1
 100 1050 l 1,164,-1
0 1050 m 1,168,-1
 50 1050 l 1,169,-1
 50 1000 l 1,170,-1
 0 1000 l 1,171,-1
 0 1050 l 1,168,-1
600 1150 m 1,172,-1
 650 1150 l 1,173,-1
 650 1100 l 1,174,-1
 600 1100 l 1,175,-1
 600 1150 l 1,172,-1
500 1150 m 1,176,-1
 550 1150 l 1,177,-1
 550 1100 l 1,178,-1
 500 1100 l 1,179,-1
 500 1150 l 1,176,-1
400 1150 m 1,180,-1
 450 1150 l 1,181,-1
 450 1100 l 1,182,-1
 400 1100 l 1,183,-1
 400 1150 l 1,180,-1
300 1150 m 1,184,-1
 350 1150 l 1,185,-1
 350 1100 l 1,186,-1
 300 1100 l 1,187,-1
 300 1150 l 1,184,-1
200 1150 m 1,188,-1
 250 1150 l 1,189,-1
 250 1100 l 1,190,-1
 200 1100 l 1,191,-1
 200 1150 l 1,188,-1
EndSplineSet
EndChar

StartChar: D
Encoding: 68 68 36
Width: 900
GlyphClass: 1
Flags: W
LayerCount: 2
Fore
SplineSet
0 1150 m 1,0,-1
 50 1150 l 1,1,-1
 50 1100 l 1,2,-1
 0 1100 l 1,3,-1
 0 1150 l 1,0,-1
500 50 m 1,4,-1
 550 50 l 1,5,-1
 550 0 l 1,6,-1
 500 0 l 1,7,-1
 500 50 l 1,4,-1
400 50 m 1,8,-1
 450 50 l 1,9,-1
 450 0 l 1,10,-1
 400 0 l 1,11,-1
 400 50 l 1,8,-1
300 50 m 1,12,-1
 350 50 l 1,13,-1
 350 0 l 1,14,-1
 300 0 l 1,15,-1
 300 50 l 1,12,-1
200 50 m 1,16,-1
 250 50 l 1,17,-1
 250 0 l 1,18,-1
 200 0 l 1,19,-1
 200 50 l 1,16,-1
100 50 m 1,20,-1
 150 50 l 1,21,-1
 150 0 l 1,22,-1
 100 0 l 1,23,-1
 100 50 l 1,20,-1
0 50 m 1,24,-1
 50 50 l 1,25,-1
 50 0 l 1,26,-1
 0 0 l 1,27,-1
 0 50 l 1,24,-1
600 150 m 1,28,-1
 650 150 l 1,29,-1
 650 100 l 1,30,-1
 600 100 l 1,31,-1
 600 150 l 1,28,-1
500 150 m 1,32,-1
 550 150 l 1,33,-1
 550 100 l 1,34,-1
 500 100 l 1,35,-1
 500 150 l 1,32,-1
400 150 m 1,36,-1
 450 150 l 1,37,-1
 450 100 l 1,38,-1
 400 100 l 1,39,-1
 400 150 l 1,36,-1
300 150 m 1,40,-1
 350 150 l 1,41,-1
 350 100 l 1,42,-1
 300 100 l 1,43,-1
 300 150 l 1,40,-1
200 150 m 1,44,-1
 250 150 l 1,45,-1
 250 100 l 1,46,-1
 200 100 l 1,47,-1
 200 150 l 1,44,-1
100 150 m 1,48,-1
 150 150 l 1,49,-1
 150 100 l 1,50,-1
 100 100 l 1,51,-1
 100 150 l 1,48,-1
0 150 m 1,52,-1
 50 150 l 1,53,-1
 50 100 l 1,54,-1
 0 100 l 1,55,-1
 0 150 l 1,52,-1
700 250 m 1,56,-1
 750 250 l 1,57,-1
 750 200 l 1,58,-1
 700 200 l 1,59,-1
 700 250 l 1,56,-1
600 250 m 1,60,-1
 650 250 l 1,61,-1
 650 200 l 1,62,-1
 600 200 l 1,63,-1
 600 250 l 1,60,-1
500 250 m 1,64,-1
 550 250 l 1,65,-1
 550 200 l 1,66,-1
 500 200 l 1,67,-1
 500 250 l 1,64,-1
100 250 m 1,68,-1
 150 250 l 1,69,-1
 150 200 l 1,70,-1
 100 200 l 1,71,-1
 100 250 l 1,68,-1
0 250 m 1,72,-1
 50 250 l 1,73,-1
 50 200 l 1,74,-1
 0 200 l 1,75,-1
 0 250 l 1,72,-1
700 350 m 1,76,-1
 750 350 l 1,77,-1
 750 300 l 1,78,-1
 700 300 l 1,79,-1
 700 350 l 1,76,-1
600 350 m 1,80,-1
 650 350 l 1,81,-1
 650 300 l 1,82,-1
 600 300 l 1,83,-1
 600 350 l 1,80,-1
100 350 m 1,84,-1
 150 350 l 1,85,-1
 150 300 l 1,86,-1
 100 300 l 1,87,-1
 100 350 l 1,84,-1
0 350 m 1,88,-1
 50 350 l 1,89,-1
 50 300 l 1,90,-1
 0 300 l 1,91,-1
 0 350 l 1,88,-1
700 450 m 1,92,-1
 750 450 l 1,93,-1
 750 400 l 1,94,-1
 700 400 l 1,95,-1
 700 450 l 1,92,-1
600 450 m 1,96,-1
 650 450 l 1,97,-1
 650 400 l 1,98,-1
 600 400 l 1,99,-1
 600 450 l 1,96,-1
100 450 m 1,100,-1
 150 450 l 1,101,-1
 150 400 l 1,102,-1
 100 400 l 1,103,-1
 100 450 l 1,100,-1
0 450 m 1,104,-1
 50 450 l 1,105,-1
 50 400 l 1,106,-1
 0 400 l 1,107,-1
 0 450 l 1,104,-1
700 550 m 1,108,-1
 750 550 l 1,109,-1
 750 500 l 1,110,-1
 700 500 l 1,111,-1
 700 550 l 1,108,-1
600 550 m 1,112,-1
 650 550 l 1,113,-1
 650 500 l 1,114,-1
 600 500 l 1,115,-1
 600 550 l 1,112,-1
100 550 m 1,116,-1
 150 550 l 1,117,-1
 150 500 l 1,118,-1
 100 500 l 1,119,-1
 100 550 l 1,116,-1
0 550 m 1,120,-1
 50 550 l 1,121,-1
 50 500 l 1,122,-1
 0 500 l 1,123,-1
 0 550 l 1,120,-1
700 650 m 1,124,-1
 750 650 l 1,125,-1
 750 600 l 1,126,-1
 700 600 l 1,127,-1
 700 650 l 1,124,-1
600 650 m 1,128,-1
 650 650 l 1,129,-1
 650 600 l 1,130,-1
 600 600 l 1,131,-1
 600 650 l 1,128,-1
100 650 m 1,132,-1
 150 650 l 1,133,-1
 150 600 l 1,134,-1
 100 600 l 1,135,-1
 100 650 l 1,132,-1
0 650 m 1,136,-1
 50 650 l 1,137,-1
 50 600 l 1,138,-1
 0 600 l 1,139,-1
 0 650 l 1,136,-1
700 750 m 1,140,-1
 750 750 l 1,141,-1
 750 700 l 1,142,-1
 700 700 l 1,143,-1
 700 750 l 1,140,-1
600 750 m 1,144,-1
 650 750 l 1,145,-1
 650 700 l 1,146,-1
 600 700 l 1,147,-1
 600 750 l 1,144,-1
100 750 m 1,148,-1
 150 750 l 1,149,-1
 150 700 l 1,150,-1
 100 700 l 1,151,-1
 100 750 l 1,148,-1
0 750 m 1,152,-1
 50 750 l 1,153,-1
 50 700 l 1,154,-1
 0 700 l 1,155,-1
 0 750 l 1,152,-1
700 850 m 1,156,-1
 750 850 l 1,157,-1
 750 800 l 1,158,-1
 700 800 l 1,159,-1
 700 850 l 1,156,-1
600 850 m 1,160,-1
 650 850 l 1,161,-1
 650 800 l 1,162,-1
 600 800 l 1,163,-1
 600 850 l 1,160,-1
100 850 m 1,164,-1
 150 850 l 1,165,-1
 150 800 l 1,166,-1
 100 800 l 1,167,-1
 100 850 l 1,164,-1
0 850 m 1,168,-1
 50 850 l 1,169,-1
 50 800 l 1,170,-1
 0 800 l 1,171,-1
 0 850 l 1,168,-1
700 950 m 1,172,-1
 750 950 l 1,173,-1
 750 900 l 1,174,-1
 700 900 l 1,175,-1
 700 950 l 1,172,-1
600 950 m 1,176,-1
 650 950 l 1,177,-1
 650 900 l 1,178,-1
 600 900 l 1,179,-1
 600 950 l 1,176,-1
500 950 m 1,180,-1
 550 950 l 1,181,-1
 550 900 l 1,182,-1
 500 900 l 1,183,-1
 500 950 l 1,180,-1
100 950 m 1,184,-1
 150 950 l 1,185,-1
 150 900 l 1,186,-1
 100 900 l 1,187,-1
 100 950 l 1,184,-1
0 950 m 1,188,-1
 50 950 l 1,189,-1
 50 900 l 1,190,-1
 0 900 l 1,191,-1
 0 950 l 1,188,-1
600 1050 m 1,192,-1
 650 1050 l 1,193,-1
 650 1000 l 1,194,-1
 600 1000 l 1,195,-1
 600 1050 l 1,192,-1
500 1050 m 1,196,-1
 550 1050 l 1,197,-1
 550 1000 l 1,198,-1
 500 1000 l 1,199,-1
 500 1050 l 1,196,-1
400 1050 m 1,200,-1
 450 1050 l 1,201,-1
 450 1000 l 1,202,-1
 400 1000 l 1,203,-1
 400 1050 l 1,200,-1
300 1050 m 1,204,-1
 350 1050 l 1,205,-1
 350 1000 l 1,206,-1
 300 1000 l 1,207,-1
 300 1050 l 1,204,-1
200 1050 m 1,208,-1
 250 1050 l 1,209,-1
 250 1000 l 1,210,-1
 200 1000 l 1,211,-1
 200 1050 l 1,208,-1
100 1050 m 1,212,-1
 150 1050 l 1,213,-1
 150 1000 l 1,214,-1
 100 1000 l 1,215,-1
 100 1050 l 1,212,-1
0 1050 m 1,216,-1
 50 1050 l 1,217,-1
 50 1000 l 1,218,-1
 0 1000 l 1,219,-1
 0 1050 l 1,216,-1
500 1150 m 1,220,-1
 550 1150 l 1,221,-1
 550 1100 l 1,222,-1
 500 1100 l 1,223,-1
 500 1150 l 1,220,-1
400 1150 m 1,224,-1
 450 1150 l 1,225,-1
 450 1100 l 1,226,-1
 400 1100 l 1,227,-1
 400 1150 l 1,224,-1
300 1150 m 1,228,-1
 350 1150 l 1,229,-1
 350 1100 l 1,230,-1
 300 1100 l 1,231,-1
 300 1150 l 1,228,-1
200 1150 m 1,232,-1
 250 1150 l 1,233,-1
 250 1100 l 1,234,-1
 200 1100 l 1,235,-1
 200 1150 l 1,232,-1
100 1150 m 1,236,-1
 150 1150 l 1,237,-1
 150 1100 l 1,238,-1
 100 1100 l 1,239,-1
 100 1150 l 1,236,-1
EndSplineSet
EndChar

StartChar: E
Encoding: 69 69 37
Width: 903
GlyphClass: 1
Flags: WO
LayerCount: 2
Fore
SplineSet
701 50 m 1,0,-1
 751 50 l 1,1,-1
 751 0 l 1,2,-1
 701 0 l 1,3,-1
 701 50 l 1,0,-1
601 50 m 1,4,-1
 651 50 l 1,5,-1
 651 0 l 1,6,-1
 601 0 l 1,7,-1
 601 50 l 1,4,-1
501 50 m 1,8,-1
 551 50 l 1,9,-1
 551 0 l 1,10,-1
 501 0 l 1,11,-1
 501 50 l 1,8,-1
401 50 m 1,12,-1
 451 50 l 1,13,-1
 451 0 l 1,14,-1
 401 0 l 1,15,-1
 401 50 l 1,12,-1
301 50 m 1,16,-1
 351 50 l 1,17,-1
 351 0 l 1,18,-1
 301 0 l 1,19,-1
 301 50 l 1,16,-1
201 50 m 1,20,-1
 251 50 l 1,21,-1
 251 0 l 1,22,-1
 201 0 l 1,23,-1
 201 50 l 1,20,-1
701 150 m 1,24,-1
 751 150 l 1,25,-1
 751 100 l 1,26,-1
 701 100 l 1,27,-1
 701 150 l 1,24,-1
601 150 m 1,28,-1
 651 150 l 5,29,-1
 651 100 l 5,30,-1
 601 100 l 1,31,-1
 601 150 l 1,28,-1
501 150 m 1,32,-1
 551 150 l 1,33,-1
 551 100 l 1,34,-1
 501 100 l 1,35,-1
 501 150 l 1,32,-1
401 150 m 1,36,-1
 451 150 l 1,37,-1
 451 100 l 1,38,-1
 401 100 l 1,39,-1
 401 150 l 1,36,-1
301 150 m 1,40,-1
 351 150 l 1,41,-1
 351 100 l 1,42,-1
 301 100 l 1,43,-1
 301 150 l 1,40,-1
201 150 m 1,44,-1
 251 150 l 1,45,-1
 251 100 l 1,46,-1
 201 100 l 1,47,-1
 201 150 l 1,44,-1
0 1150 m 1,48,-1
 50 1150 l 1,49,-1
 50 1100 l 1,50,-1
 0 1100 l 1,51,-1
 0 1150 l 1,48,-1
100 50 m 1,52,-1
 150 50 l 1,53,-1
 150 0 l 1,54,-1
 100 0 l 1,55,-1
 100 50 l 1,52,-1
0 50 m 1,56,-1
 50 50 l 1,57,-1
 50 0 l 1,58,-1
 0 0 l 1,59,-1
 0 50 l 1,56,-1
100 150 m 1,60,-1
 150 150 l 1,61,-1
 150 100 l 1,62,-1
 100 100 l 1,63,-1
 100 150 l 1,60,-1
0 150 m 1,64,-1
 50 150 l 1,65,-1
 50 100 l 1,66,-1
 0 100 l 1,67,-1
 0 150 l 1,64,-1
100 250 m 1,68,-1
 150 250 l 1,69,-1
 150 200 l 1,70,-1
 100 200 l 1,71,-1
 100 250 l 1,68,-1
0 250 m 1,72,-1
 50 250 l 1,73,-1
 50 200 l 1,74,-1
 0 200 l 1,75,-1
 0 250 l 1,72,-1
100 350 m 1,76,-1
 150 350 l 1,77,-1
 150 300 l 1,78,-1
 100 300 l 1,79,-1
 100 350 l 1,76,-1
0 350 m 1,80,-1
 50 350 l 1,81,-1
 50 300 l 1,82,-1
 0 300 l 1,83,-1
 0 350 l 1,80,-1
100 450 m 1,84,-1
 150 450 l 1,85,-1
 150 400 l 1,86,-1
 100 400 l 1,87,-1
 100 450 l 1,84,-1
0 450 m 1,88,-1
 50 450 l 1,89,-1
 50 400 l 1,90,-1
 0 400 l 1,91,-1
 0 450 l 1,88,-1
500 550 m 1,92,-1
 550 550 l 1,93,-1
 550 500 l 1,94,-1
 500 500 l 1,95,-1
 500 550 l 1,92,-1
400 550 m 1,96,-1
 450 550 l 1,97,-1
 450 500 l 1,98,-1
 400 500 l 1,99,-1
 400 550 l 1,96,-1
300 550 m 1,100,-1
 350 550 l 1,101,-1
 350 500 l 1,102,-1
 300 500 l 1,103,-1
 300 550 l 1,100,-1
200 550 m 1,104,-1
 250 550 l 1,105,-1
 250 500 l 1,106,-1
 200 500 l 1,107,-1
 200 550 l 1,104,-1
100 550 m 1,108,-1
 150 550 l 1,109,-1
 150 500 l 1,110,-1
 100 500 l 1,111,-1
 100 550 l 1,108,-1
0 550 m 1,112,-1
 50 550 l 1,113,-1
 50 500 l 1,114,-1
 0 500 l 1,115,-1
 0 550 l 1,112,-1
500 650 m 1,116,-1
 550 650 l 1,117,-1
 550 600 l 1,118,-1
 500 600 l 1,119,-1
 500 650 l 1,116,-1
400 650 m 1,120,-1
 450 650 l 1,121,-1
 450 600 l 1,122,-1
 400 600 l 1,123,-1
 400 650 l 1,120,-1
300 650 m 1,124,-1
 350 650 l 1,125,-1
 350 600 l 1,126,-1
 300 600 l 1,127,-1
 300 650 l 1,124,-1
200 650 m 1,128,-1
 250 650 l 1,129,-1
 250 600 l 1,130,-1
 200 600 l 1,131,-1
 200 650 l 1,128,-1
100 650 m 1,132,-1
 150 650 l 1,133,-1
 150 600 l 1,134,-1
 100 600 l 1,135,-1
 100 650 l 1,132,-1
0 650 m 1,136,-1
 50 650 l 1,137,-1
 50 600 l 1,138,-1
 0 600 l 1,139,-1
 0 650 l 1,136,-1
100 750 m 1,140,-1
 150 750 l 1,141,-1
 150 700 l 1,142,-1
 100 700 l 1,143,-1
 100 750 l 1,140,-1
0 750 m 1,144,-1
 50 750 l 1,145,-1
 50 700 l 1,146,-1
 0 700 l 1,147,-1
 0 750 l 1,144,-1
100 850 m 1,148,-1
 150 850 l 1,149,-1
 150 800 l 1,150,-1
 100 800 l 1,151,-1
 100 850 l 1,148,-1
0 850 m 1,152,-1
 50 850 l 1,153,-1
 50 800 l 1,154,-1
 0 800 l 1,155,-1
 0 850 l 1,152,-1
100 950 m 1,156,-1
 150 950 l 1,157,-1
 150 900 l 1,158,-1
 100 900 l 1,159,-1
 100 950 l 1,156,-1
0 950 m 1,160,-1
 50 950 l 1,161,-1
 50 900 l 1,162,-1
 0 900 l 1,163,-1
 0 950 l 1,160,-1
700 1050 m 1,164,-1
 750 1050 l 1,165,-1
 750 1000 l 1,166,-1
 700 1000 l 1,167,-1
 700 1050 l 1,164,-1
600 1050 m 1,168,-1
 650 1050 l 1,169,-1
 650 1000 l 1,170,-1
 600 1000 l 1,171,-1
 600 1050 l 1,168,-1
500 1050 m 1,172,-1
 550 1050 l 1,173,-1
 550 1000 l 1,174,-1
 500 1000 l 1,175,-1
 500 1050 l 1,172,-1
400 1050 m 1,176,-1
 450 1050 l 1,177,-1
 450 1000 l 1,178,-1
 400 1000 l 1,179,-1
 400 1050 l 1,176,-1
300 1050 m 1,180,-1
 350 1050 l 1,181,-1
 350 1000 l 1,182,-1
 300 1000 l 1,183,-1
 300 1050 l 1,180,-1
200 1050 m 1,184,-1
 250 1050 l 1,185,-1
 250 1000 l 1,186,-1
 200 1000 l 1,187,-1
 200 1050 l 1,184,-1
100 1050 m 1,188,-1
 150 1050 l 1,189,-1
 150 1000 l 1,190,-1
 100 1000 l 1,191,-1
 100 1050 l 1,188,-1
0 1050 m 1,192,-1
 50 1050 l 1,193,-1
 50 1000 l 1,194,-1
 0 1000 l 1,195,-1
 0 1050 l 1,192,-1
700 1150 m 1,196,-1
 750 1150 l 1,197,-1
 750 1100 l 1,198,-1
 700 1100 l 1,199,-1
 700 1150 l 1,196,-1
600 1150 m 1,200,-1
 650 1150 l 1,201,-1
 650 1100 l 1,202,-1
 600 1100 l 1,203,-1
 600 1150 l 1,200,-1
500 1150 m 1,204,-1
 550 1150 l 1,205,-1
 550 1100 l 1,206,-1
 500 1100 l 1,207,-1
 500 1150 l 1,204,-1
400 1150 m 1,208,-1
 450 1150 l 1,209,-1
 450 1100 l 1,210,-1
 400 1100 l 1,211,-1
 400 1150 l 1,208,-1
300 1150 m 1,212,-1
 350 1150 l 1,213,-1
 350 1100 l 1,214,-1
 300 1100 l 1,215,-1
 300 1150 l 1,212,-1
200 1150 m 1,216,-1
 250 1150 l 1,217,-1
 250 1100 l 1,218,-1
 200 1100 l 1,219,-1
 200 1150 l 1,216,-1
100 1150 m 1,220,-1
 150 1150 l 1,221,-1
 150 1100 l 1,222,-1
 100 1100 l 1,223,-1
 100 1150 l 1,220,-1
EndSplineSet
EndChar

StartChar: F
Encoding: 70 70 38
Width: 900
GlyphClass: 1
Flags: W
LayerCount: 2
Fore
SplineSet
0 1150 m 1,0,-1
 50 1150 l 1,1,-1
 50 1100 l 1,2,-1
 0 1100 l 1,3,-1
 0 1150 l 1,0,-1
100 50 m 1,4,-1
 150 50 l 1,5,-1
 150 0 l 1,6,-1
 100 0 l 1,7,-1
 100 50 l 1,4,-1
0 50 m 1,8,-1
 50 50 l 1,9,-1
 50 0 l 1,10,-1
 0 0 l 1,11,-1
 0 50 l 1,8,-1
100 150 m 1,12,-1
 150 150 l 1,13,-1
 150 100 l 1,14,-1
 100 100 l 1,15,-1
 100 150 l 1,12,-1
0 150 m 1,16,-1
 50 150 l 1,17,-1
 50 100 l 1,18,-1
 0 100 l 1,19,-1
 0 150 l 1,16,-1
100 250 m 1,20,-1
 150 250 l 1,21,-1
 150 200 l 1,22,-1
 100 200 l 1,23,-1
 100 250 l 1,20,-1
0 250 m 1,24,-1
 50 250 l 1,25,-1
 50 200 l 1,26,-1
 0 200 l 1,27,-1
 0 250 l 1,24,-1
100 350 m 1,28,-1
 150 350 l 1,29,-1
 150 300 l 1,30,-1
 100 300 l 1,31,-1
 100 350 l 1,28,-1
0 350 m 1,32,-1
 50 350 l 1,33,-1
 50 300 l 1,34,-1
 0 300 l 1,35,-1
 0 350 l 1,32,-1
100 450 m 1,36,-1
 150 450 l 1,37,-1
 150 400 l 1,38,-1
 100 400 l 1,39,-1
 100 450 l 1,36,-1
0 450 m 1,40,-1
 50 450 l 1,41,-1
 50 400 l 1,42,-1
 0 400 l 1,43,-1
 0 450 l 1,40,-1
500 550 m 1,44,-1
 550 550 l 1,45,-1
 550 500 l 1,46,-1
 500 500 l 1,47,-1
 500 550 l 1,44,-1
400 550 m 1,48,-1
 450 550 l 1,49,-1
 450 500 l 1,50,-1
 400 500 l 1,51,-1
 400 550 l 1,48,-1
300 550 m 1,52,-1
 350 550 l 1,53,-1
 350 500 l 1,54,-1
 300 500 l 1,55,-1
 300 550 l 1,52,-1
200 550 m 1,56,-1
 250 550 l 1,57,-1
 250 500 l 1,58,-1
 200 500 l 1,59,-1
 200 550 l 1,56,-1
100 550 m 1,60,-1
 150 550 l 1,61,-1
 150 500 l 1,62,-1
 100 500 l 1,63,-1
 100 550 l 1,60,-1
0 550 m 1,64,-1
 50 550 l 1,65,-1
 50 500 l 1,66,-1
 0 500 l 1,67,-1
 0 550 l 1,64,-1
500 650 m 1,68,-1
 550 650 l 1,69,-1
 550 600 l 1,70,-1
 500 600 l 1,71,-1
 500 650 l 1,68,-1
400 650 m 1,72,-1
 450 650 l 1,73,-1
 450 600 l 1,74,-1
 400 600 l 1,75,-1
 400 650 l 1,72,-1
300 650 m 1,76,-1
 350 650 l 1,77,-1
 350 600 l 1,78,-1
 300 600 l 1,79,-1
 300 650 l 1,76,-1
200 650 m 1,80,-1
 250 650 l 1,81,-1
 250 600 l 1,82,-1
 200 600 l 1,83,-1
 200 650 l 1,80,-1
100 650 m 1,84,-1
 150 650 l 1,85,-1
 150 600 l 1,86,-1
 100 600 l 1,87,-1
 100 650 l 1,84,-1
0 650 m 1,88,-1
 50 650 l 1,89,-1
 50 600 l 1,90,-1
 0 600 l 1,91,-1
 0 650 l 1,88,-1
100 750 m 1,92,-1
 150 750 l 1,93,-1
 150 700 l 1,94,-1
 100 700 l 1,95,-1
 100 750 l 1,92,-1
0 750 m 1,96,-1
 50 750 l 1,97,-1
 50 700 l 1,98,-1
 0 700 l 1,99,-1
 0 750 l 1,96,-1
100 850 m 1,100,-1
 150 850 l 1,101,-1
 150 800 l 1,102,-1
 100 800 l 1,103,-1
 100 850 l 1,100,-1
0 850 m 1,104,-1
 50 850 l 1,105,-1
 50 800 l 1,106,-1
 0 800 l 1,107,-1
 0 850 l 1,104,-1
100 950 m 1,108,-1
 150 950 l 1,109,-1
 150 900 l 1,110,-1
 100 900 l 1,111,-1
 100 950 l 1,108,-1
0 950 m 1,112,-1
 50 950 l 1,113,-1
 50 900 l 1,114,-1
 0 900 l 1,115,-1
 0 950 l 1,112,-1
700 1050 m 1,116,-1
 750 1050 l 1,117,-1
 750 1000 l 1,118,-1
 700 1000 l 1,119,-1
 700 1050 l 1,116,-1
600 1050 m 1,120,-1
 650 1050 l 1,121,-1
 650 1000 l 1,122,-1
 600 1000 l 1,123,-1
 600 1050 l 1,120,-1
500 1050 m 1,124,-1
 550 1050 l 1,125,-1
 550 1000 l 1,126,-1
 500 1000 l 1,127,-1
 500 1050 l 1,124,-1
400 1050 m 1,128,-1
 450 1050 l 1,129,-1
 450 1000 l 1,130,-1
 400 1000 l 1,131,-1
 400 1050 l 1,128,-1
300 1050 m 1,132,-1
 350 1050 l 1,133,-1
 350 1000 l 1,134,-1
 300 1000 l 1,135,-1
 300 1050 l 1,132,-1
200 1050 m 1,136,-1
 250 1050 l 1,137,-1
 250 1000 l 1,138,-1
 200 1000 l 1,139,-1
 200 1050 l 1,136,-1
100 1050 m 1,140,-1
 150 1050 l 1,141,-1
 150 1000 l 1,142,-1
 100 1000 l 1,143,-1
 100 1050 l 1,140,-1
0 1050 m 1,144,-1
 50 1050 l 1,145,-1
 50 1000 l 1,146,-1
 0 1000 l 1,147,-1
 0 1050 l 1,144,-1
700 1150 m 1,148,-1
 750 1150 l 1,149,-1
 750 1100 l 1,150,-1
 700 1100 l 1,151,-1
 700 1150 l 1,148,-1
600 1150 m 1,152,-1
 650 1150 l 1,153,-1
 650 1100 l 1,154,-1
 600 1100 l 1,155,-1
 600 1150 l 1,152,-1
500 1150 m 1,156,-1
 550 1150 l 1,157,-1
 550 1100 l 1,158,-1
 500 1100 l 1,159,-1
 500 1150 l 1,156,-1
400 1150 m 1,160,-1
 450 1150 l 1,161,-1
 450 1100 l 1,162,-1
 400 1100 l 1,163,-1
 400 1150 l 1,160,-1
300 1150 m 1,164,-1
 350 1150 l 1,165,-1
 350 1100 l 1,166,-1
 300 1100 l 1,167,-1
 300 1150 l 1,164,-1
200 1150 m 1,168,-1
 250 1150 l 1,169,-1
 250 1100 l 1,170,-1
 200 1100 l 1,171,-1
 200 1150 l 1,168,-1
100 1150 m 1,172,-1
 150 1150 l 1,173,-1
 150 1100 l 1,174,-1
 100 1100 l 1,175,-1
 100 1150 l 1,172,-1
EndSplineSet
EndChar

StartChar: G
Encoding: 71 71 39
Width: 900
GlyphClass: 1
Flags: W
LayerCount: 2
Fore
SplineSet
100 1150 m 1,0,-1
 150 1150 l 1,1,-1
 150 1100 l 1,2,-1
 100 1100 l 1,3,-1
 100 1150 l 1,0,-1
600 50 m 1,4,-1
 650 50 l 1,5,-1
 650 0 l 1,6,-1
 600 0 l 1,7,-1
 600 50 l 1,4,-1
500 50 m 1,8,-1
 550 50 l 1,9,-1
 550 0 l 1,10,-1
 500 0 l 1,11,-1
 500 50 l 1,8,-1
400 50 m 1,12,-1
 450 50 l 1,13,-1
 450 0 l 1,14,-1
 400 0 l 1,15,-1
 400 50 l 1,12,-1
300 50 m 1,16,-1
 350 50 l 1,17,-1
 350 0 l 1,18,-1
 300 0 l 1,19,-1
 300 50 l 1,16,-1
200 50 m 1,20,-1
 250 50 l 1,21,-1
 250 0 l 1,22,-1
 200 0 l 1,23,-1
 200 50 l 1,20,-1
100 50 m 1,24,-1
 150 50 l 1,25,-1
 150 0 l 1,26,-1
 100 0 l 1,27,-1
 100 50 l 1,24,-1
700 150 m 1,28,-1
 750 150 l 1,29,-1
 750 100 l 1,30,-1
 700 100 l 1,31,-1
 700 150 l 1,28,-1
600 150 m 1,32,-1
 650 150 l 1,33,-1
 650 100 l 1,34,-1
 600 100 l 1,35,-1
 600 150 l 1,32,-1
500 150 m 1,36,-1
 550 150 l 1,37,-1
 550 100 l 1,38,-1
 500 100 l 1,39,-1
 500 150 l 1,36,-1
400 150 m 1,40,-1
 450 150 l 1,41,-1
 450 100 l 1,42,-1
 400 100 l 1,43,-1
 400 150 l 1,40,-1
300 150 m 1,44,-1
 350 150 l 1,45,-1
 350 100 l 1,46,-1
 300 100 l 1,47,-1
 300 150 l 1,44,-1
200 150 m 1,48,-1
 250 150 l 1,49,-1
 250 100 l 1,50,-1
 200 100 l 1,51,-1
 200 150 l 1,48,-1
100 150 m 1,52,-1
 150 150 l 1,53,-1
 150 100 l 1,54,-1
 100 100 l 1,55,-1
 100 150 l 1,52,-1
0 150 m 1,56,-1
 50 150 l 1,57,-1
 50 100 l 1,58,-1
 0 100 l 1,59,-1
 0 150 l 1,56,-1
700 250 m 1,60,-1
 750 250 l 1,61,-1
 750 200 l 1,62,-1
 700 200 l 1,63,-1
 700 250 l 1,60,-1
600 250 m 1,64,-1
 650 250 l 1,65,-1
 650 200 l 1,66,-1
 600 200 l 1,67,-1
 600 250 l 1,64,-1
100 250 m 1,68,-1
 150 250 l 1,69,-1
 150 200 l 1,70,-1
 100 200 l 1,71,-1
 100 250 l 1,68,-1
0 250 m 1,72,-1
 50 250 l 1,73,-1
 50 200 l 1,74,-1
 0 200 l 1,75,-1
 0 250 l 1,72,-1
700 350 m 1,76,-1
 750 350 l 1,77,-1
 750 300 l 1,78,-1
 700 300 l 1,79,-1
 700 350 l 1,76,-1
600 350 m 1,80,-1
 650 350 l 1,81,-1
 650 300 l 1,82,-1
 600 300 l 1,83,-1
 600 350 l 1,80,-1
100 350 m 1,84,-1
 150 350 l 1,85,-1
 150 300 l 1,86,-1
 100 300 l 1,87,-1
 100 350 l 1,84,-1
0 350 m 1,88,-1
 50 350 l 1,89,-1
 50 300 l 1,90,-1
 0 300 l 1,91,-1
 0 350 l 1,88,-1
700 450 m 1,92,-1
 750 450 l 1,93,-1
 750 400 l 1,94,-1
 700 400 l 1,95,-1
 700 450 l 1,92,-1
600 450 m 1,96,-1
 650 450 l 1,97,-1
 650 400 l 1,98,-1
 600 400 l 1,99,-1
 600 450 l 1,96,-1
500 450 m 1,100,-1
 550 450 l 1,101,-1
 550 400 l 1,102,-1
 500 400 l 1,103,-1
 500 450 l 1,100,-1
400 450 m 1,104,-1
 450 450 l 1,105,-1
 450 400 l 1,106,-1
 400 400 l 1,107,-1
 400 450 l 1,104,-1
100 450 m 1,108,-1
 150 450 l 1,109,-1
 150 400 l 1,110,-1
 100 400 l 1,111,-1
 100 450 l 1,108,-1
0 450 m 1,112,-1
 50 450 l 1,113,-1
 50 400 l 1,114,-1
 0 400 l 1,115,-1
 0 450 l 1,112,-1
700 550 m 1,116,-1
 750 550 l 1,117,-1
 750 500 l 1,118,-1
 700 500 l 1,119,-1
 700 550 l 1,116,-1
600 550 m 1,120,-1
 650 550 l 1,121,-1
 650 500 l 1,122,-1
 600 500 l 1,123,-1
 600 550 l 1,120,-1
500 550 m 1,124,-1
 550 550 l 1,125,-1
 550 500 l 1,126,-1
 500 500 l 1,127,-1
 500 550 l 1,124,-1
400 550 m 1,128,-1
 450 550 l 1,129,-1
 450 500 l 1,130,-1
 400 500 l 1,131,-1
 400 550 l 1,128,-1
100 550 m 1,132,-1
 150 550 l 1,133,-1
 150 500 l 1,134,-1
 100 500 l 1,135,-1
 100 550 l 1,132,-1
0 550 m 1,136,-1
 50 550 l 1,137,-1
 50 500 l 1,138,-1
 0 500 l 1,139,-1
 0 550 l 1,136,-1
100 650 m 1,140,-1
 150 650 l 1,141,-1
 150 600 l 1,142,-1
 100 600 l 1,143,-1
 100 650 l 1,140,-1
0 650 m 1,144,-1
 50 650 l 1,145,-1
 50 600 l 1,146,-1
 0 600 l 1,147,-1
 0 650 l 1,144,-1
100 750 m 1,148,-1
 150 750 l 1,149,-1
 150 700 l 1,150,-1
 100 700 l 1,151,-1
 100 750 l 1,148,-1
0 750 m 1,152,-1
 50 750 l 1,153,-1
 50 700 l 1,154,-1
 0 700 l 1,155,-1
 0 750 l 1,152,-1
100 850 m 1,156,-1
 150 850 l 1,157,-1
 150 800 l 1,158,-1
 100 800 l 1,159,-1
 100 850 l 1,156,-1
0 850 m 1,160,-1
 50 850 l 1,161,-1
 50 800 l 1,162,-1
 0 800 l 1,163,-1
 0 850 l 1,160,-1
700 950 m 1,164,-1
 750 950 l 1,165,-1
 750 900 l 1,166,-1
 700 900 l 1,167,-1
 700 950 l 1,164,-1
600 950 m 1,168,-1
 650 950 l 1,169,-1
 650 900 l 1,170,-1
 600 900 l 1,171,-1
 600 950 l 1,168,-1
100 950 m 1,172,-1
 150 950 l 1,173,-1
 150 900 l 1,174,-1
 100 900 l 1,175,-1
 100 950 l 1,172,-1
0 950 m 1,176,-1
 50 950 l 1,177,-1
 50 900 l 1,178,-1
 0 900 l 1,179,-1
 0 950 l 1,176,-1
700 1050 m 1,180,-1
 750 1050 l 1,181,-1
 750 1000 l 1,182,-1
 700 1000 l 1,183,-1
 700 1050 l 1,180,-1
600 1050 m 1,184,-1
 650 1050 l 1,185,-1
 650 1000 l 1,186,-1
 600 1000 l 1,187,-1
 600 1050 l 1,184,-1
500 1050 m 1,188,-1
 550 1050 l 1,189,-1
 550 1000 l 1,190,-1
 500 1000 l 1,191,-1
 500 1050 l 1,188,-1
400 1050 m 1,192,-1
 450 1050 l 1,193,-1
 450 1000 l 1,194,-1
 400 1000 l 1,195,-1
 400 1050 l 1,192,-1
300 1050 m 1,196,-1
 350 1050 l 1,197,-1
 350 1000 l 1,198,-1
 300 1000 l 1,199,-1
 300 1050 l 1,196,-1
200 1050 m 1,200,-1
 250 1050 l 1,201,-1
 250 1000 l 1,202,-1
 200 1000 l 1,203,-1
 200 1050 l 1,200,-1
100 1050 m 1,204,-1
 150 1050 l 1,205,-1
 150 1000 l 1,206,-1
 100 1000 l 1,207,-1
 100 1050 l 1,204,-1
0 1050 m 1,208,-1
 50 1050 l 1,209,-1
 50 1000 l 1,210,-1
 0 1000 l 1,211,-1
 0 1050 l 1,208,-1
600 1150 m 1,212,-1
 650 1150 l 1,213,-1
 650 1100 l 1,214,-1
 600 1100 l 1,215,-1
 600 1150 l 1,212,-1
500 1150 m 1,216,-1
 550 1150 l 1,217,-1
 550 1100 l 1,218,-1
 500 1100 l 1,219,-1
 500 1150 l 1,216,-1
400 1150 m 1,220,-1
 450 1150 l 1,221,-1
 450 1100 l 1,222,-1
 400 1100 l 1,223,-1
 400 1150 l 1,220,-1
300 1150 m 1,224,-1
 350 1150 l 1,225,-1
 350 1100 l 1,226,-1
 300 1100 l 1,227,-1
 300 1150 l 1,224,-1
200 1150 m 1,228,-1
 250 1150 l 1,229,-1
 250 1100 l 1,230,-1
 200 1100 l 1,231,-1
 200 1150 l 1,228,-1
EndSplineSet
EndChar

StartChar: H
Encoding: 72 72 40
Width: 900
GlyphClass: 1
Flags: W
LayerCount: 2
Fore
SplineSet
0 1150 m 1,0,-1
 50 1150 l 1,1,-1
 50 1100 l 1,2,-1
 0 1100 l 1,3,-1
 0 1150 l 1,0,-1
700 50 m 1,4,-1
 750 50 l 1,5,-1
 750 0 l 1,6,-1
 700 0 l 1,7,-1
 700 50 l 1,4,-1
600 50 m 1,8,-1
 650 50 l 1,9,-1
 650 0 l 1,10,-1
 600 0 l 1,11,-1
 600 50 l 1,8,-1
100 50 m 1,12,-1
 150 50 l 1,13,-1
 150 0 l 1,14,-1
 100 0 l 1,15,-1
 100 50 l 1,12,-1
0 50 m 1,16,-1
 50 50 l 1,17,-1
 50 0 l 1,18,-1
 0 0 l 1,19,-1
 0 50 l 1,16,-1
700 150 m 1,20,-1
 750 150 l 1,21,-1
 750 100 l 1,22,-1
 700 100 l 1,23,-1
 700 150 l 1,20,-1
600 150 m 1,24,-1
 650 150 l 1,25,-1
 650 100 l 1,26,-1
 600 100 l 1,27,-1
 600 150 l 1,24,-1
100 150 m 1,28,-1
 150 150 l 1,29,-1
 150 100 l 1,30,-1
 100 100 l 1,31,-1
 100 150 l 1,28,-1
0 150 m 1,32,-1
 50 150 l 1,33,-1
 50 100 l 1,34,-1
 0 100 l 1,35,-1
 0 150 l 1,32,-1
700 250 m 1,36,-1
 750 250 l 1,37,-1
 750 200 l 1,38,-1
 700 200 l 1,39,-1
 700 250 l 1,36,-1
600 250 m 1,40,-1
 650 250 l 1,41,-1
 650 200 l 1,42,-1
 600 200 l 1,43,-1
 600 250 l 1,40,-1
100 250 m 1,44,-1
 150 250 l 1,45,-1
 150 200 l 1,46,-1
 100 200 l 1,47,-1
 100 250 l 1,44,-1
0 250 m 1,48,-1
 50 250 l 1,49,-1
 50 200 l 1,50,-1
 0 200 l 1,51,-1
 0 250 l 1,48,-1
700 350 m 1,52,-1
 750 350 l 1,53,-1
 750 300 l 1,54,-1
 700 300 l 1,55,-1
 700 350 l 1,52,-1
600 350 m 1,56,-1
 650 350 l 1,57,-1
 650 300 l 1,58,-1
 600 300 l 1,59,-1
 600 350 l 1,56,-1
100 350 m 1,60,-1
 150 350 l 1,61,-1
 150 300 l 1,62,-1
 100 300 l 1,63,-1
 100 350 l 1,60,-1
0 350 m 1,64,-1
 50 350 l 1,65,-1
 50 300 l 1,66,-1
 0 300 l 1,67,-1
 0 350 l 1,64,-1
700 450 m 1,68,-1
 750 450 l 1,69,-1
 750 400 l 1,70,-1
 700 400 l 1,71,-1
 700 450 l 1,68,-1
600 450 m 1,72,-1
 650 450 l 1,73,-1
 650 400 l 1,74,-1
 600 400 l 1,75,-1
 600 450 l 1,72,-1
100 450 m 1,76,-1
 150 450 l 1,77,-1
 150 400 l 1,78,-1
 100 400 l 1,79,-1
 100 450 l 1,76,-1
0 450 m 1,80,-1
 50 450 l 1,81,-1
 50 400 l 1,82,-1
 0 400 l 1,83,-1
 0 450 l 1,80,-1
700 550 m 1,84,-1
 750 550 l 1,85,-1
 750 500 l 1,86,-1
 700 500 l 1,87,-1
 700 550 l 1,84,-1
600 550 m 1,88,-1
 650 550 l 1,89,-1
 650 500 l 1,90,-1
 600 500 l 1,91,-1
 600 550 l 1,88,-1
500 550 m 1,92,-1
 550 550 l 1,93,-1
 550 500 l 1,94,-1
 500 500 l 1,95,-1
 500 550 l 1,92,-1
400 550 m 1,96,-1
 450 550 l 1,97,-1
 450 500 l 1,98,-1
 400 500 l 1,99,-1
 400 550 l 1,96,-1
300 550 m 1,100,-1
 350 550 l 1,101,-1
 350 500 l 1,102,-1
 300 500 l 1,103,-1
 300 550 l 1,100,-1
200 550 m 1,104,-1
 250 550 l 1,105,-1
 250 500 l 1,106,-1
 200 500 l 1,107,-1
 200 550 l 1,104,-1
100 550 m 1,108,-1
 150 550 l 1,109,-1
 150 500 l 1,110,-1
 100 500 l 1,111,-1
 100 550 l 1,108,-1
0 550 m 1,112,-1
 50 550 l 1,113,-1
 50 500 l 1,114,-1
 0 500 l 1,115,-1
 0 550 l 1,112,-1
700 650 m 1,116,-1
 750 650 l 1,117,-1
 750 600 l 1,118,-1
 700 600 l 1,119,-1
 700 650 l 1,116,-1
600 650 m 1,120,-1
 650 650 l 1,121,-1
 650 600 l 1,122,-1
 600 600 l 1,123,-1
 600 650 l 1,120,-1
500 650 m 1,124,-1
 550 650 l 1,125,-1
 550 600 l 1,126,-1
 500 600 l 1,127,-1
 500 650 l 1,124,-1
400 650 m 1,128,-1
 450 650 l 1,129,-1
 450 600 l 1,130,-1
 400 600 l 1,131,-1
 400 650 l 1,128,-1
300 650 m 1,132,-1
 350 650 l 1,133,-1
 350 600 l 1,134,-1
 300 600 l 1,135,-1
 300 650 l 1,132,-1
200 650 m 1,136,-1
 250 650 l 1,137,-1
 250 600 l 1,138,-1
 200 600 l 1,139,-1
 200 650 l 1,136,-1
100 650 m 1,140,-1
 150 650 l 1,141,-1
 150 600 l 1,142,-1
 100 600 l 1,143,-1
 100 650 l 1,140,-1
0 650 m 1,144,-1
 50 650 l 1,145,-1
 50 600 l 1,146,-1
 0 600 l 1,147,-1
 0 650 l 1,144,-1
700 750 m 1,148,-1
 750 750 l 1,149,-1
 750 700 l 1,150,-1
 700 700 l 1,151,-1
 700 750 l 1,148,-1
600 750 m 1,152,-1
 650 750 l 1,153,-1
 650 700 l 1,154,-1
 600 700 l 1,155,-1
 600 750 l 1,152,-1
100 750 m 1,156,-1
 150 750 l 1,157,-1
 150 700 l 1,158,-1
 100 700 l 1,159,-1
 100 750 l 1,156,-1
0 750 m 1,160,-1
 50 750 l 1,161,-1
 50 700 l 1,162,-1
 0 700 l 1,163,-1
 0 750 l 1,160,-1
700 850 m 1,164,-1
 750 850 l 1,165,-1
 750 800 l 1,166,-1
 700 800 l 1,167,-1
 700 850 l 1,164,-1
600 850 m 1,168,-1
 650 850 l 1,169,-1
 650 800 l 1,170,-1
 600 800 l 1,171,-1
 600 850 l 1,168,-1
100 850 m 1,172,-1
 150 850 l 1,173,-1
 150 800 l 1,174,-1
 100 800 l 1,175,-1
 100 850 l 1,172,-1
0 850 m 1,176,-1
 50 850 l 1,177,-1
 50 800 l 1,178,-1
 0 800 l 1,179,-1
 0 850 l 1,176,-1
700 950 m 1,180,-1
 750 950 l 1,181,-1
 750 900 l 1,182,-1
 700 900 l 1,183,-1
 700 950 l 1,180,-1
600 950 m 1,184,-1
 650 950 l 1,185,-1
 650 900 l 1,186,-1
 600 900 l 1,187,-1
 600 950 l 1,184,-1
100 950 m 1,188,-1
 150 950 l 1,189,-1
 150 900 l 1,190,-1
 100 900 l 1,191,-1
 100 950 l 1,188,-1
0 950 m 1,192,-1
 50 950 l 1,193,-1
 50 900 l 1,194,-1
 0 900 l 1,195,-1
 0 950 l 1,192,-1
700 1050 m 1,196,-1
 750 1050 l 1,197,-1
 750 1000 l 1,198,-1
 700 1000 l 1,199,-1
 700 1050 l 1,196,-1
600 1050 m 1,200,-1
 650 1050 l 1,201,-1
 650 1000 l 1,202,-1
 600 1000 l 1,203,-1
 600 1050 l 1,200,-1
100 1050 m 1,204,-1
 150 1050 l 1,205,-1
 150 1000 l 1,206,-1
 100 1000 l 1,207,-1
 100 1050 l 1,204,-1
0 1050 m 1,208,-1
 50 1050 l 1,209,-1
 50 1000 l 1,210,-1
 0 1000 l 1,211,-1
 0 1050 l 1,208,-1
700 1150 m 1,212,-1
 750 1150 l 1,213,-1
 750 1100 l 1,214,-1
 700 1100 l 1,215,-1
 700 1150 l 1,212,-1
600 1150 m 1,216,-1
 650 1150 l 1,217,-1
 650 1100 l 1,218,-1
 600 1100 l 1,219,-1
 600 1150 l 1,216,-1
100 1150 m 1,220,-1
 150 1150 l 1,221,-1
 150 1100 l 1,222,-1
 100 1100 l 1,223,-1
 100 1150 l 1,220,-1
EndSplineSet
EndChar

StartChar: I
Encoding: 73 73 41
Width: 900
GlyphClass: 1
Flags: W
LayerCount: 2
Fore
SplineSet
0 1150 m 1,0,-1
 50 1150 l 1,1,-1
 50 1100 l 1,2,-1
 0 1100 l 1,3,-1
 0 1150 l 1,0,-1
700 50 m 1,4,-1
 750 50 l 1,5,-1
 750 0 l 1,6,-1
 700 0 l 1,7,-1
 700 50 l 1,4,-1
600 50 m 1,8,-1
 650 50 l 1,9,-1
 650 0 l 1,10,-1
 600 0 l 1,11,-1
 600 50 l 1,8,-1
500 50 m 1,12,-1
 550 50 l 1,13,-1
 550 0 l 1,14,-1
 500 0 l 1,15,-1
 500 50 l 1,12,-1
400 50 m 1,16,-1
 450 50 l 1,17,-1
 450 0 l 1,18,-1
 400 0 l 1,19,-1
 400 50 l 1,16,-1
300 50 m 1,20,-1
 350 50 l 1,21,-1
 350 0 l 1,22,-1
 300 0 l 1,23,-1
 300 50 l 1,20,-1
200 50 m 1,24,-1
 250 50 l 1,25,-1
 250 0 l 1,26,-1
 200 0 l 1,27,-1
 200 50 l 1,24,-1
100 50 m 1,28,-1
 150 50 l 1,29,-1
 150 0 l 1,30,-1
 100 0 l 1,31,-1
 100 50 l 1,28,-1
0 50 m 1,32,-1
 50 50 l 1,33,-1
 50 0 l 1,34,-1
 0 0 l 1,35,-1
 0 50 l 1,32,-1
700 150 m 1,36,-1
 750 150 l 1,37,-1
 750 100 l 1,38,-1
 700 100 l 1,39,-1
 700 150 l 1,36,-1
600 150 m 1,40,-1
 650 150 l 1,41,-1
 650 100 l 1,42,-1
 600 100 l 1,43,-1
 600 150 l 1,40,-1
500 150 m 1,44,-1
 550 150 l 1,45,-1
 550 100 l 1,46,-1
 500 100 l 1,47,-1
 500 150 l 1,44,-1
400 150 m 1,48,-1
 450 150 l 1,49,-1
 450 100 l 1,50,-1
 400 100 l 1,51,-1
 400 150 l 1,48,-1
300 150 m 1,52,-1
 350 150 l 1,53,-1
 350 100 l 1,54,-1
 300 100 l 1,55,-1
 300 150 l 1,52,-1
200 150 m 1,56,-1
 250 150 l 1,57,-1
 250 100 l 1,58,-1
 200 100 l 1,59,-1
 200 150 l 1,56,-1
100 150 m 1,60,-1
 150 150 l 1,61,-1
 150 100 l 1,62,-1
 100 100 l 1,63,-1
 100 150 l 1,60,-1
0 150 m 1,64,-1
 50 150 l 1,65,-1
 50 100 l 1,66,-1
 0 100 l 1,67,-1
 0 150 l 1,64,-1
400 250 m 1,68,-1
 450 250 l 1,69,-1
 450 200 l 1,70,-1
 400 200 l 1,71,-1
 400 250 l 1,68,-1
300 250 m 1,72,-1
 350 250 l 1,73,-1
 350 200 l 1,74,-1
 300 200 l 1,75,-1
 300 250 l 1,72,-1
400 350 m 1,76,-1
 450 350 l 1,77,-1
 450 300 l 1,78,-1
 400 300 l 1,79,-1
 400 350 l 1,76,-1
300 350 m 1,80,-1
 350 350 l 1,81,-1
 350 300 l 1,82,-1
 300 300 l 1,83,-1
 300 350 l 1,80,-1
400 450 m 1,84,-1
 450 450 l 1,85,-1
 450 400 l 1,86,-1
 400 400 l 1,87,-1
 400 450 l 1,84,-1
300 450 m 1,88,-1
 350 450 l 1,89,-1
 350 400 l 1,90,-1
 300 400 l 1,91,-1
 300 450 l 1,88,-1
400 550 m 1,92,-1
 450 550 l 1,93,-1
 450 500 l 1,94,-1
 400 500 l 1,95,-1
 400 550 l 1,92,-1
300 550 m 1,96,-1
 350 550 l 1,97,-1
 350 500 l 1,98,-1
 300 500 l 1,99,-1
 300 550 l 1,96,-1
400 650 m 1,100,-1
 450 650 l 1,101,-1
 450 600 l 1,102,-1
 400 600 l 1,103,-1
 400 650 l 1,100,-1
300 650 m 1,104,-1
 350 650 l 1,105,-1
 350 600 l 1,106,-1
 300 600 l 1,107,-1
 300 650 l 1,104,-1
400 750 m 1,108,-1
 450 750 l 1,109,-1
 450 700 l 1,110,-1
 400 700 l 1,111,-1
 400 750 l 1,108,-1
300 750 m 1,112,-1
 350 750 l 1,113,-1
 350 700 l 1,114,-1
 300 700 l 1,115,-1
 300 750 l 1,112,-1
400 850 m 1,116,-1
 450 850 l 1,117,-1
 450 800 l 1,118,-1
 400 800 l 1,119,-1
 400 850 l 1,116,-1
300 850 m 1,120,-1
 350 850 l 1,121,-1
 350 800 l 1,122,-1
 300 800 l 1,123,-1
 300 850 l 1,120,-1
400 950 m 1,124,-1
 450 950 l 1,125,-1
 450 900 l 1,126,-1
 400 900 l 1,127,-1
 400 950 l 1,124,-1
300 950 m 1,128,-1
 350 950 l 1,129,-1
 350 900 l 1,130,-1
 300 900 l 1,131,-1
 300 950 l 1,128,-1
700 1050 m 1,132,-1
 750 1050 l 1,133,-1
 750 1000 l 1,134,-1
 700 1000 l 1,135,-1
 700 1050 l 1,132,-1
600 1050 m 1,136,-1
 650 1050 l 1,137,-1
 650 1000 l 1,138,-1
 600 1000 l 1,139,-1
 600 1050 l 1,136,-1
500 1050 m 1,140,-1
 550 1050 l 1,141,-1
 550 1000 l 1,142,-1
 500 1000 l 1,143,-1
 500 1050 l 1,140,-1
400 1050 m 1,144,-1
 450 1050 l 1,145,-1
 450 1000 l 1,146,-1
 400 1000 l 1,147,-1
 400 1050 l 1,144,-1
300 1050 m 1,148,-1
 350 1050 l 1,149,-1
 350 1000 l 1,150,-1
 300 1000 l 1,151,-1
 300 1050 l 1,148,-1
200 1050 m 1,152,-1
 250 1050 l 1,153,-1
 250 1000 l 1,154,-1
 200 1000 l 1,155,-1
 200 1050 l 1,152,-1
100 1050 m 1,156,-1
 150 1050 l 1,157,-1
 150 1000 l 1,158,-1
 100 1000 l 1,159,-1
 100 1050 l 1,156,-1
0 1050 m 1,160,-1
 50 1050 l 1,161,-1
 50 1000 l 1,162,-1
 0 1000 l 1,163,-1
 0 1050 l 1,160,-1
700 1150 m 1,164,-1
 750 1150 l 1,165,-1
 750 1100 l 1,166,-1
 700 1100 l 1,167,-1
 700 1150 l 1,164,-1
600 1150 m 1,168,-1
 650 1150 l 1,169,-1
 650 1100 l 1,170,-1
 600 1100 l 1,171,-1
 600 1150 l 1,168,-1
500 1150 m 1,172,-1
 550 1150 l 1,173,-1
 550 1100 l 1,174,-1
 500 1100 l 1,175,-1
 500 1150 l 1,172,-1
400 1150 m 1,176,-1
 450 1150 l 1,177,-1
 450 1100 l 1,178,-1
 400 1100 l 1,179,-1
 400 1150 l 1,176,-1
300 1150 m 1,180,-1
 350 1150 l 1,181,-1
 350 1100 l 1,182,-1
 300 1100 l 1,183,-1
 300 1150 l 1,180,-1
200 1150 m 1,184,-1
 250 1150 l 1,185,-1
 250 1100 l 1,186,-1
 200 1100 l 1,187,-1
 200 1150 l 1,184,-1
100 1150 m 1,188,-1
 150 1150 l 1,189,-1
 150 1100 l 1,190,-1
 100 1100 l 1,191,-1
 100 1150 l 1,188,-1
EndSplineSet
EndChar

StartChar: J
Encoding: 74 74 42
Width: 900
GlyphClass: 1
Flags: W
LayerCount: 2
Fore
SplineSet
0 1150 m 1,0,-1
 50 1150 l 1,1,-1
 50 1100 l 1,2,-1
 0 1100 l 1,3,-1
 0 1150 l 1,0,-1
600 50 m 1,4,-1
 650 50 l 1,5,-1
 650 0 l 1,6,-1
 600 0 l 1,7,-1
 600 50 l 1,4,-1
500 50 m 1,8,-1
 550 50 l 1,9,-1
 550 0 l 1,10,-1
 500 0 l 1,11,-1
 500 50 l 1,8,-1
400 50 m 1,12,-1
 450 50 l 1,13,-1
 450 0 l 1,14,-1
 400 0 l 1,15,-1
 400 50 l 1,12,-1
300 50 m 1,16,-1
 350 50 l 1,17,-1
 350 0 l 1,18,-1
 300 0 l 1,19,-1
 300 50 l 1,16,-1
200 50 m 1,20,-1
 250 50 l 1,21,-1
 250 0 l 1,22,-1
 200 0 l 1,23,-1
 200 50 l 1,20,-1
100 50 m 1,24,-1
 150 50 l 1,25,-1
 150 0 l 1,26,-1
 100 0 l 1,27,-1
 100 50 l 1,24,-1
700 150 m 1,28,-1
 750 150 l 1,29,-1
 750 100 l 1,30,-1
 700 100 l 1,31,-1
 700 150 l 1,28,-1
600 150 m 1,32,-1
 650 150 l 1,33,-1
 650 100 l 1,34,-1
 600 100 l 1,35,-1
 600 150 l 1,32,-1
500 150 m 1,36,-1
 550 150 l 1,37,-1
 550 100 l 1,38,-1
 500 100 l 1,39,-1
 500 150 l 1,36,-1
400 150 m 1,40,-1
 450 150 l 1,41,-1
 450 100 l 1,42,-1
 400 100 l 1,43,-1
 400 150 l 1,40,-1
300 150 m 1,44,-1
 350 150 l 1,45,-1
 350 100 l 1,46,-1
 300 100 l 1,47,-1
 300 150 l 1,44,-1
200 150 m 1,48,-1
 250 150 l 1,49,-1
 250 100 l 1,50,-1
 200 100 l 1,51,-1
 200 150 l 1,48,-1
100 150 m 1,52,-1
 150 150 l 1,53,-1
 150 100 l 1,54,-1
 100 100 l 1,55,-1
 100 150 l 1,52,-1
0 150 m 1,56,-1
 50 150 l 1,57,-1
 50 100 l 1,58,-1
 0 100 l 1,59,-1
 0 150 l 1,56,-1
700 250 m 1,60,-1
 750 250 l 1,61,-1
 750 200 l 1,62,-1
 700 200 l 1,63,-1
 700 250 l 1,60,-1
600 250 m 1,64,-1
 650 250 l 1,65,-1
 650 200 l 1,66,-1
 600 200 l 1,67,-1
 600 250 l 1,64,-1
100 250 m 1,68,-1
 150 250 l 1,69,-1
 150 200 l 1,70,-1
 100 200 l 1,71,-1
 100 250 l 1,68,-1
0 250 m 1,72,-1
 50 250 l 1,73,-1
 50 200 l 1,74,-1
 0 200 l 1,75,-1
 0 250 l 1,72,-1
700 350 m 1,76,-1
 750 350 l 1,77,-1
 750 300 l 1,78,-1
 700 300 l 1,79,-1
 700 350 l 1,76,-1
600 350 m 1,80,-1
 650 350 l 1,81,-1
 650 300 l 1,82,-1
 600 300 l 1,83,-1
 600 350 l 1,80,-1
100 350 m 1,84,-1
 150 350 l 1,85,-1
 150 300 l 1,86,-1
 100 300 l 1,87,-1
 100 350 l 1,84,-1
0 350 m 1,88,-1
 50 350 l 1,89,-1
 50 300 l 1,90,-1
 0 300 l 1,91,-1
 0 350 l 1,88,-1
700 450 m 1,92,-1
 750 450 l 1,93,-1
 750 400 l 1,94,-1
 700 400 l 1,95,-1
 700 450 l 1,92,-1
600 450 m 1,96,-1
 650 450 l 1,97,-1
 650 400 l 1,98,-1
 600 400 l 1,99,-1
 600 450 l 1,96,-1
100 450 m 1,100,-1
 150 450 l 1,101,-1
 150 400 l 1,102,-1
 100 400 l 1,103,-1
 100 450 l 1,100,-1
0 450 m 1,104,-1
 50 450 l 1,105,-1
 50 400 l 1,106,-1
 0 400 l 1,107,-1
 0 450 l 1,104,-1
700 550 m 1,108,-1
 750 550 l 1,109,-1
 750 500 l 1,110,-1
 700 500 l 1,111,-1
 700 550 l 1,108,-1
600 550 m 1,112,-1
 650 550 l 1,113,-1
 650 500 l 1,114,-1
 600 500 l 1,115,-1
 600 550 l 1,112,-1
100 550 m 1,116,-1
 150 550 l 1,117,-1
 150 500 l 1,118,-1
 100 500 l 1,119,-1
 100 550 l 1,116,-1
0 550 m 1,120,-1
 50 550 l 1,121,-1
 50 500 l 1,122,-1
 0 500 l 1,123,-1
 0 550 l 1,120,-1
700 650 m 1,124,-1
 750 650 l 1,125,-1
 750 600 l 1,126,-1
 700 600 l 1,127,-1
 700 650 l 1,124,-1
600 650 m 1,128,-1
 650 650 l 1,129,-1
 650 600 l 1,130,-1
 600 600 l 1,131,-1
 600 650 l 1,128,-1
700 750 m 1,132,-1
 750 750 l 1,133,-1
 750 700 l 1,134,-1
 700 700 l 1,135,-1
 700 750 l 1,132,-1
600 750 m 1,136,-1
 650 750 l 1,137,-1
 650 700 l 1,138,-1
 600 700 l 1,139,-1
 600 750 l 1,136,-1
700 850 m 1,140,-1
 750 850 l 1,141,-1
 750 800 l 1,142,-1
 700 800 l 1,143,-1
 700 850 l 1,140,-1
600 850 m 1,144,-1
 650 850 l 1,145,-1
 650 800 l 1,146,-1
 600 800 l 1,147,-1
 600 850 l 1,144,-1
700 950 m 1,148,-1
 750 950 l 1,149,-1
 750 900 l 1,150,-1
 700 900 l 1,151,-1
 700 950 l 1,148,-1
600 950 m 1,152,-1
 650 950 l 1,153,-1
 650 900 l 1,154,-1
 600 900 l 1,155,-1
 600 950 l 1,152,-1
100 950 m 1,156,-1
 150 950 l 1,157,-1
 150 900 l 1,158,-1
 100 900 l 1,159,-1
 100 950 l 1,156,-1
0 950 m 1,160,-1
 50 950 l 1,161,-1
 50 900 l 1,162,-1
 0 900 l 1,163,-1
 0 950 l 1,160,-1
700 1050 m 1,164,-1
 750 1050 l 1,165,-1
 750 1000 l 1,166,-1
 700 1000 l 1,167,-1
 700 1050 l 1,164,-1
600 1050 m 1,168,-1
 650 1050 l 1,169,-1
 650 1000 l 1,170,-1
 600 1000 l 1,171,-1
 600 1050 l 1,168,-1
500 1050 m 1,172,-1
 550 1050 l 1,173,-1
 550 1000 l 1,174,-1
 500 1000 l 1,175,-1
 500 1050 l 1,172,-1
400 1050 m 1,176,-1
 450 1050 l 1,177,-1
 450 1000 l 1,178,-1
 400 1000 l 1,179,-1
 400 1050 l 1,176,-1
300 1050 m 1,180,-1
 350 1050 l 1,181,-1
 350 1000 l 1,182,-1
 300 1000 l 1,183,-1
 300 1050 l 1,180,-1
200 1050 m 1,184,-1
 250 1050 l 1,185,-1
 250 1000 l 1,186,-1
 200 1000 l 1,187,-1
 200 1050 l 1,184,-1
100 1050 m 1,188,-1
 150 1050 l 1,189,-1
 150 1000 l 1,190,-1
 100 1000 l 1,191,-1
 100 1050 l 1,188,-1
0 1050 m 1,192,-1
 50 1050 l 1,193,-1
 50 1000 l 1,194,-1
 0 1000 l 1,195,-1
 0 1050 l 1,192,-1
700 1150 m 1,196,-1
 750 1150 l 1,197,-1
 750 1100 l 1,198,-1
 700 1100 l 1,199,-1
 700 1150 l 1,196,-1
600 1150 m 1,200,-1
 650 1150 l 1,201,-1
 650 1100 l 1,202,-1
 600 1100 l 1,203,-1
 600 1150 l 1,200,-1
500 1150 m 1,204,-1
 550 1150 l 1,205,-1
 550 1100 l 1,206,-1
 500 1100 l 1,207,-1
 500 1150 l 1,204,-1
400 1150 m 1,208,-1
 450 1150 l 1,209,-1
 450 1100 l 1,210,-1
 400 1100 l 1,211,-1
 400 1150 l 1,208,-1
300 1150 m 1,212,-1
 350 1150 l 1,213,-1
 350 1100 l 1,214,-1
 300 1100 l 1,215,-1
 300 1150 l 1,212,-1
200 1150 m 1,216,-1
 250 1150 l 1,217,-1
 250 1100 l 1,218,-1
 200 1100 l 1,219,-1
 200 1150 l 1,216,-1
100 1150 m 1,220,-1
 150 1150 l 1,221,-1
 150 1100 l 1,222,-1
 100 1100 l 1,223,-1
 100 1150 l 1,220,-1
EndSplineSet
EndChar

StartChar: K
Encoding: 75 75 43
Width: 900
GlyphClass: 1
Flags: W
LayerCount: 2
Fore
SplineSet
0 1150 m 1,0,-1
 50 1150 l 1,1,-1
 50 1100 l 1,2,-1
 0 1100 l 1,3,-1
 0 1150 l 1,0,-1
700 50 m 1,4,-1
 750 50 l 1,5,-1
 750 0 l 1,6,-1
 700 0 l 1,7,-1
 700 50 l 1,4,-1
600 50 m 1,8,-1
 650 50 l 1,9,-1
 650 0 l 1,10,-1
 600 0 l 1,11,-1
 600 50 l 1,8,-1
100 50 m 1,12,-1
 150 50 l 1,13,-1
 150 0 l 1,14,-1
 100 0 l 1,15,-1
 100 50 l 1,12,-1
0 50 m 1,16,-1
 50 50 l 1,17,-1
 50 0 l 1,18,-1
 0 0 l 1,19,-1
 0 50 l 1,16,-1
700 150 m 1,20,-1
 750 150 l 1,21,-1
 750 100 l 1,22,-1
 700 100 l 1,23,-1
 700 150 l 1,20,-1
600 150 m 1,24,-1
 650 150 l 1,25,-1
 650 100 l 1,26,-1
 600 100 l 1,27,-1
 600 150 l 1,24,-1
100 150 m 1,28,-1
 150 150 l 1,29,-1
 150 100 l 1,30,-1
 100 100 l 1,31,-1
 100 150 l 1,28,-1
0 150 m 1,32,-1
 50 150 l 1,33,-1
 50 100 l 1,34,-1
 0 100 l 1,35,-1
 0 150 l 1,32,-1
700 250 m 1,36,-1
 750 250 l 1,37,-1
 750 200 l 1,38,-1
 700 200 l 1,39,-1
 700 250 l 1,36,-1
600 250 m 1,40,-1
 650 250 l 1,41,-1
 650 200 l 1,42,-1
 600 200 l 1,43,-1
 600 250 l 1,40,-1
100 250 m 1,44,-1
 150 250 l 1,45,-1
 150 200 l 1,46,-1
 100 200 l 1,47,-1
 100 250 l 1,44,-1
0 250 m 1,48,-1
 50 250 l 1,49,-1
 50 200 l 1,50,-1
 0 200 l 1,51,-1
 0 250 l 1,48,-1
600 350 m 1,52,-1
 650 350 l 1,53,-1
 650 300 l 1,54,-1
 600 300 l 1,55,-1
 600 350 l 1,52,-1
500 350 m 1,56,-1
 550 350 l 1,57,-1
 550 300 l 1,58,-1
 500 300 l 1,59,-1
 500 350 l 1,56,-1
100 350 m 1,60,-1
 150 350 l 1,61,-1
 150 300 l 1,62,-1
 100 300 l 1,63,-1
 100 350 l 1,60,-1
0 350 m 1,64,-1
 50 350 l 1,65,-1
 50 300 l 1,66,-1
 0 300 l 1,67,-1
 0 350 l 1,64,-1
500 450 m 1,68,-1
 550 450 l 1,69,-1
 550 400 l 1,70,-1
 500 400 l 1,71,-1
 500 450 l 1,68,-1
400 450 m 1,72,-1
 450 450 l 1,73,-1
 450 400 l 1,74,-1
 400 400 l 1,75,-1
 400 450 l 1,72,-1
100 450 m 1,76,-1
 150 450 l 1,77,-1
 150 400 l 1,78,-1
 100 400 l 1,79,-1
 100 450 l 1,76,-1
0 450 m 1,80,-1
 50 450 l 1,81,-1
 50 400 l 1,82,-1
 0 400 l 1,83,-1
 0 450 l 1,80,-1
400 550 m 1,84,-1
 450 550 l 1,85,-1
 450 500 l 1,86,-1
 400 500 l 1,87,-1
 400 550 l 1,84,-1
300 550 m 1,88,-1
 350 550 l 1,89,-1
 350 500 l 1,90,-1
 300 500 l 1,91,-1
 300 550 l 1,88,-1
200 550 m 1,92,-1
 250 550 l 1,93,-1
 250 500 l 1,94,-1
 200 500 l 1,95,-1
 200 550 l 1,92,-1
100 550 m 1,96,-1
 150 550 l 1,97,-1
 150 500 l 1,98,-1
 100 500 l 1,99,-1
 100 550 l 1,96,-1
0 550 m 1,100,-1
 50 550 l 1,101,-1
 50 500 l 1,102,-1
 0 500 l 1,103,-1
 0 550 l 1,100,-1
400 650 m 1,104,-1
 450 650 l 1,105,-1
 450 600 l 1,106,-1
 400 600 l 1,107,-1
 400 650 l 1,104,-1
300 650 m 1,108,-1
 350 650 l 1,109,-1
 350 600 l 1,110,-1
 300 600 l 1,111,-1
 300 650 l 1,108,-1
200 650 m 1,112,-1
 250 650 l 1,113,-1
 250 600 l 1,114,-1
 200 600 l 1,115,-1
 200 650 l 1,112,-1
100 650 m 1,116,-1
 150 650 l 1,117,-1
 150 600 l 1,118,-1
 100 600 l 1,119,-1
 100 650 l 1,116,-1
0 650 m 1,120,-1
 50 650 l 1,121,-1
 50 600 l 1,122,-1
 0 600 l 1,123,-1
 0 650 l 1,120,-1
500 750 m 1,124,-1
 550 750 l 1,125,-1
 550 700 l 1,126,-1
 500 700 l 1,127,-1
 500 750 l 1,124,-1
400 750 m 1,128,-1
 450 750 l 1,129,-1
 450 700 l 1,130,-1
 400 700 l 1,131,-1
 400 750 l 1,128,-1
100 750 m 1,132,-1
 150 750 l 1,133,-1
 150 700 l 1,134,-1
 100 700 l 1,135,-1
 100 750 l 1,132,-1
0 750 m 1,136,-1
 50 750 l 1,137,-1
 50 700 l 1,138,-1
 0 700 l 1,139,-1
 0 750 l 1,136,-1
600 850 m 1,140,-1
 650 850 l 1,141,-1
 650 800 l 1,142,-1
 600 800 l 1,143,-1
 600 850 l 1,140,-1
500 850 m 1,144,-1
 550 850 l 1,145,-1
 550 800 l 1,146,-1
 500 800 l 1,147,-1
 500 850 l 1,144,-1
100 850 m 1,148,-1
 150 850 l 1,149,-1
 150 800 l 1,150,-1
 100 800 l 1,151,-1
 100 850 l 1,148,-1
0 850 m 1,152,-1
 50 850 l 1,153,-1
 50 800 l 1,154,-1
 0 800 l 1,155,-1
 0 850 l 1,152,-1
700 950 m 1,156,-1
 750 950 l 1,157,-1
 750 900 l 1,158,-1
 700 900 l 1,159,-1
 700 950 l 1,156,-1
600 950 m 1,160,-1
 650 950 l 1,161,-1
 650 900 l 1,162,-1
 600 900 l 1,163,-1
 600 950 l 1,160,-1
100 950 m 1,164,-1
 150 950 l 1,165,-1
 150 900 l 1,166,-1
 100 900 l 1,167,-1
 100 950 l 1,164,-1
0 950 m 1,168,-1
 50 950 l 1,169,-1
 50 900 l 1,170,-1
 0 900 l 1,171,-1
 0 950 l 1,168,-1
700 1050 m 1,172,-1
 750 1050 l 1,173,-1
 750 1000 l 1,174,-1
 700 1000 l 1,175,-1
 700 1050 l 1,172,-1
600 1050 m 1,176,-1
 650 1050 l 1,177,-1
 650 1000 l 1,178,-1
 600 1000 l 1,179,-1
 600 1050 l 1,176,-1
100 1050 m 1,180,-1
 150 1050 l 1,181,-1
 150 1000 l 1,182,-1
 100 1000 l 1,183,-1
 100 1050 l 1,180,-1
0 1050 m 1,184,-1
 50 1050 l 1,185,-1
 50 1000 l 1,186,-1
 0 1000 l 1,187,-1
 0 1050 l 1,184,-1
700 1150 m 1,188,-1
 750 1150 l 1,189,-1
 750 1100 l 1,190,-1
 700 1100 l 1,191,-1
 700 1150 l 1,188,-1
600 1150 m 1,192,-1
 650 1150 l 1,193,-1
 650 1100 l 1,194,-1
 600 1100 l 1,195,-1
 600 1150 l 1,192,-1
100 1150 m 1,196,-1
 150 1150 l 1,197,-1
 150 1100 l 1,198,-1
 100 1100 l 1,199,-1
 100 1150 l 1,196,-1
EndSplineSet
EndChar

StartChar: L
Encoding: 76 76 44
Width: 900
GlyphClass: 1
Flags: W
LayerCount: 2
Fore
SplineSet
0 1150 m 1,0,-1
 50 1150 l 1,1,-1
 50 1100 l 1,2,-1
 0 1100 l 1,3,-1
 0 1150 l 1,0,-1
700 50 m 1,4,-1
 750 50 l 1,5,-1
 750 0 l 1,6,-1
 700 0 l 1,7,-1
 700 50 l 1,4,-1
600 50 m 1,8,-1
 650 50 l 1,9,-1
 650 0 l 1,10,-1
 600 0 l 1,11,-1
 600 50 l 1,8,-1
500 50 m 1,12,-1
 550 50 l 1,13,-1
 550 0 l 1,14,-1
 500 0 l 1,15,-1
 500 50 l 1,12,-1
400 50 m 1,16,-1
 450 50 l 1,17,-1
 450 0 l 1,18,-1
 400 0 l 1,19,-1
 400 50 l 1,16,-1
300 50 m 1,20,-1
 350 50 l 1,21,-1
 350 0 l 1,22,-1
 300 0 l 1,23,-1
 300 50 l 1,20,-1
200 50 m 1,24,-1
 250 50 l 1,25,-1
 250 0 l 1,26,-1
 200 0 l 1,27,-1
 200 50 l 1,24,-1
100 50 m 1,28,-1
 150 50 l 1,29,-1
 150 0 l 1,30,-1
 100 0 l 1,31,-1
 100 50 l 1,28,-1
0 50 m 1,32,-1
 50 50 l 1,33,-1
 50 0 l 1,34,-1
 0 0 l 1,35,-1
 0 50 l 1,32,-1
700 150 m 1,36,-1
 750 150 l 1,37,-1
 750 100 l 1,38,-1
 700 100 l 1,39,-1
 700 150 l 1,36,-1
600 150 m 1,40,-1
 650 150 l 1,41,-1
 650 100 l 1,42,-1
 600 100 l 1,43,-1
 600 150 l 1,40,-1
500 150 m 1,44,-1
 550 150 l 1,45,-1
 550 100 l 1,46,-1
 500 100 l 1,47,-1
 500 150 l 1,44,-1
400 150 m 1,48,-1
 450 150 l 1,49,-1
 450 100 l 1,50,-1
 400 100 l 1,51,-1
 400 150 l 1,48,-1
300 150 m 1,52,-1
 350 150 l 1,53,-1
 350 100 l 1,54,-1
 300 100 l 1,55,-1
 300 150 l 1,52,-1
200 150 m 1,56,-1
 250 150 l 1,57,-1
 250 100 l 1,58,-1
 200 100 l 1,59,-1
 200 150 l 1,56,-1
100 150 m 1,60,-1
 150 150 l 1,61,-1
 150 100 l 1,62,-1
 100 100 l 1,63,-1
 100 150 l 1,60,-1
0 150 m 1,64,-1
 50 150 l 1,65,-1
 50 100 l 1,66,-1
 0 100 l 1,67,-1
 0 150 l 1,64,-1
100 250 m 1,68,-1
 150 250 l 1,69,-1
 150 200 l 1,70,-1
 100 200 l 1,71,-1
 100 250 l 1,68,-1
0 250 m 1,72,-1
 50 250 l 1,73,-1
 50 200 l 1,74,-1
 0 200 l 1,75,-1
 0 250 l 1,72,-1
100 350 m 1,76,-1
 150 350 l 1,77,-1
 150 300 l 1,78,-1
 100 300 l 1,79,-1
 100 350 l 1,76,-1
0 350 m 1,80,-1
 50 350 l 1,81,-1
 50 300 l 1,82,-1
 0 300 l 1,83,-1
 0 350 l 1,80,-1
100 450 m 1,84,-1
 150 450 l 1,85,-1
 150 400 l 1,86,-1
 100 400 l 1,87,-1
 100 450 l 1,84,-1
0 450 m 1,88,-1
 50 450 l 1,89,-1
 50 400 l 1,90,-1
 0 400 l 1,91,-1
 0 450 l 1,88,-1
100 550 m 1,92,-1
 150 550 l 1,93,-1
 150 500 l 1,94,-1
 100 500 l 1,95,-1
 100 550 l 1,92,-1
0 550 m 1,96,-1
 50 550 l 1,97,-1
 50 500 l 1,98,-1
 0 500 l 1,99,-1
 0 550 l 1,96,-1
100 650 m 1,100,-1
 150 650 l 1,101,-1
 150 600 l 1,102,-1
 100 600 l 1,103,-1
 100 650 l 1,100,-1
0 650 m 1,104,-1
 50 650 l 1,105,-1
 50 600 l 1,106,-1
 0 600 l 1,107,-1
 0 650 l 1,104,-1
100 750 m 1,108,-1
 150 750 l 1,109,-1
 150 700 l 1,110,-1
 100 700 l 1,111,-1
 100 750 l 1,108,-1
0 750 m 1,112,-1
 50 750 l 1,113,-1
 50 700 l 1,114,-1
 0 700 l 1,115,-1
 0 750 l 1,112,-1
100 850 m 1,116,-1
 150 850 l 1,117,-1
 150 800 l 1,118,-1
 100 800 l 1,119,-1
 100 850 l 1,116,-1
0 850 m 1,120,-1
 50 850 l 1,121,-1
 50 800 l 1,122,-1
 0 800 l 1,123,-1
 0 850 l 1,120,-1
100 950 m 1,124,-1
 150 950 l 1,125,-1
 150 900 l 1,126,-1
 100 900 l 1,127,-1
 100 950 l 1,124,-1
0 950 m 1,128,-1
 50 950 l 1,129,-1
 50 900 l 1,130,-1
 0 900 l 1,131,-1
 0 950 l 1,128,-1
100 1050 m 1,132,-1
 150 1050 l 1,133,-1
 150 1000 l 1,134,-1
 100 1000 l 1,135,-1
 100 1050 l 1,132,-1
0 1050 m 1,136,-1
 50 1050 l 1,137,-1
 50 1000 l 1,138,-1
 0 1000 l 1,139,-1
 0 1050 l 1,136,-1
100 1150 m 1,140,-1
 150 1150 l 1,141,-1
 150 1100 l 1,142,-1
 100 1100 l 1,143,-1
 100 1150 l 1,140,-1
EndSplineSet
EndChar

StartChar: M
Encoding: 77 77 45
Width: 900
GlyphClass: 1
Flags: W
LayerCount: 2
Fore
SplineSet
0 1150 m 1,0,-1
 50 1150 l 1,1,-1
 50 1100 l 1,2,-1
 0 1100 l 1,3,-1
 0 1150 l 1,0,-1
700 50 m 1,4,-1
 750 50 l 1,5,-1
 750 0 l 1,6,-1
 700 0 l 1,7,-1
 700 50 l 1,4,-1
600 50 m 1,8,-1
 650 50 l 1,9,-1
 650 0 l 1,10,-1
 600 0 l 1,11,-1
 600 50 l 1,8,-1
100 50 m 1,12,-1
 150 50 l 1,13,-1
 150 0 l 1,14,-1
 100 0 l 1,15,-1
 100 50 l 1,12,-1
0 50 m 1,16,-1
 50 50 l 1,17,-1
 50 0 l 1,18,-1
 0 0 l 1,19,-1
 0 50 l 1,16,-1
700 150 m 1,20,-1
 750 150 l 1,21,-1
 750 100 l 1,22,-1
 700 100 l 1,23,-1
 700 150 l 1,20,-1
600 150 m 1,24,-1
 650 150 l 1,25,-1
 650 100 l 1,26,-1
 600 100 l 1,27,-1
 600 150 l 1,24,-1
100 150 m 1,28,-1
 150 150 l 1,29,-1
 150 100 l 1,30,-1
 100 100 l 1,31,-1
 100 150 l 1,28,-1
0 150 m 1,32,-1
 50 150 l 1,33,-1
 50 100 l 1,34,-1
 0 100 l 1,35,-1
 0 150 l 1,32,-1
700 250 m 1,36,-1
 750 250 l 1,37,-1
 750 200 l 1,38,-1
 700 200 l 1,39,-1
 700 250 l 1,36,-1
600 250 m 1,40,-1
 650 250 l 1,41,-1
 650 200 l 1,42,-1
 600 200 l 1,43,-1
 600 250 l 1,40,-1
100 250 m 1,44,-1
 150 250 l 1,45,-1
 150 200 l 1,46,-1
 100 200 l 1,47,-1
 100 250 l 1,44,-1
0 250 m 1,48,-1
 50 250 l 1,49,-1
 50 200 l 1,50,-1
 0 200 l 1,51,-1
 0 250 l 1,48,-1
700 350 m 1,52,-1
 750 350 l 1,53,-1
 750 300 l 1,54,-1
 700 300 l 1,55,-1
 700 350 l 1,52,-1
600 350 m 1,56,-1
 650 350 l 1,57,-1
 650 300 l 1,58,-1
 600 300 l 1,59,-1
 600 350 l 1,56,-1
100 350 m 1,60,-1
 150 350 l 1,61,-1
 150 300 l 1,62,-1
 100 300 l 1,63,-1
 100 350 l 1,60,-1
0 350 m 1,64,-1
 50 350 l 1,65,-1
 50 300 l 1,66,-1
 0 300 l 1,67,-1
 0 350 l 1,64,-1
700 450 m 1,68,-1
 750 450 l 1,69,-1
 750 400 l 1,70,-1
 700 400 l 1,71,-1
 700 450 l 1,68,-1
600 450 m 1,72,-1
 650 450 l 1,73,-1
 650 400 l 1,74,-1
 600 400 l 1,75,-1
 600 450 l 1,72,-1
400 450 m 1,76,-1
 450 450 l 1,77,-1
 450 400 l 1,78,-1
 400 400 l 1,79,-1
 400 450 l 1,76,-1
300 450 m 1,80,-1
 350 450 l 1,81,-1
 350 400 l 1,82,-1
 300 400 l 1,83,-1
 300 450 l 1,80,-1
100 450 m 1,84,-1
 150 450 l 1,85,-1
 150 400 l 1,86,-1
 100 400 l 1,87,-1
 100 450 l 1,84,-1
0 450 m 1,88,-1
 50 450 l 1,89,-1
 50 400 l 1,90,-1
 0 400 l 1,91,-1
 0 450 l 1,88,-1
700 550 m 1,92,-1
 750 550 l 1,93,-1
 750 500 l 1,94,-1
 700 500 l 1,95,-1
 700 550 l 1,92,-1
600 550 m 1,96,-1
 650 550 l 1,97,-1
 650 500 l 1,98,-1
 600 500 l 1,99,-1
 600 550 l 1,96,-1
400 550 m 1,100,-1
 450 550 l 1,101,-1
 450 500 l 1,102,-1
 400 500 l 1,103,-1
 400 550 l 1,100,-1
300 550 m 1,104,-1
 350 550 l 1,105,-1
 350 500 l 1,106,-1
 300 500 l 1,107,-1
 300 550 l 1,104,-1
100 550 m 1,108,-1
 150 550 l 1,109,-1
 150 500 l 1,110,-1
 100 500 l 1,111,-1
 100 550 l 1,108,-1
0 550 m 1,112,-1
 50 550 l 1,113,-1
 50 500 l 1,114,-1
 0 500 l 1,115,-1
 0 550 l 1,112,-1
700 650 m 1,116,-1
 750 650 l 1,117,-1
 750 600 l 1,118,-1
 700 600 l 1,119,-1
 700 650 l 1,116,-1
600 650 m 1,120,-1
 650 650 l 1,121,-1
 650 600 l 1,122,-1
 600 600 l 1,123,-1
 600 650 l 1,120,-1
500 650 m 1,124,-1
 550 650 l 1,125,-1
 550 600 l 1,126,-1
 500 600 l 1,127,-1
 500 650 l 1,124,-1
400 650 m 1,128,-1
 450 650 l 1,129,-1
 450 600 l 1,130,-1
 400 600 l 1,131,-1
 400 650 l 1,128,-1
300 650 m 1,132,-1
 350 650 l 1,133,-1
 350 600 l 1,134,-1
 300 600 l 1,135,-1
 300 650 l 1,132,-1
200 650 m 1,136,-1
 250 650 l 1,137,-1
 250 600 l 1,138,-1
 200 600 l 1,139,-1
 200 650 l 1,136,-1
100 650 m 1,140,-1
 150 650 l 1,141,-1
 150 600 l 1,142,-1
 100 600 l 1,143,-1
 100 650 l 1,140,-1
0 650 m 1,144,-1
 50 650 l 1,145,-1
 50 600 l 1,146,-1
 0 600 l 1,147,-1
 0 650 l 1,144,-1
700 750 m 1,148,-1
 750 750 l 1,149,-1
 750 700 l 1,150,-1
 700 700 l 1,151,-1
 700 750 l 1,148,-1
600 750 m 1,152,-1
 650 750 l 1,153,-1
 650 700 l 1,154,-1
 600 700 l 1,155,-1
 600 750 l 1,152,-1
500 750 m 1,156,-1
 550 750 l 1,157,-1
 550 700 l 1,158,-1
 500 700 l 1,159,-1
 500 750 l 1,156,-1
200 750 m 1,160,-1
 250 750 l 1,161,-1
 250 700 l 1,162,-1
 200 700 l 1,163,-1
 200 750 l 1,160,-1
100 750 m 1,164,-1
 150 750 l 1,165,-1
 150 700 l 1,166,-1
 100 700 l 1,167,-1
 100 750 l 1,164,-1
0 750 m 1,168,-1
 50 750 l 1,169,-1
 50 700 l 1,170,-1
 0 700 l 1,171,-1
 0 750 l 1,168,-1
700 850 m 1,172,-1
 750 850 l 1,173,-1
 750 800 l 1,174,-1
 700 800 l 1,175,-1
 700 850 l 1,172,-1
600 850 m 1,176,-1
 650 850 l 1,177,-1
 650 800 l 1,178,-1
 600 800 l 1,179,-1
 600 850 l 1,176,-1
500 850 m 1,180,-1
 550 850 l 1,181,-1
 550 800 l 1,182,-1
 500 800 l 1,183,-1
 500 850 l 1,180,-1
200 850 m 1,184,-1
 250 850 l 1,185,-1
 250 800 l 1,186,-1
 200 800 l 1,187,-1
 200 850 l 1,184,-1
100 850 m 1,188,-1
 150 850 l 1,189,-1
 150 800 l 1,190,-1
 100 800 l 1,191,-1
 100 850 l 1,188,-1
0 850 m 1,192,-1
 50 850 l 1,193,-1
 50 800 l 1,194,-1
 0 800 l 1,195,-1
 0 850 l 1,192,-1
700 950 m 1,196,-1
 750 950 l 1,197,-1
 750 900 l 1,198,-1
 700 900 l 1,199,-1
 700 950 l 1,196,-1
600 950 m 1,200,-1
 650 950 l 1,201,-1
 650 900 l 1,202,-1
 600 900 l 1,203,-1
 600 950 l 1,200,-1
100 950 m 1,204,-1
 150 950 l 1,205,-1
 150 900 l 1,206,-1
 100 900 l 1,207,-1
 100 950 l 1,204,-1
0 950 m 1,208,-1
 50 950 l 1,209,-1
 50 900 l 1,210,-1
 0 900 l 1,211,-1
 0 950 l 1,208,-1
700 1050 m 1,212,-1
 750 1050 l 1,213,-1
 750 1000 l 1,214,-1
 700 1000 l 1,215,-1
 700 1050 l 1,212,-1
600 1050 m 1,216,-1
 650 1050 l 1,217,-1
 650 1000 l 1,218,-1
 600 1000 l 1,219,-1
 600 1050 l 1,216,-1
100 1050 m 1,220,-1
 150 1050 l 1,221,-1
 150 1000 l 1,222,-1
 100 1000 l 1,223,-1
 100 1050 l 1,220,-1
0 1050 m 1,224,-1
 50 1050 l 1,225,-1
 50 1000 l 1,226,-1
 0 1000 l 1,227,-1
 0 1050 l 1,224,-1
700 1150 m 1,228,-1
 750 1150 l 1,229,-1
 750 1100 l 1,230,-1
 700 1100 l 1,231,-1
 700 1150 l 1,228,-1
600 1150 m 1,232,-1
 650 1150 l 1,233,-1
 650 1100 l 1,234,-1
 600 1100 l 1,235,-1
 600 1150 l 1,232,-1
100 1150 m 1,236,-1
 150 1150 l 1,237,-1
 150 1100 l 1,238,-1
 100 1100 l 1,239,-1
 100 1150 l 1,236,-1
EndSplineSet
EndChar

StartChar: N
Encoding: 78 78 46
Width: 900
GlyphClass: 1
Flags: W
LayerCount: 2
Fore
SplineSet
0 1150 m 1,0,-1
 50 1150 l 1,1,-1
 50 1100 l 1,2,-1
 0 1100 l 1,3,-1
 0 1150 l 1,0,-1
700 50 m 1,4,-1
 750 50 l 1,5,-1
 750 0 l 1,6,-1
 700 0 l 1,7,-1
 700 50 l 1,4,-1
600 50 m 1,8,-1
 650 50 l 1,9,-1
 650 0 l 1,10,-1
 600 0 l 1,11,-1
 600 50 l 1,8,-1
100 50 m 1,12,-1
 150 50 l 1,13,-1
 150 0 l 1,14,-1
 100 0 l 1,15,-1
 100 50 l 1,12,-1
0 50 m 1,16,-1
 50 50 l 1,17,-1
 50 0 l 1,18,-1
 0 0 l 1,19,-1
 0 50 l 1,16,-1
700 150 m 1,20,-1
 750 150 l 1,21,-1
 750 100 l 1,22,-1
 700 100 l 1,23,-1
 700 150 l 1,20,-1
600 150 m 1,24,-1
 650 150 l 1,25,-1
 650 100 l 1,26,-1
 600 100 l 1,27,-1
 600 150 l 1,24,-1
100 150 m 1,28,-1
 150 150 l 1,29,-1
 150 100 l 1,30,-1
 100 100 l 1,31,-1
 100 150 l 1,28,-1
0 150 m 1,32,-1
 50 150 l 1,33,-1
 50 100 l 1,34,-1
 0 100 l 1,35,-1
 0 150 l 1,32,-1
700 250 m 1,36,-1
 750 250 l 1,37,-1
 750 200 l 1,38,-1
 700 200 l 1,39,-1
 700 250 l 1,36,-1
600 250 m 1,40,-1
 650 250 l 1,41,-1
 650 200 l 1,42,-1
 600 200 l 1,43,-1
 600 250 l 1,40,-1
100 250 m 1,44,-1
 150 250 l 1,45,-1
 150 200 l 1,46,-1
 100 200 l 1,47,-1
 100 250 l 1,44,-1
0 250 m 1,48,-1
 50 250 l 1,49,-1
 50 200 l 1,50,-1
 0 200 l 1,51,-1
 0 250 l 1,48,-1
700 350 m 1,52,-1
 750 350 l 1,53,-1
 750 300 l 1,54,-1
 700 300 l 1,55,-1
 700 350 l 1,52,-1
600 350 m 1,56,-1
 650 350 l 1,57,-1
 650 300 l 1,58,-1
 600 300 l 1,59,-1
 600 350 l 1,56,-1
100 350 m 1,60,-1
 150 350 l 1,61,-1
 150 300 l 1,62,-1
 100 300 l 1,63,-1
 100 350 l 1,60,-1
0 350 m 1,64,-1
 50 350 l 1,65,-1
 50 300 l 1,66,-1
 0 300 l 1,67,-1
 0 350 l 1,64,-1
700 450 m 1,68,-1
 750 450 l 1,69,-1
 750 400 l 1,70,-1
 700 400 l 1,71,-1
 700 450 l 1,68,-1
600 450 m 1,72,-1
 650 450 l 1,73,-1
 650 400 l 1,74,-1
 600 400 l 1,75,-1
 600 450 l 1,72,-1
500 450 m 1,76,-1
 550 450 l 1,77,-1
 550 400 l 1,78,-1
 500 400 l 1,79,-1
 500 450 l 1,76,-1
100 450 m 1,80,-1
 150 450 l 1,81,-1
 150 400 l 1,82,-1
 100 400 l 1,83,-1
 100 450 l 1,80,-1
0 450 m 1,84,-1
 50 450 l 1,85,-1
 50 400 l 1,86,-1
 0 400 l 1,87,-1
 0 450 l 1,84,-1
700 550 m 1,88,-1
 750 550 l 1,89,-1
 750 500 l 1,90,-1
 700 500 l 1,91,-1
 700 550 l 1,88,-1
600 550 m 1,92,-1
 650 550 l 1,93,-1
 650 500 l 1,94,-1
 600 500 l 1,95,-1
 600 550 l 1,92,-1
500 550 m 1,96,-1
 550 550 l 1,97,-1
 550 500 l 1,98,-1
 500 500 l 1,99,-1
 500 550 l 1,96,-1
400 550 m 1,100,-1
 450 550 l 1,101,-1
 450 500 l 1,102,-1
 400 500 l 1,103,-1
 400 550 l 1,100,-1
100 550 m 1,104,-1
 150 550 l 1,105,-1
 150 500 l 1,106,-1
 100 500 l 1,107,-1
 100 550 l 1,104,-1
0 550 m 1,108,-1
 50 550 l 1,109,-1
 50 500 l 1,110,-1
 0 500 l 1,111,-1
 0 550 l 1,108,-1
700 650 m 1,112,-1
 750 650 l 1,113,-1
 750 600 l 1,114,-1
 700 600 l 1,115,-1
 700 650 l 1,112,-1
600 650 m 1,116,-1
 650 650 l 1,117,-1
 650 600 l 1,118,-1
 600 600 l 1,119,-1
 600 650 l 1,116,-1
400 650 m 1,120,-1
 450 650 l 1,121,-1
 450 600 l 1,122,-1
 400 600 l 1,123,-1
 400 650 l 1,120,-1
300 650 m 1,124,-1
 350 650 l 1,125,-1
 350 600 l 1,126,-1
 300 600 l 1,127,-1
 300 650 l 1,124,-1
100 650 m 1,128,-1
 150 650 l 1,129,-1
 150 600 l 1,130,-1
 100 600 l 1,131,-1
 100 650 l 1,128,-1
0 650 m 1,132,-1
 50 650 l 1,133,-1
 50 600 l 1,134,-1
 0 600 l 1,135,-1
 0 650 l 1,132,-1
700 750 m 1,136,-1
 750 750 l 1,137,-1
 750 700 l 1,138,-1
 700 700 l 1,139,-1
 700 750 l 1,136,-1
600 750 m 1,140,-1
 650 750 l 1,141,-1
 650 700 l 1,142,-1
 600 700 l 1,143,-1
 600 750 l 1,140,-1
300 750 m 1,144,-1
 350 750 l 1,145,-1
 350 700 l 1,146,-1
 300 700 l 1,147,-1
 300 750 l 1,144,-1
200 750 m 1,148,-1
 250 750 l 1,149,-1
 250 700 l 1,150,-1
 200 700 l 1,151,-1
 200 750 l 1,148,-1
100 750 m 1,152,-1
 150 750 l 1,153,-1
 150 700 l 1,154,-1
 100 700 l 1,155,-1
 100 750 l 1,152,-1
0 750 m 1,156,-1
 50 750 l 1,157,-1
 50 700 l 1,158,-1
 0 700 l 1,159,-1
 0 750 l 1,156,-1
700 850 m 1,160,-1
 750 850 l 1,161,-1
 750 800 l 1,162,-1
 700 800 l 1,163,-1
 700 850 l 1,160,-1
600 850 m 1,164,-1
 650 850 l 1,165,-1
 650 800 l 1,166,-1
 600 800 l 1,167,-1
 600 850 l 1,164,-1
200 850 m 1,168,-1
 250 850 l 1,169,-1
 250 800 l 1,170,-1
 200 800 l 1,171,-1
 200 850 l 1,168,-1
100 850 m 1,172,-1
 150 850 l 1,173,-1
 150 800 l 1,174,-1
 100 800 l 1,175,-1
 100 850 l 1,172,-1
0 850 m 1,176,-1
 50 850 l 1,177,-1
 50 800 l 1,178,-1
 0 800 l 1,179,-1
 0 850 l 1,176,-1
700 950 m 1,180,-1
 750 950 l 1,181,-1
 750 900 l 1,182,-1
 700 900 l 1,183,-1
 700 950 l 1,180,-1
600 950 m 1,184,-1
 650 950 l 1,185,-1
 650 900 l 1,186,-1
 600 900 l 1,187,-1
 600 950 l 1,184,-1
100 950 m 1,188,-1
 150 950 l 1,189,-1
 150 900 l 1,190,-1
 100 900 l 1,191,-1
 100 950 l 1,188,-1
0 950 m 1,192,-1
 50 950 l 1,193,-1
 50 900 l 1,194,-1
 0 900 l 1,195,-1
 0 950 l 1,192,-1
700 1050 m 1,196,-1
 750 1050 l 1,197,-1
 750 1000 l 1,198,-1
 700 1000 l 1,199,-1
 700 1050 l 1,196,-1
600 1050 m 1,200,-1
 650 1050 l 1,201,-1
 650 1000 l 1,202,-1
 600 1000 l 1,203,-1
 600 1050 l 1,200,-1
100 1050 m 1,204,-1
 150 1050 l 1,205,-1
 150 1000 l 1,206,-1
 100 1000 l 1,207,-1
 100 1050 l 1,204,-1
0 1050 m 1,208,-1
 50 1050 l 1,209,-1
 50 1000 l 1,210,-1
 0 1000 l 1,211,-1
 0 1050 l 1,208,-1
700 1150 m 1,212,-1
 750 1150 l 1,213,-1
 750 1100 l 1,214,-1
 700 1100 l 1,215,-1
 700 1150 l 1,212,-1
600 1150 m 1,216,-1
 650 1150 l 1,217,-1
 650 1100 l 1,218,-1
 600 1100 l 1,219,-1
 600 1150 l 1,216,-1
100 1150 m 1,220,-1
 150 1150 l 1,221,-1
 150 1100 l 1,222,-1
 100 1100 l 1,223,-1
 100 1150 l 1,220,-1
EndSplineSet
EndChar

StartChar: O
Encoding: 79 79 47
Width: 900
GlyphClass: 1
Flags: W
LayerCount: 2
Fore
SplineSet
100 1150 m 1,0,-1
 150 1150 l 1,1,-1
 150 1100 l 1,2,-1
 100 1100 l 1,3,-1
 100 1150 l 1,0,-1
600 50 m 1,4,-1
 650 50 l 1,5,-1
 650 0 l 1,6,-1
 600 0 l 1,7,-1
 600 50 l 1,4,-1
500 50 m 1,8,-1
 550 50 l 1,9,-1
 550 0 l 1,10,-1
 500 0 l 1,11,-1
 500 50 l 1,8,-1
400 50 m 1,12,-1
 450 50 l 1,13,-1
 450 0 l 1,14,-1
 400 0 l 1,15,-1
 400 50 l 1,12,-1
300 50 m 1,16,-1
 350 50 l 1,17,-1
 350 0 l 1,18,-1
 300 0 l 1,19,-1
 300 50 l 1,16,-1
200 50 m 1,20,-1
 250 50 l 1,21,-1
 250 0 l 1,22,-1
 200 0 l 1,23,-1
 200 50 l 1,20,-1
100 50 m 1,24,-1
 150 50 l 1,25,-1
 150 0 l 1,26,-1
 100 0 l 1,27,-1
 100 50 l 1,24,-1
700 150 m 1,28,-1
 750 150 l 1,29,-1
 750 100 l 1,30,-1
 700 100 l 1,31,-1
 700 150 l 1,28,-1
600 150 m 1,32,-1
 650 150 l 1,33,-1
 650 100 l 1,34,-1
 600 100 l 1,35,-1
 600 150 l 1,32,-1
500 150 m 1,36,-1
 550 150 l 1,37,-1
 550 100 l 1,38,-1
 500 100 l 1,39,-1
 500 150 l 1,36,-1
400 150 m 1,40,-1
 450 150 l 1,41,-1
 450 100 l 1,42,-1
 400 100 l 1,43,-1
 400 150 l 1,40,-1
300 150 m 1,44,-1
 350 150 l 1,45,-1
 350 100 l 1,46,-1
 300 100 l 1,47,-1
 300 150 l 1,44,-1
200 150 m 1,48,-1
 250 150 l 1,49,-1
 250 100 l 1,50,-1
 200 100 l 1,51,-1
 200 150 l 1,48,-1
100 150 m 1,52,-1
 150 150 l 1,53,-1
 150 100 l 1,54,-1
 100 100 l 1,55,-1
 100 150 l 1,52,-1
0 150 m 1,56,-1
 50 150 l 1,57,-1
 50 100 l 1,58,-1
 0 100 l 1,59,-1
 0 150 l 1,56,-1
700 250 m 1,60,-1
 750 250 l 1,61,-1
 750 200 l 1,62,-1
 700 200 l 1,63,-1
 700 250 l 1,60,-1
600 250 m 1,64,-1
 650 250 l 1,65,-1
 650 200 l 1,66,-1
 600 200 l 1,67,-1
 600 250 l 1,64,-1
100 250 m 1,68,-1
 150 250 l 1,69,-1
 150 200 l 1,70,-1
 100 200 l 1,71,-1
 100 250 l 1,68,-1
0 250 m 1,72,-1
 50 250 l 1,73,-1
 50 200 l 1,74,-1
 0 200 l 1,75,-1
 0 250 l 1,72,-1
700 350 m 1,76,-1
 750 350 l 1,77,-1
 750 300 l 1,78,-1
 700 300 l 1,79,-1
 700 350 l 1,76,-1
600 350 m 1,80,-1
 650 350 l 1,81,-1
 650 300 l 1,82,-1
 600 300 l 1,83,-1
 600 350 l 1,80,-1
100 350 m 1,84,-1
 150 350 l 1,85,-1
 150 300 l 1,86,-1
 100 300 l 1,87,-1
 100 350 l 1,84,-1
0 350 m 1,88,-1
 50 350 l 1,89,-1
 50 300 l 1,90,-1
 0 300 l 1,91,-1
 0 350 l 1,88,-1
700 450 m 1,92,-1
 750 450 l 1,93,-1
 750 400 l 1,94,-1
 700 400 l 1,95,-1
 700 450 l 1,92,-1
600 450 m 1,96,-1
 650 450 l 1,97,-1
 650 400 l 1,98,-1
 600 400 l 1,99,-1
 600 450 l 1,96,-1
100 450 m 1,100,-1
 150 450 l 1,101,-1
 150 400 l 1,102,-1
 100 400 l 1,103,-1
 100 450 l 1,100,-1
0 450 m 1,104,-1
 50 450 l 1,105,-1
 50 400 l 1,106,-1
 0 400 l 1,107,-1
 0 450 l 1,104,-1
700 550 m 1,108,-1
 750 550 l 1,109,-1
 750 500 l 1,110,-1
 700 500 l 1,111,-1
 700 550 l 1,108,-1
600 550 m 1,112,-1
 650 550 l 1,113,-1
 650 500 l 1,114,-1
 600 500 l 1,115,-1
 600 550 l 1,112,-1
100 550 m 1,116,-1
 150 550 l 1,117,-1
 150 500 l 1,118,-1
 100 500 l 1,119,-1
 100 550 l 1,116,-1
0 550 m 1,120,-1
 50 550 l 1,121,-1
 50 500 l 1,122,-1
 0 500 l 1,123,-1
 0 550 l 1,120,-1
700 650 m 1,124,-1
 750 650 l 1,125,-1
 750 600 l 1,126,-1
 700 600 l 1,127,-1
 700 650 l 1,124,-1
600 650 m 1,128,-1
 650 650 l 1,129,-1
 650 600 l 1,130,-1
 600 600 l 1,131,-1
 600 650 l 1,128,-1
100 650 m 1,132,-1
 150 650 l 1,133,-1
 150 600 l 1,134,-1
 100 600 l 1,135,-1
 100 650 l 1,132,-1
0 650 m 1,136,-1
 50 650 l 1,137,-1
 50 600 l 1,138,-1
 0 600 l 1,139,-1
 0 650 l 1,136,-1
700 750 m 1,140,-1
 750 750 l 1,141,-1
 750 700 l 1,142,-1
 700 700 l 1,143,-1
 700 750 l 1,140,-1
600 750 m 1,144,-1
 650 750 l 1,145,-1
 650 700 l 1,146,-1
 600 700 l 1,147,-1
 600 750 l 1,144,-1
100 750 m 1,148,-1
 150 750 l 1,149,-1
 150 700 l 1,150,-1
 100 700 l 1,151,-1
 100 750 l 1,148,-1
0 750 m 1,152,-1
 50 750 l 1,153,-1
 50 700 l 1,154,-1
 0 700 l 1,155,-1
 0 750 l 1,152,-1
700 850 m 1,156,-1
 750 850 l 1,157,-1
 750 800 l 1,158,-1
 700 800 l 1,159,-1
 700 850 l 1,156,-1
600 850 m 1,160,-1
 650 850 l 1,161,-1
 650 800 l 1,162,-1
 600 800 l 1,163,-1
 600 850 l 1,160,-1
100 850 m 1,164,-1
 150 850 l 1,165,-1
 150 800 l 1,166,-1
 100 800 l 1,167,-1
 100 850 l 1,164,-1
0 850 m 1,168,-1
 50 850 l 1,169,-1
 50 800 l 1,170,-1
 0 800 l 1,171,-1
 0 850 l 1,168,-1
700 950 m 1,172,-1
 750 950 l 1,173,-1
 750 900 l 1,174,-1
 700 900 l 1,175,-1
 700 950 l 1,172,-1
600 950 m 1,176,-1
 650 950 l 1,177,-1
 650 900 l 1,178,-1
 600 900 l 1,179,-1
 600 950 l 1,176,-1
100 950 m 1,180,-1
 150 950 l 1,181,-1
 150 900 l 1,182,-1
 100 900 l 1,183,-1
 100 950 l 1,180,-1
0 950 m 1,184,-1
 50 950 l 1,185,-1
 50 900 l 1,186,-1
 0 900 l 1,187,-1
 0 950 l 1,184,-1
700 1050 m 1,188,-1
 750 1050 l 1,189,-1
 750 1000 l 1,190,-1
 700 1000 l 1,191,-1
 700 1050 l 1,188,-1
600 1050 m 1,192,-1
 650 1050 l 1,193,-1
 650 1000 l 1,194,-1
 600 1000 l 1,195,-1
 600 1050 l 1,192,-1
500 1050 m 1,196,-1
 550 1050 l 1,197,-1
 550 1000 l 1,198,-1
 500 1000 l 1,199,-1
 500 1050 l 1,196,-1
400 1050 m 1,200,-1
 450 1050 l 1,201,-1
 450 1000 l 1,202,-1
 400 1000 l 1,203,-1
 400 1050 l 1,200,-1
300 1050 m 1,204,-1
 350 1050 l 1,205,-1
 350 1000 l 1,206,-1
 300 1000 l 1,207,-1
 300 1050 l 1,204,-1
200 1050 m 1,208,-1
 250 1050 l 1,209,-1
 250 1000 l 1,210,-1
 200 1000 l 1,211,-1
 200 1050 l 1,208,-1
100 1050 m 1,212,-1
 150 1050 l 1,213,-1
 150 1000 l 1,214,-1
 100 1000 l 1,215,-1
 100 1050 l 1,212,-1
0 1050 m 1,216,-1
 50 1050 l 1,217,-1
 50 1000 l 1,218,-1
 0 1000 l 1,219,-1
 0 1050 l 1,216,-1
600 1150 m 1,220,-1
 650 1150 l 1,221,-1
 650 1100 l 1,222,-1
 600 1100 l 1,223,-1
 600 1150 l 1,220,-1
500 1150 m 1,224,-1
 550 1150 l 1,225,-1
 550 1100 l 1,226,-1
 500 1100 l 1,227,-1
 500 1150 l 1,224,-1
400 1150 m 1,228,-1
 450 1150 l 1,229,-1
 450 1100 l 1,230,-1
 400 1100 l 1,231,-1
 400 1150 l 1,228,-1
300 1150 m 1,232,-1
 350 1150 l 1,233,-1
 350 1100 l 1,234,-1
 300 1100 l 1,235,-1
 300 1150 l 1,232,-1
200 1150 m 1,236,-1
 250 1150 l 1,237,-1
 250 1100 l 1,238,-1
 200 1100 l 1,239,-1
 200 1150 l 1,236,-1
EndSplineSet
EndChar

StartChar: P
Encoding: 80 80 48
Width: 900
GlyphClass: 1
Flags: W
LayerCount: 2
Fore
SplineSet
0 1150 m 1,0,-1
 50 1150 l 1,1,-1
 50 1100 l 1,2,-1
 0 1100 l 1,3,-1
 0 1150 l 1,0,-1
100 50 m 1,4,-1
 150 50 l 1,5,-1
 150 0 l 1,6,-1
 100 0 l 1,7,-1
 100 50 l 1,4,-1
0 50 m 1,8,-1
 50 50 l 1,9,-1
 50 0 l 1,10,-1
 0 0 l 1,11,-1
 0 50 l 1,8,-1
100 150 m 1,12,-1
 150 150 l 1,13,-1
 150 100 l 1,14,-1
 100 100 l 1,15,-1
 100 150 l 1,12,-1
0 150 m 1,16,-1
 50 150 l 1,17,-1
 50 100 l 1,18,-1
 0 100 l 1,19,-1
 0 150 l 1,16,-1
100 250 m 1,20,-1
 150 250 l 1,21,-1
 150 200 l 1,22,-1
 100 200 l 1,23,-1
 100 250 l 1,20,-1
0 250 m 1,24,-1
 50 250 l 1,25,-1
 50 200 l 1,26,-1
 0 200 l 1,27,-1
 0 250 l 1,24,-1
100 350 m 1,28,-1
 150 350 l 1,29,-1
 150 300 l 1,30,-1
 100 300 l 1,31,-1
 100 350 l 1,28,-1
0 350 m 1,32,-1
 50 350 l 1,33,-1
 50 300 l 1,34,-1
 0 300 l 1,35,-1
 0 350 l 1,32,-1
600 450 m 1,36,-1
 650 450 l 1,37,-1
 650 400 l 1,38,-1
 600 400 l 1,39,-1
 600 450 l 1,36,-1
500 450 m 1,40,-1
 550 450 l 1,41,-1
 550 400 l 1,42,-1
 500 400 l 1,43,-1
 500 450 l 1,40,-1
400 450 m 1,44,-1
 450 450 l 1,45,-1
 450 400 l 1,46,-1
 400 400 l 1,47,-1
 400 450 l 1,44,-1
300 450 m 1,48,-1
 350 450 l 1,49,-1
 350 400 l 1,50,-1
 300 400 l 1,51,-1
 300 450 l 1,48,-1
200 450 m 1,52,-1
 250 450 l 1,53,-1
 250 400 l 1,54,-1
 200 400 l 1,55,-1
 200 450 l 1,52,-1
100 450 m 1,56,-1
 150 450 l 1,57,-1
 150 400 l 1,58,-1
 100 400 l 1,59,-1
 100 450 l 1,56,-1
0 450 m 1,60,-1
 50 450 l 1,61,-1
 50 400 l 1,62,-1
 0 400 l 1,63,-1
 0 450 l 1,60,-1
700 550 m 1,64,-1
 750 550 l 1,65,-1
 750 500 l 1,66,-1
 700 500 l 1,67,-1
 700 550 l 1,64,-1
600 550 m 1,68,-1
 650 550 l 1,69,-1
 650 500 l 1,70,-1
 600 500 l 1,71,-1
 600 550 l 1,68,-1
500 550 m 1,72,-1
 550 550 l 1,73,-1
 550 500 l 1,74,-1
 500 500 l 1,75,-1
 500 550 l 1,72,-1
400 550 m 1,76,-1
 450 550 l 1,77,-1
 450 500 l 1,78,-1
 400 500 l 1,79,-1
 400 550 l 1,76,-1
300 550 m 1,80,-1
 350 550 l 1,81,-1
 350 500 l 1,82,-1
 300 500 l 1,83,-1
 300 550 l 1,80,-1
200 550 m 1,84,-1
 250 550 l 1,85,-1
 250 500 l 1,86,-1
 200 500 l 1,87,-1
 200 550 l 1,84,-1
100 550 m 1,88,-1
 150 550 l 1,89,-1
 150 500 l 1,90,-1
 100 500 l 1,91,-1
 100 550 l 1,88,-1
0 550 m 1,92,-1
 50 550 l 1,93,-1
 50 500 l 1,94,-1
 0 500 l 1,95,-1
 0 550 l 1,92,-1
700 650 m 1,96,-1
 750 650 l 1,97,-1
 750 600 l 1,98,-1
 700 600 l 1,99,-1
 700 650 l 1,96,-1
600 650 m 1,100,-1
 650 650 l 1,101,-1
 650 600 l 1,102,-1
 600 600 l 1,103,-1
 600 650 l 1,100,-1
100 650 m 1,104,-1
 150 650 l 1,105,-1
 150 600 l 1,106,-1
 100 600 l 1,107,-1
 100 650 l 1,104,-1
0 650 m 1,108,-1
 50 650 l 1,109,-1
 50 600 l 1,110,-1
 0 600 l 1,111,-1
 0 650 l 1,108,-1
700 750 m 1,112,-1
 750 750 l 1,113,-1
 750 700 l 1,114,-1
 700 700 l 1,115,-1
 700 750 l 1,112,-1
600 750 m 1,116,-1
 650 750 l 1,117,-1
 650 700 l 1,118,-1
 600 700 l 1,119,-1
 600 750 l 1,116,-1
100 750 m 1,120,-1
 150 750 l 1,121,-1
 150 700 l 1,122,-1
 100 700 l 1,123,-1
 100 750 l 1,120,-1
0 750 m 1,124,-1
 50 750 l 1,125,-1
 50 700 l 1,126,-1
 0 700 l 1,127,-1
 0 750 l 1,124,-1
700 850 m 1,128,-1
 750 850 l 1,129,-1
 750 800 l 1,130,-1
 700 800 l 1,131,-1
 700 850 l 1,128,-1
600 850 m 1,132,-1
 650 850 l 1,133,-1
 650 800 l 1,134,-1
 600 800 l 1,135,-1
 600 850 l 1,132,-1
100 850 m 1,136,-1
 150 850 l 1,137,-1
 150 800 l 1,138,-1
 100 800 l 1,139,-1
 100 850 l 1,136,-1
0 850 m 1,140,-1
 50 850 l 1,141,-1
 50 800 l 1,142,-1
 0 800 l 1,143,-1
 0 850 l 1,140,-1
700 950 m 1,144,-1
 750 950 l 1,145,-1
 750 900 l 1,146,-1
 700 900 l 1,147,-1
 700 950 l 1,144,-1
600 950 m 1,148,-1
 650 950 l 1,149,-1
 650 900 l 1,150,-1
 600 900 l 1,151,-1
 600 950 l 1,148,-1
100 950 m 1,152,-1
 150 950 l 1,153,-1
 150 900 l 1,154,-1
 100 900 l 1,155,-1
 100 950 l 1,152,-1
0 950 m 1,156,-1
 50 950 l 1,157,-1
 50 900 l 1,158,-1
 0 900 l 1,159,-1
 0 950 l 1,156,-1
700 1050 m 1,160,-1
 750 1050 l 1,161,-1
 750 1000 l 1,162,-1
 700 1000 l 1,163,-1
 700 1050 l 1,160,-1
600 1050 m 1,164,-1
 650 1050 l 1,165,-1
 650 1000 l 1,166,-1
 600 1000 l 1,167,-1
 600 1050 l 1,164,-1
500 1050 m 1,168,-1
 550 1050 l 1,169,-1
 550 1000 l 1,170,-1
 500 1000 l 1,171,-1
 500 1050 l 1,168,-1
400 1050 m 1,172,-1
 450 1050 l 1,173,-1
 450 1000 l 1,174,-1
 400 1000 l 1,175,-1
 400 1050 l 1,172,-1
300 1050 m 1,176,-1
 350 1050 l 1,177,-1
 350 1000 l 1,178,-1
 300 1000 l 1,179,-1
 300 1050 l 1,176,-1
200 1050 m 1,180,-1
 250 1050 l 1,181,-1
 250 1000 l 1,182,-1
 200 1000 l 1,183,-1
 200 1050 l 1,180,-1
100 1050 m 1,184,-1
 150 1050 l 1,185,-1
 150 1000 l 1,186,-1
 100 1000 l 1,187,-1
 100 1050 l 1,184,-1
0 1050 m 1,188,-1
 50 1050 l 1,189,-1
 50 1000 l 1,190,-1
 0 1000 l 1,191,-1
 0 1050 l 1,188,-1
600 1150 m 1,192,-1
 650 1150 l 1,193,-1
 650 1100 l 1,194,-1
 600 1100 l 1,195,-1
 600 1150 l 1,192,-1
500 1150 m 1,196,-1
 550 1150 l 1,197,-1
 550 1100 l 1,198,-1
 500 1100 l 1,199,-1
 500 1150 l 1,196,-1
400 1150 m 1,200,-1
 450 1150 l 1,201,-1
 450 1100 l 1,202,-1
 400 1100 l 1,203,-1
 400 1150 l 1,200,-1
300 1150 m 1,204,-1
 350 1150 l 1,205,-1
 350 1100 l 1,206,-1
 300 1100 l 1,207,-1
 300 1150 l 1,204,-1
200 1150 m 1,208,-1
 250 1150 l 1,209,-1
 250 1100 l 1,210,-1
 200 1100 l 1,211,-1
 200 1150 l 1,208,-1
100 1150 m 1,212,-1
 150 1150 l 1,213,-1
 150 1100 l 1,214,-1
 100 1100 l 1,215,-1
 100 1150 l 1,212,-1
EndSplineSet
EndChar

